CrimsonProS-W500.ufo
<glyph name="dollar" format="2">
  <advance width="497.0"/>
  <unicode hex="0024"/>
  <note>
dollar
</note>
  <outline>
    <contour>
      <point x="231.0" y="-116.0" type="line"/>
      <point x="292.0" y="-116.0" type="line"/>
      <point x="292.0" y="703.0" type="line"/>
      <point x="231.0" y="703.0" type="line"/>
    </contour>
    <contour>
      <point x="229.0" y="-9.0" type="curve" smooth="yes"/>
      <point x="371.0" y="-9.0"/>
      <point x="468.0" y="64.0"/>
      <point x="468.0" y="165.0" type="curve" smooth="yes"/>
      <point x="468.0" y="353.0"/>
      <point x="172.0" y="321.0"/>
      <point x="172.0" y="458.0" type="curve" smooth="yes"/>
      <point x="172.0" y="510.0"/>
      <point x="215.0" y="542.0"/>
      <point x="275.0" y="542.0" type="curve" smooth="yes"/>
      <point x="303.0" y="542.0"/>
      <point x="326.0" y="537.0"/>
      <point x="350.0" y="524.0" type="curve"/>
      <point x="380.0" y="429.0" type="line"/>
      <point x="437.0" y="433.0" type="line"/>
      <point x="427.0" y="572.0" type="line"/>
      <point x="391.0" y="588.0"/>
      <point x="333.0" y="598.0"/>
      <point x="285.0" y="598.0" type="curve" smooth="yes"/>
      <point x="146.0" y="598.0"/>
      <point x="51.0" y="527.0"/>
      <point x="51.0" y="423.0" type="curve" smooth="yes"/>
      <point x="51.0" y="225.0"/>
      <point x="344.0" y="266.0"/>
      <point x="344.0" y="127.0" type="curve" smooth="yes"/>
      <point x="344.0" y="78.0"/>
      <point x="306.0" y="49.0"/>
      <point x="243.0" y="49.0" type="curve" smooth="yes"/>
      <point x="208.0" y="49.0"/>
      <point x="168.0" y="59.0"/>
      <point x="138.0" y="79.0" type="curve"/>
      <point x="106.0" y="179.0" type="line"/>
      <point x="49.0" y="175.0" type="line"/>
      <point x="54.0" y="33.0" type="line"/>
      <point x="99.0" y="8.0"/>
      <point x="172.0" y="-9.0"/>
    </contour>
  </outline>
</glyph>
<glyph name="quotesingle" format="2">
  <advance width="212.0"/>
  <unicode hex="0027"/>
  <note>
    quotesingle
  </note>
  <outline>
    <contour>
      <point x="106.0" y="698.0" type="curve" smooth="yes"/>
      <point x="68.16" y="698.0"/>
      <point x="40.0" y="669.8400000000001"/>
      <point x="40.0" y="617.0400000000001" type="curve" smooth="yes"/>
      <point x="40.0" y="571.2800000000001"/>
      <point x="72.56000000000002" y="465.68000000000006"/>
      <point x="88.4" y="406.72" type="curve"/>
      <point x="124.48000000000002" y="406.72" type="line"/>
      <point x="139.44" y="465.68000000000006"/>
      <point x="172.0" y="571.2800000000001"/>
      <point x="172.0" y="617.0400000000001" type="curve" smooth="yes"/>
      <point x="172.0" y="669.8400000000001"/>
      <point x="142.96000000000004" y="698.0"/>
    </contour>
  </outline>
</glyph>
<glyph name="parenleft" format="2">
  <advance width="380.0"/>
  <unicode hex="0028"/>
  <note>
parenleft
</note>
  <outline>
    <contour>
      <point x="344.0" y="729.0" type="line"/>
      <point x="179.0" y="607.0"/>
      <point x="95.0" y="442.0"/>
      <point x="95.0" y="250.0" type="curve" smooth="yes"/>
      <point x="95.0" y="59.0"/>
      <point x="179.0" y="-104.0"/>
      <point x="344.0" y="-229.0" type="curve"/>
      <point x="380.0" y="-198.0" type="line"/>
      <point x="277.0" y="-95.0"/>
      <point x="220.0" y="65.0"/>
      <point x="220.0" y="250.0" type="curve" smooth="yes"/>
      <point x="220.0" y="435.0"/>
      <point x="277.0" y="595.0"/>
      <point x="380.0" y="698.0" type="curve"/>
    </contour>
  </outline>
</glyph>
<glyph name="parenright" format="2">
  <advance width="380.0"/>
  <unicode hex="0029"/>
  <note>
parenright
</note>
  <outline>
    <contour>
      <point x="37.0" y="729.0" type="curve"/>
      <point x="0.0" y="698.0" type="line"/>
      <point x="103.0" y="595.0"/>
      <point x="160.0" y="435.0"/>
      <point x="160.0" y="250.0" type="curve" smooth="yes"/>
      <point x="160.0" y="65.0"/>
      <point x="103.0" y="-95.0"/>
      <point x="0.0" y="-198.0" type="curve"/>
      <point x="37.0" y="-229.0" type="line"/>
      <point x="201.0" y="-104.0"/>
      <point x="285.0" y="59.0"/>
      <point x="285.0" y="250.0" type="curve" smooth="yes"/>
      <point x="285.0" y="442.0"/>
      <point x="201.0" y="607.0"/>
    </contour>
  </outline>
</glyph>
<glyph name="asterisk" format="2">
  <advance width="481.0"/>
  <unicode hex="002A"/>
  <note>
asterisk
</note>
  <outline>
    <contour>
      <point x="437.0" y="551.0" type="curve" smooth="yes"/>
      <point x="428.0" y="579.0"/>
      <point x="404.0" y="594.0"/>
      <point x="369.0" y="582.0" type="curve" smooth="yes"/>
      <point x="337.0" y="572.0"/>
      <point x="299.0" y="541.0"/>
      <point x="265.0" y="522.0" type="curve"/>
      <point x="273.0" y="561.0"/>
      <point x="291.0" y="609.0"/>
      <point x="291.0" y="643.0" type="curve" smooth="yes"/>
      <point x="291.0" y="680.0"/>
      <point x="270.0" y="698.0"/>
      <point x="241.0" y="698.0" type="curve" smooth="yes"/>
      <point x="212.0" y="698.0"/>
      <point x="189.0" y="680.0"/>
      <point x="189.0" y="643.0" type="curve" smooth="yes"/>
      <point x="189.0" y="609.0"/>
      <point x="207.0" y="561.0"/>
      <point x="215.0" y="522.0" type="curve"/>
      <point x="181.0" y="542.0"/>
      <point x="143.0" y="572.0"/>
      <point x="113.0" y="582.0" type="curve" smooth="yes"/>
      <point x="77.0" y="594.0"/>
      <point x="53.0" y="579.0"/>
      <point x="44.0" y="551.0" type="curve" smooth="yes"/>
      <point x="35.0" y="523.0"/>
      <point x="44.0" y="496.0"/>
      <point x="80.0" y="485.0" type="curve" smooth="yes"/>
      <point x="110.0" y="475.0"/>
      <point x="157.0" y="476.0"/>
      <point x="197.0" y="473.0" type="curve"/>
      <point x="166.0" y="446.0"/>
      <point x="125.0" y="419.0"/>
      <point x="105.0" y="393.0" type="curve" smooth="yes"/>
      <point x="84.0" y="362.0"/>
      <point x="91.0" y="334.0"/>
      <point x="114.0" y="318.0" type="curve" smooth="yes"/>
      <point x="138.0" y="300.0"/>
      <point x="167.0" y="302.0"/>
      <point x="188.0" y="332.0" type="curve" smooth="yes"/>
      <point x="209.0" y="360.0"/>
      <point x="223.0" y="413.0"/>
      <point x="241.0" y="451.0" type="curve"/>
      <point x="258.0" y="413.0"/>
      <point x="271.0" y="360.0"/>
      <point x="292.0" y="332.0" type="curve" smooth="yes"/>
      <point x="315.0" y="302.0"/>
      <point x="342.0" y="300.0"/>
      <point x="366.0" y="318.0" type="curve" smooth="yes"/>
      <point x="390.0" y="335.0"/>
      <point x="398.0" y="362.0"/>
      <point x="375.0" y="393.0" type="curve" smooth="yes"/>
      <point x="356.0" y="419.0"/>
      <point x="314.0" y="446.0"/>
      <point x="283.0" y="473.0" type="curve"/>
      <point x="323.0" y="476.0"/>
      <point x="370.0" y="474.0"/>
      <point x="400.0" y="485.0" type="curve" smooth="yes"/>
      <point x="436.0" y="497.0"/>
      <point x="446.0" y="523.0"/>
    </contour>
  </outline>
</glyph>
<glyph name="plus" format="2">
  <advance width="540.0"/>
  <unicode hex="002B"/>
  <outline>
    <contour>
      <point x="486.0" y="292.0" type="line"/>
      <point x="54.0" y="292.0" type="line"/>
      <point x="54.0" y="216.0" type="line"/>
      <point x="486.0" y="216.0" type="line"/>
    </contour>
    <contour>
      <point x="232.0" y="472.0" type="line"/>
      <point x="232.0" y="38.0" type="line"/>
      <point x="309.0" y="38.0" type="line"/>
      <point x="309.0" y="472.0" type="line"/>
    </contour>
  </outline>
</glyph>
<glyph name="hyphen" format="2">
  <advance width="386.0"/>
  <unicode hex="002D"/>
  <note>
hyphen
</note>
  <outline>
    <contour>
      <point x="77.0" y="162.0" type="line"/>
      <point x="309.0" y="193.0" type="line"/>
      <point x="309.0" y="284.0" type="line"/>
      <point x="77.0" y="251.0" type="line"/>
    </contour>
  </outline>
</glyph>
<glyph name="period" format="2">
  <advance width="268.0"/>
  <unicode hex="002E"/>
  <note>
period
</note>
  <outline>
    <contour>
      <point x="134.0" y="-10.0" type="curve" smooth="yes"/>
      <point x="181.0" y="-10.0"/>
      <point x="218.0" y="25.0"/>
      <point x="218.0" y="71.0" type="curve" smooth="yes"/>
      <point x="218.0" y="117.0"/>
      <point x="181.0" y="153.0"/>
      <point x="134.0" y="153.0" type="curve" smooth="yes"/>
      <point x="88.0" y="153.0"/>
      <point x="51.0" y="117.0"/>
      <point x="51.0" y="71.0" type="curve" smooth="yes"/>
      <point x="51.0" y="25.0"/>
      <point x="88.0" y="-10.0"/>
    </contour>
  </outline>
</glyph>
<glyph name="zero" format="2">
  <advance width="605.0"/>
  <unicode hex="0030"/>
  <note>
zero
</note>
  <outline>
    <contour>
      <point x="308.0" y="-9.0" type="curve" smooth="yes"/>
      <point x="445.0" y="-9.0"/>
      <point x="555.0" y="125.0"/>
      <point x="555.0" y="300.0" type="curve" smooth="yes"/>
      <point x="555.0" y="479.0"/>
      <point x="454.0" y="596.0"/>
      <point x="310.0" y="596.0" type="curve" smooth="yes"/>
      <point x="159.0" y="596.0"/>
      <point x="50.0" y="471.0"/>
      <point x="50.0" y="288.0" type="curve" smooth="yes"/>
      <point x="50.0" y="110.0"/>
      <point x="158.0" y="-9.0"/>
    </contour>
    <contour>
      <point x="316.0" y="57.0" type="curve" smooth="yes"/>
      <point x="239.0" y="57.0"/>
      <point x="182.0" y="159.0"/>
      <point x="182.0" y="313.0" type="curve" smooth="yes"/>
      <point x="182.0" y="459.0"/>
      <point x="229.0" y="537.0"/>
      <point x="300.0" y="537.0" type="curve" smooth="yes"/>
      <point x="375.0" y="537.0"/>
      <point x="426.0" y="435.0"/>
      <point x="426.0" y="275.0" type="curve" smooth="yes"/>
      <point x="426.0" y="129.0"/>
      <point x="385.0" y="57.0"/>
    </contour>
  </outline>
</glyph>
<glyph name="two" format="2">
  <advance width="508.0"/>
  <unicode hex="0032"/>
  <note>
two
</note>
  <outline>
    <contour>
      <point x="49.0" y="-3.0" type="line"/>
      <point x="74.0" y="-1.0"/>
      <point x="101.0" y="0.0"/>
      <point x="125.0" y="0.0" type="curve" smooth="yes"/>
      <point x="324.0" y="0.0" type="line" smooth="yes"/>
      <point x="357.0" y="0.0"/>
      <point x="415.0" y="-2.0"/>
      <point x="450.0" y="-5.0" type="curve"/>
      <point x="480.0" y="169.0" type="line"/>
      <point x="425.0" y="175.0" type="line"/>
      <point x="393.0" y="100.0" type="line"/>
      <point x="377.0" y="97.0"/>
      <point x="365.0" y="96.0"/>
      <point x="343.0" y="96.0" type="curve" smooth="yes"/>
      <point x="158.0" y="96.0" type="line"/>
      <point x="158.0" y="83.0" type="line"/>
      <point x="326.0" y="191.0"/>
      <point x="419.0" y="308.0"/>
      <point x="419.0" y="416.0" type="curve" smooth="yes"/>
      <point x="419.0" y="523.0"/>
      <point x="339.0" y="596.0"/>
      <point x="229.0" y="596.0" type="curve" smooth="yes"/>
      <point x="136.0" y="596.0"/>
      <point x="61.0" y="545.0"/>
      <point x="24.0" y="456.0" type="curve"/>
      <point x="63.0" y="428.0" type="line"/>
      <point x="94.0" y="479.0"/>
      <point x="136.0" y="504.0"/>
      <point x="187.0" y="504.0" type="curve" smooth="yes"/>
      <point x="252.0" y="504.0"/>
      <point x="293.0" y="460.0"/>
      <point x="293.0" y="393.0" type="curve" smooth="yes"/>
      <point x="293.0" y="291.0"/>
      <point x="224.0" y="192.0"/>
      <point x="46.0" y="45.0" type="curve"/>
    </contour>
  </outline>
</glyph>
<glyph name="three" format="2">
  <advance width="493.0"/>
  <unicode hex="0033"/>
  <note>
    three
  </note>
  <outline>
    <contour>
      <point x="199.0" y="-9.0" type="curve" smooth="yes"/>
      <point x="347.0" y="-9.0"/>
      <point x="446.0" y="82.0"/>
      <point x="446.0" y="176.0" type="curve" smooth="yes"/>
      <point x="446.0" y="265.0"/>
      <point x="376.0" y="321.0"/>
      <point x="258.0" y="324.0" type="curve"/>
      <point x="243.0" y="306.0" type="line"/>
      <point x="340.0" y="332.0"/>
      <point x="408.0" y="385.0"/>
      <point x="408.0" y="464.0" type="curve" smooth="yes"/>
      <point x="408.0" y="539.0"/>
      <point x="345.0" y="596.0"/>
      <point x="245.0" y="596.0" type="curve" smooth="yes"/>
      <point x="157.0" y="596.0"/>
      <point x="83.0" y="549.0"/>
      <point x="49.0" y="476.0" type="curve"/>
      <point x="87.0" y="449.0" type="line"/>
      <point x="112.0" y="486.0"/>
      <point x="154.0" y="507.0"/>
      <point x="199.0" y="507.0" type="curve" smooth="yes"/>
      <point x="253.0" y="507.0"/>
      <point x="287.0" y="478.0"/>
      <point x="287.0" y="431.0" type="curve" smooth="yes"/>
      <point x="287.0" y="372.0"/>
      <point x="234.0" y="330.0"/>
      <point x="146.0" y="320.0" type="curve"/>
      <point x="153.0" y="265.0" type="line"/>
      <point x="167.0" y="268.0"/>
      <point x="184.0" y="269.0"/>
      <point x="203.0" y="269.0" type="curve" smooth="yes"/>
      <point x="277.0" y="269.0"/>
      <point x="324.0" y="227.0"/>
      <point x="324.0" y="161.0" type="curve" smooth="yes"/>
      <point x="324.0" y="84.0"/>
      <point x="267.65976962107857" y="46.527964365186335"/>
      <point x="215.89219439786575" y="45.69568823619625" type="curve" smooth="yes"/>
      <point x="204.0802126912894" y="45.50578499332556"/>
      <point x="188.4144046939591" y="47.413050092690355"/>
      <point x="180.97250331581768" y="50.27531985351402" type="curve"/>
      <point x="171.24078612901758" y="59.434583088149566"/>
      <point x="138.0384569034636" y="112.6728006394685"/>
      <point x="131.16900947748695" y="126.9841494435866" type="curve"/>
      <point x="120.67771779369218" y="131.87695588541305"/>
      <point x="112.98476146999542" y="136.7158666303867"/>
      <point x="97.39422629976866" y="136.7158666303867" type="curve" smooth="yes"/>
      <point x="64.93545726913658" y="136.7158666303867"/>
      <point x="44.156008748449494" y="118.01605197824142"/>
      <point x="44.156008748449494" y="81.18783327040887" type="curve" smooth="yes"/>
      <point x="44.156008748449494" y="26.69686560288733"/>
      <point x="111.0" y="-9.0"/>
    </contour>
  </outline>
</glyph>
<glyph name="four" format="2">
  <advance width="540.0"/>
  <unicode hex="0034"/>
  <note>
four
</note>
  <outline>
    <contour>
      <point x="414.0" y="154.0" type="curve"/>
      <point x="413.0" y="429.0" type="line"/>
      <point x="413.0" y="486.0"/>
      <point x="415.0" y="543.0"/>
      <point x="417.0" y="591.0" type="curve"/>
      <point x="352.0" y="591.0" type="line"/>
      <point x="32.0" y="197.0" type="line"/>
      <point x="41.0" y="154.0" type="line"/>
      <point x="500.0" y="154.0" type="line"/>
      <point x="500.0" y="232.0" type="line"/>
      <point x="122.0" y="232.0" type="line"/>
      <point x="125.0" y="211.0" type="line"/>
      <point x="313.0" y="461.0" type="line"/>
      <point x="298.0" y="470.0" type="line"/>
      <point x="298.0" y="154.0" type="line"/>
      <point x="298.0" y="92.0"/>
      <point x="298.0" y="75.0"/>
      <point x="297.0" y="61.0" type="curve"/>
      <point x="213.0" y="46.0" type="line"/>
      <point x="216.0" y="0.0" type="line"/>
      <point x="477.0" y="0.0" type="line"/>
      <point x="480.0" y="46.0" type="line"/>
      <point x="417.0" y="61.0" type="line"/>
      <point x="415.0" y="75.0"/>
      <point x="414.0" y="92.0"/>
    </contour>
  </outline>
</glyph>
<glyph name="five" format="2">
  <advance width="493.0"/>
  <unicode hex="0035"/>
  <note>
    five
  </note>
  <outline>
    <contour>
      <point x="200.33382789317488" y="-9.0" type="curve" smooth="yes"/>
      <point x="355.2922848664682" y="-9.0"/>
      <point x="442.77530497856856" y="75.67846316066948"/>
      <point x="442.77530497856856" y="178.33372691592376" type="curve" smooth="yes"/>
      <point x="442.77530497856856" y="321.8231843943588"/>
      <point x="312.77184657967564" y="378.23134967707915"/>
      <point x="157.22205746671943" y="378.23134967707915" type="curve"/>
      <point x="172.32121282017488" y="486.0" type="line"/>
      <point x="418.75082377751414" y="486.0" type="line"/>
      <point x="427.75082377751414" y="587.0" type="line"/>
      <point x="125.71941922756332" y="587.0" type="line"/>
      <point x="80.30183208119138" y="275.67104916304197" type="line"/>
      <point x="223.73589433558345" y="280.6170513097452"/>
      <point x="316.19052326347696" y="238.06560564122833"/>
      <point x="316.19052326347696" y="147.47067352049544" type="curve" smooth="yes"/>
      <point x="316.19052326347696" y="84.16184604269483"/>
      <point x="276.8849006629973" y="45.12323428403147"/>
      <point x="214.7472864935362" y="45.12323428403147" type="curve" smooth="yes"/>
      <point x="201.90247058191773" y="45.12323428403147"/>
      <point x="187.00671863464368" y="46.75575879854978"/>
      <point x="180.12527146661387" y="49.087610513417985" type="curve"/>
      <point x="171.4444271567309" y="61.62781578761903"/>
      <point x="145.980600602428" y="100.77162036291247"/>
      <point x="130.5965555253224" y="126.41169549142182" type="curve"/>
      <point x="119.3149810880634" y="133.86308586627456"/>
      <point x="110.23608466377175" y="136.7158666303867"/>
      <point x="93.38704863461544" y="136.7158666303867" type="curve" smooth="yes"/>
      <point x="62.474535217720586" y="136.7158666303867"/>
      <point x="44.15600874844972" y="113.24525459163328"/>
      <point x="44.15600874844972" y="83.82112145036672" type="curve" smooth="yes"/>
      <point x="44.15600874844972" y="22.79753014960687"/>
      <point x="112.33382789317488" y="-9.0"/>
    </contour>
  </outline>
</glyph>
<glyph name="colon" format="2">
  <advance width="268.0"/>
  <unicode hex="003A"/>
  <note>
colon
</note>
  <outline>
    <contour>
      <point x="134.0" y="-10.0" type="curve" smooth="yes"/>
      <point x="181.0" y="-10.0"/>
      <point x="218.0" y="25.0"/>
      <point x="218.0" y="70.0" type="curve" smooth="yes"/>
      <point x="218.0" y="116.0"/>
      <point x="181.0" y="152.0"/>
      <point x="134.0" y="152.0" type="curve" smooth="yes"/>
      <point x="88.0" y="152.0"/>
      <point x="51.0" y="116.0"/>
      <point x="51.0" y="70.0" type="curve" smooth="yes"/>
      <point x="51.0" y="25.0"/>
      <point x="88.0" y="-10.0"/>
    </contour>
    <contour>
      <point x="134.0" y="284.0" type="curve" smooth="yes"/>
      <point x="181.0" y="284.0"/>
      <point x="218.0" y="318.0"/>
      <point x="218.0" y="364.0" type="curve" smooth="yes"/>
      <point x="218.0" y="411.0"/>
      <point x="181.0" y="447.0"/>
      <point x="134.0" y="447.0" type="curve" smooth="yes"/>
      <point x="88.0" y="447.0"/>
      <point x="51.0" y="411.0"/>
      <point x="51.0" y="364.0" type="curve" smooth="yes"/>
      <point x="51.0" y="318.0"/>
      <point x="88.0" y="284.0"/>
    </contour>
  </outline>
</glyph>
<glyph name="semicolon" format="2">
  <advance width="268.0"/>
  <unicode hex="003B"/>
  <note>
semicolon
</note>
  <outline>
    <contour>
      <point x="46.0" y="-199.0" type="line"/>
      <point x="161.0" y="-153.0"/>
      <point x="223.0" y="-62.0"/>
      <point x="223.0" y="36.0" type="curve" smooth="yes"/>
      <point x="223.0" y="119.0"/>
      <point x="176.0" y="152.0"/>
      <point x="132.0" y="152.0" type="curve" smooth="yes"/>
      <point x="86.0" y="152.0"/>
      <point x="52.0" y="120.0"/>
      <point x="52.0" y="79.0" type="curve" smooth="yes"/>
      <point x="52.0" y="10.0"/>
      <point x="127.0" y="15.0"/>
      <point x="127.0" y="-50.0" type="curve" smooth="yes"/>
      <point x="127.0" y="-95.0"/>
      <point x="98.0" y="-132.0"/>
      <point x="29.0" y="-162.0" type="curve"/>
    </contour>
    <contour>
      <point x="134.0" y="284.0" type="curve" smooth="yes"/>
      <point x="181.0" y="284.0"/>
      <point x="218.0" y="318.0"/>
      <point x="218.0" y="364.0" type="curve" smooth="yes"/>
      <point x="218.0" y="411.0"/>
      <point x="181.0" y="447.0"/>
      <point x="134.0" y="447.0" type="curve" smooth="yes"/>
      <point x="88.0" y="447.0"/>
      <point x="51.0" y="411.0"/>
      <point x="51.0" y="364.0" type="curve" smooth="yes"/>
      <point x="51.0" y="318.0"/>
      <point x="88.0" y="284.0"/>
    </contour>
  </outline>
</glyph>
<glyph name="greater" format="2">
  <advance width="540.0"/>
  <unicode hex="003E"/>
  <outline>
    <contour>
      <point x="487.0" y="212.0" type="line"/>
      <point x="487.0" y="298.0" type="line"/>
      <point x="53.0" y="481.0" type="line"/>
      <point x="53.0" y="394.0" type="line"/>
      <point x="455.0" y="226.0" type="line"/>
      <point x="455.0" y="282.0" type="line"/>
      <point x="53.0" y="115.0" type="line"/>
      <point x="53.0" y="29.0" type="line"/>
    </contour>
  </outline>
</glyph>
<glyph name="question" format="2">
  <advance width="373.0"/>
  <unicode hex="003F"/>
  <note>
question
</note>
  <outline>
    <contour>
      <point x="107.0" y="211.0" type="curve"/>
      <point x="159.0" y="211.0" type="line"/>
      <point x="157.0" y="230.0"/>
      <point x="156.0" y="241.0"/>
      <point x="156.0" y="252.0" type="curve" smooth="yes"/>
      <point x="156.0" y="342.0"/>
      <point x="332.0" y="341.0"/>
      <point x="332.0" y="482.0" type="curve" smooth="yes"/>
      <point x="332.0" y="604.0"/>
      <point x="225.0" y="698.0"/>
      <point x="93.0" y="698.0" type="curve" smooth="yes"/>
      <point x="39.0" y="698.0"/>
      <point x="9.0" y="673.0"/>
      <point x="9.0" y="639.0" type="curve" smooth="yes"/>
      <point x="9.0" y="605.0"/>
      <point x="38.0" y="579.0"/>
      <point x="83.0" y="579.0" type="curve" smooth="yes"/>
      <point x="115.0" y="579.0"/>
      <point x="146.0" y="596.0"/>
      <point x="178.0" y="596.0" type="curve" smooth="yes"/>
      <point x="221.0" y="596.0"/>
      <point x="248.0" y="569.0"/>
      <point x="248.0" y="533.0" type="curve" smooth="yes"/>
      <point x="248.0" y="445.0"/>
      <point x="82.0" y="411.0"/>
      <point x="82.0" y="304.0" type="curve" smooth="yes"/>
      <point x="82.0" y="274.0"/>
      <point x="89.0" y="247.0"/>
    </contour>
    <contour>
      <point x="133.0" y="-10.0" type="curve" smooth="yes"/>
      <point x="181.0" y="-10.0"/>
      <point x="217.0" y="25.0"/>
      <point x="217.0" y="71.0" type="curve" smooth="yes"/>
      <point x="217.0" y="117.0"/>
      <point x="181.0" y="153.0"/>
      <point x="133.0" y="153.0" type="curve" smooth="yes"/>
      <point x="87.0" y="153.0"/>
      <point x="51.0" y="117.0"/>
      <point x="51.0" y="71.0" type="curve" smooth="yes"/>
      <point x="51.0" y="25.0"/>
      <point x="87.0" y="-10.0"/>
    </contour>
  </outline>
</glyph>
<glyph name="A" format="2">
  <advance width="596.0"/>
  <unicode hex="0041"/>
  <note>
A
</note>
  <anchor x="269.0" y="0.0" name="bottom"/>
  <anchor x="558.0" y="0.0" name="ogonek"/>
  <anchor x="288.0" y="587.0" name="top"/>
  <outline>
    <contour>
      <point x="-1.0" y="0.0" type="line"/>
      <point x="183.0" y="0.0" type="line"/>
      <point x="186.0" y="46.0" type="line"/>
      <point x="123.0" y="61.0" type="line"/>
      <point x="172.0" y="202.0" type="line"/>
      <point x="182.0" y="232.0" type="line"/>
      <point x="272.0" y="477.0" type="line"/>
      <point x="245.0" y="478.0" type="line"/>
      <point x="348.0" y="230.0" type="line"/>
      <point x="359.0" y="197.0" type="line"/>
      <point x="415.0" y="61.0" type="line"/>
      <point x="352.0" y="46.0" type="line"/>
      <point x="355.0" y="0.0" type="line"/>
      <point x="600.0" y="0.0" type="line"/>
      <point x="603.0" y="46.0" type="line"/>
      <point x="552.0" y="61.0" type="line"/>
      <point x="326.0" y="605.0" type="line"/>
      <point x="251.0" y="562.0" type="line"/>
      <point x="47.0" y="61.0" type="line"/>
      <point x="-4.0" y="46.0" type="line"/>
    </contour>
    <contour>
      <point x="151.0" y="175.0" type="line"/>
      <point x="184.0" y="176.0"/>
      <point x="220.0" y="178.0"/>
      <point x="268.0" y="178.0" type="curve" smooth="yes"/>
      <point x="316.0" y="178.0"/>
      <point x="353.0" y="176.0"/>
      <point x="385.0" y="176.0" type="curve"/>
      <point x="385.0" y="238.0" type="line"/>
      <point x="361.0" y="237.0"/>
      <point x="324.0" y="234.0"/>
      <point x="268.0" y="234.0" type="curve" smooth="yes"/>
      <point x="211.0" y="234.0"/>
      <point x="176.0" y="237.0"/>
      <point x="151.0" y="238.0" type="curve"/>
    </contour>
  </outline>
</glyph>
<glyph name="B" format="2">
  <advance width="585.0"/>
  <unicode hex="0042"/>
  <note>
B
</note>
  <anchor x="295.0" y="0.0" name="bottom"/>
  <anchor x="295.0" y="587.0" name="top"/>
  <outline>
    <contour>
      <point x="99.0" y="61.0" type="curve"/>
      <point x="36.0" y="46.0" type="line"/>
      <point x="39.0" y="0.0" type="line"/>
      <point x="286.0" y="0.0" type="line" smooth="yes"/>
      <point x="447.0" y="0.0"/>
      <point x="543.0" y="64.0"/>
      <point x="543.0" y="171.0" type="curve" smooth="yes"/>
      <point x="543.0" y="260.0"/>
      <point x="472.0" y="314.0"/>
      <point x="347.0" y="319.0" type="curve"/>
      <point x="347.0" y="311.0" type="line"/>
      <point x="446.0" y="318.0"/>
      <point x="513.0" y="373.0"/>
      <point x="513.0" y="446.0" type="curve" smooth="yes"/>
      <point x="513.0" y="539.0"/>
      <point x="444.0" y="587.0"/>
      <point x="307.0" y="587.0" type="curve" smooth="yes"/>
      <point x="39.0" y="587.0" type="line"/>
      <point x="36.0" y="541.0" type="line"/>
      <point x="99.0" y="527.0" type="line"/>
      <point x="103.0" y="520.0"/>
      <point x="106.0" y="458.0"/>
      <point x="106.0" y="373.0" type="curve" smooth="yes"/>
      <point x="106.0" y="213.0" type="line" smooth="yes"/>
      <point x="106.0" y="133.0"/>
      <point x="103.0" y="70.0"/>
    </contour>
    <contour>
      <point x="223.0" y="177.0" type="curve" smooth="yes"/>
      <point x="223.0" y="411.0" type="line" smooth="yes"/>
      <point x="223.0" y="472.0"/>
      <point x="224.0" y="524.0"/>
      <point x="225.0" y="535.0" type="curve"/>
      <point x="272.0" y="535.0" type="line" smooth="yes"/>
      <point x="349.0" y="535.0"/>
      <point x="387.0" y="497.0"/>
      <point x="387.0" y="434.0" type="curve" smooth="yes"/>
      <point x="387.0" y="366.0"/>
      <point x="346.0" y="328.0"/>
      <point x="270.0" y="328.0" type="curve" smooth="yes"/>
      <point x="247.0" y="328.0"/>
      <point x="232.0" y="329.0"/>
      <point x="212.0" y="330.0" type="curve"/>
      <point x="212.0" y="269.0" type="line"/>
      <point x="230.0" y="271.0"/>
      <point x="245.0" y="271.0"/>
      <point x="276.0" y="271.0" type="curve" smooth="yes"/>
      <point x="371.0" y="271.0"/>
      <point x="417.0" y="235.0"/>
      <point x="417.0" y="158.0" type="curve" smooth="yes"/>
      <point x="417.0" y="91.0"/>
      <point x="372.0" y="54.0"/>
      <point x="291.0" y="54.0" type="curve" smooth="yes"/>
      <point x="271.0" y="54.0"/>
      <point x="241.0" y="58.0"/>
      <point x="226.0" y="62.0" type="curve"/>
      <point x="224.0" y="75.0"/>
      <point x="223.0" y="121.0"/>
    </contour>
  </outline>
</glyph>
<glyph name="N" format="2">
  <advance width="687.0"/>
  <unicode hex="004E"/>
  <note>
N
</note>
  <anchor x="344.0" y="0.0" name="bottom"/>
  <anchor x="344.0" y="587.0" name="top"/>
  <outline>
    <contour>
      <point x="513.0" y="172.0" type="line"/>
      <point x="546.0" y="172.0" type="line"/>
      <point x="193.0" y="587.0" type="line"/>
      <point x="42.0" y="587.0" type="line"/>
      <point x="39.0" y="541.0" type="line"/>
      <point x="102.0" y="526.0" type="line"/>
      <point x="104.0" y="518.0"/>
      <point x="108.0" y="464.0"/>
      <point x="108.0" y="394.0" type="curve" smooth="yes"/>
      <point x="108.0" y="248.0" type="line" smooth="yes"/>
      <point x="108.0" y="141.0"/>
      <point x="105.0" y="72.0"/>
      <point x="102.0" y="61.0" type="curve"/>
      <point x="39.0" y="46.0" type="line"/>
      <point x="42.0" y="0.0" type="line"/>
      <point x="250.0" y="0.0" type="line"/>
      <point x="253.0" y="46.0" type="line"/>
      <point x="184.0" y="61.0" type="line"/>
      <point x="180.0" y="72.0"/>
      <point x="177.0" y="136.0"/>
      <point x="177.0" y="248.0" type="curve" smooth="yes"/>
      <point x="177.0" y="470.0" type="line"/>
      <point x="135.0" y="469.0" type="line"/>
      <point x="525.0" y="-5.0" type="line"/>
      <point x="581.0" y="-5.0" type="line"/>
      <point x="581.0" y="42.0"/>
      <point x="580.0" y="86.0"/>
      <point x="580.0" y="142.0" type="curve" smooth="yes"/>
      <point x="580.0" y="348.0" type="line" smooth="yes"/>
      <point x="580.0" y="452.0"/>
      <point x="584.0" y="518.0"/>
      <point x="586.0" y="526.0" type="curve"/>
      <point x="649.0" y="541.0" type="line"/>
      <point x="646.0" y="587.0" type="line"/>
      <point x="441.0" y="587.0" type="line"/>
      <point x="438.0" y="541.0" type="line"/>
      <point x="507.0" y="526.0" type="line"/>
      <point x="511.0" y="518.0"/>
      <point x="513.0" y="452.0"/>
      <point x="513.0" y="348.0" type="curve" smooth="yes"/>
    </contour>
  </outline>
</glyph>
<glyph name="T" format="2">
  <advance width="591.0"/>
  <unicode hex="0054"/>
  <note>
T
</note>
  <anchor x="296.0" y="0.0" name="bottom"/>
  <anchor x="296.0" y="303.0" name="stroke"/>
  <anchor x="296.0" y="587.0" name="top"/>
  <outline>
    <contour>
      <point x="553.0" y="592.0" type="line"/>
      <point x="523.0" y="590.0"/>
      <point x="462.0" y="587.0"/>
      <point x="427.0" y="587.0" type="curve" smooth="yes"/>
      <point x="162.0" y="587.0" type="line" smooth="yes"/>
      <point x="127.0" y="587.0"/>
      <point x="66.0" y="590.0"/>
      <point x="36.0" y="592.0" type="curve"/>
      <point x="15.0" y="419.0" type="line"/>
      <point x="71.0" y="413.0" type="line"/>
      <point x="110.0" y="529.0" type="line"/>
      <point x="125.0" y="531.0"/>
      <point x="139.0" y="532.0"/>
      <point x="154.0" y="532.0" type="curve" smooth="yes"/>
      <point x="190.0" y="532.0" type="line" smooth="yes"/>
      <point x="203.0" y="532.0"/>
      <point x="223.0" y="532.0"/>
      <point x="234.0" y="530.0" type="curve"/>
      <point x="235.0" y="516.0"/>
      <point x="236.0" y="421.0"/>
      <point x="236.0" y="338.0" type="curve" smooth="yes"/>
      <point x="236.0" y="231.0" type="line" smooth="yes"/>
      <point x="236.0" y="153.0"/>
      <point x="234.0" y="87.0"/>
      <point x="233.0" y="61.0" type="curve"/>
      <point x="147.0" y="48.0" type="line"/>
      <point x="150.0" y="0.0" type="line"/>
      <point x="442.0" y="0.0" type="line"/>
      <point x="445.0" y="48.0" type="line"/>
      <point x="359.0" y="61.0" type="line"/>
      <point x="358.0" y="87.0"/>
      <point x="356.0" y="153.0"/>
      <point x="356.0" y="231.0" type="curve" smooth="yes"/>
      <point x="356.0" y="338.0" type="line" smooth="yes"/>
      <point x="356.0" y="421.0"/>
      <point x="357.0" y="516.0"/>
      <point x="358.0" y="530.0" type="curve"/>
      <point x="369.0" y="532.0"/>
      <point x="390.0" y="532.0"/>
      <point x="402.0" y="532.0" type="curve" smooth="yes"/>
      <point x="437.0" y="532.0" type="line" smooth="yes"/>
      <point x="452.0" y="532.0"/>
      <point x="465.0" y="531.0"/>
      <point x="480.0" y="529.0" type="curve"/>
      <point x="520.0" y="415.0" type="line"/>
      <point x="576.0" y="420.0" type="line"/>
    </contour>
  </outline>
</glyph>
<glyph name="U" format="2">
  <advance width="685.0"/>
  <unicode hex="0055"/>
  <note>
U
</note>
  <anchor x="365.0" y="0.0" name="bottom"/>
  <anchor x="424.0" y="0.0" name="ogonek"/>
  <anchor x="366.0" y="587.0" name="top"/>
  <anchor x="658.0" y="587.0" name="topright"/>
  <outline>
    <contour>
      <point x="38.0" y="587.0" type="line"/>
      <point x="35.0" y="541.0" type="line"/>
      <point x="98.0" y="525.0" type="line"/>
      <point x="100.0" y="519.0"/>
      <point x="103.0" y="465.0"/>
      <point x="103.0" y="373.0" type="curve" smooth="yes"/>
      <point x="103.0" y="237.0" type="line" smooth="yes"/>
      <point x="103.0" y="80.0"/>
      <point x="193.0" y="-9.0"/>
      <point x="353.0" y="-9.0" type="curve" smooth="yes"/>
      <point x="491.0" y="-9.0"/>
      <point x="583.0" y="81.0"/>
      <point x="583.0" y="243.0" type="curve" smooth="yes"/>
      <point x="583.0" y="355.0" type="line" smooth="yes"/>
      <point x="583.0" y="456.0"/>
      <point x="586.0" y="519.0"/>
      <point x="588.0" y="525.0" type="curve"/>
      <point x="651.0" y="541.0" type="line"/>
      <point x="648.0" y="587.0" type="line"/>
      <point x="435.0" y="587.0" type="line"/>
      <point x="432.0" y="541.0" type="line"/>
      <point x="502.0" y="525.0" type="line"/>
      <point x="505.0" y="519.0"/>
      <point x="508.0" y="456.0"/>
      <point x="508.0" y="355.0" type="curve" smooth="yes"/>
      <point x="508.0" y="256.0" type="line" smooth="yes"/>
      <point x="508.0" y="131.0"/>
      <point x="458.0" y="75.0"/>
      <point x="369.0" y="75.0" type="curve" smooth="yes"/>
      <point x="276.0" y="75.0"/>
      <point x="222.0" y="132.0"/>
      <point x="222.0" y="253.0" type="curve"/>
      <point x="222.0" y="373.0" type="line"/>
      <point x="221.0" y="463.0"/>
      <point x="224.0" y="508.0"/>
      <point x="226.0" y="525.0" type="curve"/>
      <point x="289.0" y="541.0" type="line"/>
      <point x="286.0" y="587.0" type="line"/>
    </contour>
  </outline>
</glyph>
<glyph name="V" format="2">
  <advance width="601.0"/>
  <unicode hex="0056"/>
  <note>
V
</note>
  <anchor x="295.0" y="0.0" name="bottom"/>
  <anchor x="295.0" y="587.0" name="top"/>
  <outline>
    <contour>
      <point x="273.0" y="-3.0" type="line"/>
      <point x="323.0" y="-3.0" type="line"/>
      <point x="554.0" y="526.0" type="line"/>
      <point x="605.0" y="542.0" type="line"/>
      <point x="602.0" y="587.0" type="line"/>
      <point x="404.0" y="587.0" type="line"/>
      <point x="401.0" y="541.0" type="line"/>
      <point x="471.0" y="526.0" type="line"/>
      <point x="316.0" y="121.0" type="line"/>
      <point x="351.0" y="121.0" type="line"/>
      <point x="183.0" y="526.0" type="line"/>
      <point x="245.0" y="541.0" type="line"/>
      <point x="242.0" y="587.0" type="line"/>
      <point x="-2.0" y="587.0" type="line"/>
      <point x="-5.0" y="542.0" type="line"/>
      <point x="46.0" y="526.0" type="line"/>
    </contour>
  </outline>
</glyph>
<glyph name="X" format="2">
  <advance width="596.0"/>
  <unicode hex="0058"/>
  <note>
X
</note>
  <anchor x="293.0" y="0.0" name="bottom"/>
  <anchor x="293.0" y="587.0" name="top"/>
  <outline>
    <contour>
      <point x="593.0" y="0.0" type="line"/>
      <point x="596.0" y="46.0" type="line"/>
      <point x="545.0" y="62.0" type="line"/>
      <point x="353.0" y="333.0" type="line"/>
      <point x="319.0" y="383.0" type="line"/>
      <point x="218.0" y="526.0" type="line"/>
      <point x="272.0" y="541.0" type="line"/>
      <point x="269.0" y="587.0" type="line"/>
      <point x="25.0" y="587.0" type="line"/>
      <point x="22.0" y="541.0" type="line"/>
      <point x="73.0" y="526.0" type="line"/>
      <point x="239.0" y="289.0" type="line"/>
      <point x="277.0" y="239.0" type="line"/>
      <point x="399.0" y="62.0" type="line"/>
      <point x="337.0" y="46.0" type="line"/>
      <point x="340.0" y="0.0" type="line"/>
    </contour>
    <contour>
      <point x="418.0" y="526.0" type="line"/>
      <point x="319.0" y="383.0" type="line"/>
      <point x="239.0" y="289.0" type="line"/>
      <point x="68.0" y="62.0" type="line"/>
      <point x="17.0" y="46.0" type="line"/>
      <point x="20.0" y="0.0" type="line"/>
      <point x="217.0" y="0.0" type="line"/>
      <point x="220.0" y="46.0" type="line"/>
      <point x="154.0" y="62.0" type="line"/>
      <point x="277.0" y="239.0" type="line"/>
      <point x="353.0" y="333.0" type="line"/>
      <point x="504.0" y="526.0" type="line"/>
      <point x="555.0" y="541.0" type="line"/>
      <point x="552.0" y="587.0" type="line"/>
      <point x="363.0" y="587.0" type="line"/>
      <point x="360.0" y="541.0" type="line"/>
    </contour>
  </outline>
</glyph>
<glyph name="bracketright" format="2">
  <advance width="339.0"/>
  <unicode hex="005D"/>
  <note>
bracketright
</note>
  <outline>
    <contour>
      <point x="35.0" y="-220.0" type="line"/>
      <point x="243.0" y="-220.0" type="line"/>
      <point x="243.0" y="722.0" type="line"/>
      <point x="35.0" y="722.0" type="line"/>
      <point x="35.0" y="667.0" type="line"/>
      <point x="132.0" y="667.0" type="line"/>
      <point x="132.0" y="-165.0" type="line"/>
      <point x="35.0" y="-165.0" type="line"/>
    </contour>
  </outline>
</glyph>
<glyph name="underscore" format="2">
  <advance width="455.0"/>
  <unicode hex="005F"/>
  <note>
underscore
</note>
  <outline>
    <contour>
      <point x="25.0" y="-68.0" type="line"/>
      <point x="430.0" y="-68.0" type="line"/>
      <point x="430.0" y="0.0" type="line"/>
      <point x="25.0" y="0.0" type="line"/>
    </contour>
  </outline>
</glyph>
<glyph name="c" format="2">
  <advance width="448.0"/>
  <unicode hex="0063"/>
  <note>
    c
  </note>
  <anchor x="255.0" y="0.0" name="bottom"/>
  <anchor x="255.0" y="436.0" name="top"/>
  <outline>
    <contour>
      <point x="277.0" y="444.0" type="curve" smooth="yes"/>
      <point x="137.0" y="444.0"/>
      <point x="36.0" y="336.0"/>
      <point x="36.0" y="208.0" type="curve" smooth="yes"/>
      <point x="36.0" y="79.0"/>
      <point x="133.0" y="-8.0"/>
      <point x="255.0" y="-8.0" type="curve" smooth="yes"/>
      <point x="331.0" y="-8.0"/>
      <point x="398.0" y="31.0"/>
      <point x="436.0" y="109.0" type="curve"/>
      <point x="406.0" y="136.0" type="line"/>
      <point x="371.0" y="94.0"/>
      <point x="336.0" y="79.0"/>
      <point x="293.0" y="79.0" type="curve" smooth="yes"/>
      <point x="217.0" y="79.0"/>
      <point x="159.0" y="134.0"/>
      <point x="159.0" y="238.0" type="curve" smooth="yes"/>
      <point x="159.0" y="350.0"/>
      <point x="220.14528375389204" y="393.1913525453749"/>
      <point x="292.07571105116995" y="393.1913525453749" type="curve" smooth="yes"/>
      <point x="300.2570012803217" y="393.1913525453749"/>
      <point x="310.6660049188565" y="388.2895091211233"/>
      <point x="312.2213564727226" y="381.469890769554" type="curve" smooth="yes"/>
      <point x="315.8970465468758" y="365.3534035213436"/>
      <point x="321.2692089629461" y="335.6651375377978"/>
      <point x="324.09666286614083" y="315.02472404447553" type="curve"/>
      <point x="332.8146457343248" y="307.48484696928926"/>
      <point x="350.5804810927325" y="302.34830571181874"/>
      <point x="362.83278133991007" y="302.34830571181874" type="curve" smooth="yes"/>
      <point x="409.48577074262494" y="302.34830571181874"/>
      <point x="424.01888380504624" y="330.4157503246337"/>
      <point x="424.01888380504624" y="359.41575032463425" type="curve" smooth="yes"/>
      <point x="424.01888380504624" y="406.02161549562925"/>
      <point x="365.0" y="444.0"/>
    </contour>
  </outline>
</glyph>
<glyph name="e" format="2">
  <advance width="466.0"/>
  <unicode hex="0065"/>
  <note>
    e
  </note>
  <anchor x="248.0" y="0.0" name="bottom"/>
  <anchor x="381.0" y="0.0" name="ogonek"/>
  <anchor x="248.0" y="436.0" name="top"/>
  <outline>
    <contour>
      <point x="254.0" y="-8.0" type="curve" smooth="yes"/>
      <point x="333.0" y="-8.0"/>
      <point x="400.0" y="31.0"/>
      <point x="438.0" y="108.0" type="curve"/>
      <point x="409.0" y="134.0" type="line"/>
      <point x="373.0" y="93.0"/>
      <point x="338.0" y="78.0"/>
      <point x="293.0" y="78.0" type="curve" smooth="yes"/>
      <point x="208.0" y="78.0"/>
      <point x="152.0" y="141.0"/>
      <point x="152.0" y="240.0" type="curve" smooth="yes"/>
      <point x="152.0" y="258.0" type="line" smooth="yes"/>
      <point x="152.0" y="348.0"/>
      <point x="195.999999999997" y="393.0"/>
      <point x="248.0" y="393.0" type="curve" smooth="yes"/>
      <point x="291.9094751658813" y="393.0"/>
      <point x="321.4752847601926" y="340.63316051396896"/>
      <point x="321.4752847601926" y="285.3023388700328" type="curve" smooth="yes"/>
      <point x="321.4752847601926" y="255.30233887003283" type="line"/>
      <point x="335.4752847601926" y="276.3023388700328" type="line"/>
      <point x="138.0" y="276.0" type="line"/>
      <point x="138.0" y="226.0" type="line"/>
      <point x="434.0" y="226.0" type="line"/>
      <point x="434.0" y="248.0" type="line" smooth="yes"/>
      <point x="434.0" y="364.0"/>
      <point x="372.0" y="443.0"/>
      <point x="256.0" y="444.0" type="curve" smooth="yes"/>
      <point x="142.0" y="445.0"/>
      <point x="37.0" y="350.0"/>
      <point x="37.0" y="211.0" type="curve" smooth="yes"/>
      <point x="37.0" y="83.0"/>
      <point x="129.0" y="-8.0"/>
    </contour>
  </outline>
</glyph>
<glyph name="h" format="2">
  <advance width="574.0"/>
  <unicode hex="0068"/>
  <note>
h
</note>
  <anchor x="290.0" y="0.0" name="bottom"/>
  <anchor x="200.0" y="518.0" name="stroke"/>
  <anchor x="143.0" y="660.0" name="top"/>
  <outline>
    <contour>
      <point x="22.0" y="0.0" type="line"/>
      <point x="262.0" y="0.0" type="line"/>
      <point x="265.0" y="43.0" type="line"/>
      <point x="204.0" y="59.0" type="line"/>
      <point x="200.0" y="69.0"/>
      <point x="198.0" y="111.0"/>
      <point x="198.0" y="164.0" type="curve" smooth="yes"/>
      <point x="198.0" y="312.0" type="line"/>
      <point x="222.0" y="344.0"/>
      <point x="256.0" y="361.0"/>
      <point x="292.0" y="361.0" type="curve" smooth="yes"/>
      <point x="339.0" y="361.0"/>
      <point x="381.0" y="328.0"/>
      <point x="381.0" y="250.0" type="curve" smooth="yes"/>
      <point x="381.0" y="158.0" type="line" smooth="yes"/>
      <point x="381.0" y="115.0"/>
      <point x="379.0" y="74.0"/>
      <point x="376.0" y="59.0" type="curve"/>
      <point x="319.0" y="43.0" type="line"/>
      <point x="322.0" y="0.0" type="line"/>
      <point x="556.0" y="0.0" type="line"/>
      <point x="559.0" y="43.0" type="line"/>
      <point x="497.0" y="59.0" type="line"/>
      <point x="494.0" y="71.0"/>
      <point x="492.0" y="115.0"/>
      <point x="492.0" y="161.0" type="curve" smooth="yes"/>
      <point x="492.0" y="265.0" type="line" smooth="yes"/>
      <point x="492.0" y="381.0"/>
      <point x="425.0" y="444.0"/>
      <point x="344.0" y="444.0" type="curve" smooth="yes"/>
      <point x="289.0" y="444.0"/>
      <point x="241.0" y="419.0"/>
      <point x="199.0" y="369.0" type="curve"/>
      <point x="196.0" y="370.0" type="line"/>
      <point x="199.0" y="532.0"/>
      <point x="200.0" y="598.0"/>
      <point x="204.0" y="680.0" type="curve"/>
      <point x="179.0" y="696.0" type="line"/>
      <point x="6.0" y="650.0" type="line"/>
      <point x="8.0" y="611.0" type="line"/>
      <point x="82.0" y="601.0" type="line"/>
      <point x="85.0" y="563.0"/>
      <point x="87.0" y="452.0"/>
      <point x="87.0" y="361.0" type="curve" smooth="yes"/>
      <point x="87.0" y="236.0" type="line" smooth="yes"/>
      <point x="87.0" y="153.0"/>
      <point x="84.0" y="76.0"/>
      <point x="81.0" y="59.0" type="curve"/>
      <point x="19.0" y="43.0" type="line"/>
    </contour>
  </outline>
</glyph>
<glyph name="l" format="2">
  <advance width="287.0"/>
  <unicode hex="006C"/>
  <note>
l
</note>
  <anchor x="144.0" y="0.0" name="bottom"/>
  <anchor x="144.0" y="343.0" name="center"/>
  <anchor x="311.0" y="343.0" name="dotacc"/>
  <anchor x="144.0" y="660.0" name="top"/>
  <anchor x="241.0" y="688.0" name="topright"/>
  <outline>
    <contour>
      <point x="19.0" y="0.0" type="line"/>
      <point x="268.0" y="0.0" type="line"/>
      <point x="270.0" y="44.0" type="line"/>
      <point x="205.0" y="59.0" type="line"/>
      <point x="202.0" y="71.0"/>
      <point x="200.0" y="145.0"/>
      <point x="200.0" y="233.0" type="curve"/>
      <point x="201.0" y="385.0" type="line" smooth="yes"/>
      <point x="201.0" y="529.0"/>
      <point x="203.0" y="596.0"/>
      <point x="206.0" y="680.0" type="curve"/>
      <point x="181.0" y="696.0" type="line"/>
      <point x="6.0" y="650.0" type="line"/>
      <point x="8.0" y="611.0" type="line"/>
      <point x="82.0" y="601.0" type="line"/>
      <point x="85.0" y="564.0"/>
      <point x="87.0" y="456.0"/>
      <point x="87.0" y="362.0" type="curve" smooth="yes"/>
      <point x="87.0" y="236.0" type="line" smooth="yes"/>
      <point x="87.0" y="153.0"/>
      <point x="84.0" y="76.0"/>
      <point x="81.0" y="59.0" type="curve"/>
      <point x="16.0" y="44.0" type="line"/>
    </contour>
  </outline>
</glyph>
<glyph name="m" format="2">
  <advance width="851.0"/>
  <unicode hex="006D"/>
  <note>
m
</note>
  <anchor x="428.0" y="0.0" name="bottom"/>
  <anchor x="428.0" y="436.0" name="top"/>
  <outline>
    <contour>
      <point x="23.0" y="0.0" type="line"/>
      <point x="259.0" y="0.0" type="line"/>
      <point x="262.0" y="43.0" type="line"/>
      <point x="205.0" y="59.0" type="line"/>
      <point x="201.0" y="69.0"/>
      <point x="199.0" y="114.0"/>
      <point x="199.0" y="164.0" type="curve" smooth="yes"/>
      <point x="199.0" y="312.0" type="line"/>
      <point x="221.0" y="344.0"/>
      <point x="255.0" y="361.0"/>
      <point x="289.0" y="361.0" type="curve" smooth="yes"/>
      <point x="335.0" y="361.0"/>
      <point x="373.0" y="333.0"/>
      <point x="373.0" y="257.0" type="curve"/>
      <point x="374.0" y="158.0" type="line"/>
      <point x="374.0" y="115.0"/>
      <point x="372.0" y="74.0"/>
      <point x="369.0" y="59.0" type="curve"/>
      <point x="316.0" y="43.0" type="line"/>
      <point x="319.0" y="0.0" type="line"/>
      <point x="544.0" y="0.0" type="line"/>
      <point x="547.0" y="43.0" type="line"/>
      <point x="490.0" y="59.0" type="line"/>
      <point x="486.0" y="71.0"/>
      <point x="485.0" y="115.0"/>
      <point x="485.0" y="161.0" type="curve"/>
      <point x="483.0" y="265.0" type="line"/>
      <point x="483.0" y="387.0"/>
      <point x="411.0" y="444.0"/>
      <point x="336.0" y="444.0" type="curve" smooth="yes"/>
      <point x="287.0" y="444.0"/>
      <point x="241.0" y="421.0"/>
      <point x="199.0" y="368.0" type="curve"/>
      <point x="196.0" y="369.0" type="line"/>
      <point x="202.0" y="425.0" type="line"/>
      <point x="178.0" y="442.0" type="line"/>
      <point x="15.0" y="399.0" type="line"/>
      <point x="15.0" y="358.0" type="line"/>
      <point x="79.0" y="344.0" type="line"/>
      <point x="85.0" y="313.0"/>
      <point x="88.0" y="277.0"/>
      <point x="88.0" y="237.0" type="curve"/>
      <point x="87.0" y="161.0" type="line" smooth="yes"/>
      <point x="86.0" y="102.0"/>
      <point x="84.0" y="67.0"/>
      <point x="82.0" y="59.0" type="curve"/>
      <point x="20.0" y="43.0" type="line"/>
    </contour>
    <contour>
      <point x="602.0" y="0.0" type="line"/>
      <point x="833.0" y="0.0" type="line"/>
      <point x="836.0" y="43.0" type="line"/>
      <point x="774.0" y="59.0" type="line"/>
      <point x="770.0" y="71.0"/>
      <point x="768.0" y="115.0"/>
      <point x="768.0" y="161.0" type="curve"/>
      <point x="767.0" y="267.0" type="line"/>
      <point x="767.0" y="374.0"/>
      <point x="704.0" y="444.0"/>
      <point x="610.0" y="444.0" type="curve" smooth="yes"/>
      <point x="548.0" y="444.0"/>
      <point x="495.0" y="411.0"/>
      <point x="449.0" y="350.0" type="curve"/>
      <point x="474.0" y="310.0" type="line"/>
      <point x="498.0" y="344.0"/>
      <point x="531.0" y="361.0"/>
      <point x="569.0" y="361.0" type="curve" smooth="yes"/>
      <point x="615.0" y="361.0"/>
      <point x="657.0" y="331.0"/>
      <point x="657.0" y="251.0" type="curve"/>
      <point x="658.0" y="158.0" type="line"/>
      <point x="658.0" y="116.0"/>
      <point x="656.0" y="74.0"/>
      <point x="653.0" y="59.0" type="curve"/>
      <point x="599.0" y="43.0" type="line"/>
    </contour>
  </outline>
</glyph>
<glyph name="n" format="2">
  <advance width="574.0"/>
  <unicode hex="006E"/>
  <note>
n
</note>
  <anchor x="290.0" y="0.0" name="bottom"/>
  <anchor x="290.0" y="436.0" name="top"/>
  <outline>
    <contour>
      <point x="22.0" y="0.0" type="line"/>
      <point x="263.0" y="0.0" type="line"/>
      <point x="266.0" y="43.0" type="line"/>
      <point x="204.0" y="59.0" type="line"/>
      <point x="200.0" y="69.0"/>
      <point x="198.0" y="113.0"/>
      <point x="198.0" y="164.0" type="curve" smooth="yes"/>
      <point x="198.0" y="312.0" type="line"/>
      <point x="222.0" y="344.0"/>
      <point x="255.0" y="361.0"/>
      <point x="292.0" y="361.0" type="curve" smooth="yes"/>
      <point x="339.0" y="361.0"/>
      <point x="381.0" y="328.0"/>
      <point x="381.0" y="250.0" type="curve" smooth="yes"/>
      <point x="381.0" y="158.0" type="line" smooth="yes"/>
      <point x="381.0" y="115.0"/>
      <point x="379.0" y="74.0"/>
      <point x="376.0" y="59.0" type="curve"/>
      <point x="318.0" y="43.0" type="line"/>
      <point x="321.0" y="0.0" type="line"/>
      <point x="556.0" y="0.0" type="line"/>
      <point x="559.0" y="43.0" type="line"/>
      <point x="497.0" y="59.0" type="line"/>
      <point x="493.0" y="71.0"/>
      <point x="492.0" y="115.0"/>
      <point x="492.0" y="161.0" type="curve" smooth="yes"/>
      <point x="492.0" y="265.0" type="line" smooth="yes"/>
      <point x="492.0" y="381.0"/>
      <point x="425.0" y="444.0"/>
      <point x="344.0" y="444.0" type="curve" smooth="yes"/>
      <point x="289.0" y="444.0"/>
      <point x="241.0" y="419.0"/>
      <point x="198.0" y="368.0" type="curve"/>
      <point x="195.0" y="369.0" type="line"/>
      <point x="201.0" y="425.0" type="line"/>
      <point x="177.0" y="442.0" type="line"/>
      <point x="14.0" y="399.0" type="line"/>
      <point x="14.0" y="358.0" type="line"/>
      <point x="78.0" y="344.0" type="line"/>
      <point x="84.0" y="313.0"/>
      <point x="87.0" y="279.0"/>
      <point x="87.0" y="237.0" type="curve"/>
      <point x="86.0" y="161.0" type="line" smooth="yes"/>
      <point x="85.0" y="101.0"/>
      <point x="83.0" y="67.0"/>
      <point x="81.0" y="59.0" type="curve"/>
      <point x="19.0" y="43.0" type="line"/>
    </contour>
  </outline>
</glyph>
<glyph name="o" format="2">
  <advance width="524.0"/>
  <unicode hex="006F"/>
  <note>
o
</note>
  <anchor x="262.0" y="0.0" name="bottom"/>
  <anchor x="262.0" y="218.0" name="center"/>
  <anchor x="333.0" y="0.0" name="ogonek"/>
  <anchor x="262.0" y="436.0" name="top"/>
  <anchor x="508.0" y="436.0" name="topright"/>
  <outline>
    <contour>
      <point x="265.0" y="-8.0" type="curve" smooth="yes"/>
      <point x="389.0" y="-8.0"/>
      <point x="487.0" y="93.0"/>
      <point x="487.0" y="223.0" type="curve" smooth="yes"/>
      <point x="487.0" y="353.0"/>
      <point x="399.0" y="444.0"/>
      <point x="269.0" y="444.0" type="curve" smooth="yes"/>
      <point x="146.0" y="444.0"/>
      <point x="36.0" y="357.0"/>
      <point x="36.0" y="215.0" type="curve" smooth="yes"/>
      <point x="36.0" y="84.0"/>
      <point x="129.0" y="-8.0"/>
    </contour>
    <contour>
      <point x="275.0" y="50.0" type="curve" smooth="yes"/>
      <point x="209.0" y="50.0"/>
      <point x="160.0" y="130.0"/>
      <point x="160.0" y="239.0" type="curve" smooth="yes"/>
      <point x="160.0" y="330.0"/>
      <point x="197.0" y="389.0"/>
      <point x="255.0" y="389.0" type="curve" smooth="yes"/>
      <point x="321.0" y="389.0"/>
      <point x="365.0" y="310.0"/>
      <point x="365.0" y="195.0" type="curve" smooth="yes"/>
      <point x="365.0" y="106.0"/>
      <point x="331.0" y="50.0"/>
    </contour>
  </outline>
</glyph>
<glyph name="q" format="2">
  <advance width="537.0"/>
  <unicode hex="0071"/>
  <note>
q
</note>
  <anchor x="278.0" y="436.0" name="top"/>
  <outline>
    <contour>
      <point x="285.0" y="-220.0" type="line"/>
      <point x="531.0" y="-220.0" type="line"/>
      <point x="534.0" y="-177.0" type="line"/>
      <point x="472.0" y="-161.0" type="line"/>
      <point x="470.0" y="-148.0"/>
      <point x="468.0" y="-102.0"/>
      <point x="467.0" y="-20.0" type="curve" smooth="yes"/>
      <point x="464.0" y="234.0" type="line" smooth="yes"/>
      <point x="463.0" y="314.0"/>
      <point x="465.0" y="394.0"/>
      <point x="467.0" y="453.0" type="curve"/>
      <point x="431.0" y="453.0" type="line"/>
      <point x="391.0" y="418.0" type="line"/>
      <point x="359.0" y="434.0"/>
      <point x="321.0" y="443.0"/>
      <point x="278.0" y="443.0" type="curve" smooth="yes"/>
      <point x="156.0" y="443.0"/>
      <point x="37.0" y="355.0"/>
      <point x="37.0" y="203.0" type="curve" smooth="yes"/>
      <point x="37.0" y="77.0"/>
      <point x="123.0" y="-9.0"/>
      <point x="233.0" y="-9.0" type="curve" smooth="yes"/>
      <point x="276.0" y="-9.0"/>
      <point x="319.0" y="12.0"/>
      <point x="354.0" y="67.0" type="curve"/>
      <point x="357.0" y="65.0" type="line"/>
      <point x="357.0" y="-58.0" type="line" smooth="yes"/>
      <point x="357.0" y="-115.0"/>
      <point x="355.0" y="-142.0"/>
      <point x="354.0" y="-161.0" type="curve"/>
      <point x="282.0" y="-177.0" type="line"/>
    </contour>
    <contour>
      <point x="272.0" y="77.0" type="curve" smooth="yes"/>
      <point x="209.0" y="77.0"/>
      <point x="158.0" y="134.0"/>
      <point x="158.0" y="235.0" type="curve" smooth="yes"/>
      <point x="158.0" y="335.0"/>
      <point x="210.0" y="388.0"/>
      <point x="274.0" y="388.0" type="curve" smooth="yes"/>
      <point x="302.0" y="388.0"/>
      <point x="334.0" y="377.0"/>
      <point x="355.0" y="350.0" type="curve"/>
      <point x="354.0" y="125.0" type="line"/>
      <point x="329.0" y="90.0"/>
      <point x="299.0" y="77.0"/>
    </contour>
  </outline>
</glyph>
<glyph name="s" format="2">
  <advance width="409.0"/>
  <unicode hex="0073"/>
  <note>
    s
  </note>
  <anchor x="205.0" y="0.0" name="bottom"/>
  <anchor x="208.0" y="436.0" name="top"/>
  <outline>
    <contour>
      <point x="194.0" y="-8.0" type="curve" smooth="yes"/>
      <point x="305.0" y="-8.0"/>
      <point x="382.0" y="46.0"/>
      <point x="382.0" y="126.0" type="curve" smooth="yes"/>
      <point x="382.0" y="185.0"/>
      <point x="349.0" y="221.0"/>
      <point x="261.0" y="258.0" type="curve" smooth="yes"/>
      <point x="183.0" y="291.0"/>
      <point x="158.0" y="308.0"/>
      <point x="158.0" y="342.0" type="curve" smooth="yes"/>
      <point x="158.0" y="373.0"/>
      <point x="186.00000452518807" y="393.980272717793"/>
      <point x="229.0" y="394.0" type="curve" smooth="yes"/>
      <point x="239.75999616473518" y="394.0049364070517"/>
      <point x="262.6745622485512" y="389.80227175765117"/>
      <point x="267.3869854205425" y="386.4643053441573" type="curve"/>
      <point x="277.6365058196236" y="375.492213392037"/>
      <point x="296.30907422863197" y="326.6565552406746"/>
      <point x="304.0" y="311.0" type="curve"/>
      <point x="362.0" y="311.0" type="line"/>
      <point x="351.0" y="423.0" type="line"/>
      <point x="323.0" y="436.0"/>
      <point x="277.0" y="444.0"/>
      <point x="236.0" y="444.0" type="curve" smooth="yes"/>
      <point x="124.0" y="444.0"/>
      <point x="47.0" y="388.0"/>
      <point x="47.0" y="311.0" type="curve" smooth="yes"/>
      <point x="47.0" y="248.0"/>
      <point x="81.0" y="211.0"/>
      <point x="178.0" y="174.0" type="curve" smooth="yes"/>
      <point x="251.0" y="146.0"/>
      <point x="269.0" y="127.0"/>
      <point x="269.0" y="95.0" type="curve" smooth="yes"/>
      <point x="269.0" y="64.0"/>
      <point x="244.0" y="44.0"/>
      <point x="201.0" y="44.0" type="curve" smooth="yes"/>
      <point x="173.0" y="44.0"/>
      <point x="150.45480180001687" y="54.43526251042658"/>
      <point x="135.46929611308428" y="60.090170316816284" type="curve"/>
      <point x="126.75271921477679" y="72.13599903947033"/>
      <point x="108.35650615996406" y="119.49689330532715"/>
      <point x="101.01054990406851" y="138.30885509479845" type="curve"/>
      <point x="42.0" y="139.0" type="line"/>
      <point x="47.0" y="25.0" type="line"/>
      <point x="83.0" y="5.0"/>
      <point x="141.0" y="-8.0"/>
    </contour>
  </outline>
</glyph>
<glyph name="u" format="2">
  <advance width="567.0"/>
  <unicode hex="0075"/>
  <note>
u
</note>
  <anchor x="283.0" y="0.0" name="bottom"/>
  <anchor x="433.0" y="0.0" name="ogonek"/>
  <anchor x="283.0" y="436.0" name="top"/>
  <anchor x="460.0" y="437.0" name="topright"/>
  <outline>
    <contour>
      <point x="487.0" y="84.0" type="line"/>
      <point x="483.0" y="112.0"/>
      <point x="481.0" y="156.0"/>
      <point x="481.0" y="202.0" type="curve" smooth="yes"/>
      <point x="481.0" y="279.0" type="line" smooth="yes"/>
      <point x="481.0" y="340.0"/>
      <point x="482.0" y="382.0"/>
      <point x="484.0" y="426.0" type="curve"/>
      <point x="461.0" y="442.0" type="line"/>
      <point x="291.0" y="399.0" type="line"/>
      <point x="291.0" y="358.0" type="line"/>
      <point x="364.0" y="344.0" type="line"/>
      <point x="368.0" y="313.0"/>
      <point x="370.0" y="277.0"/>
      <point x="370.0" y="235.0" type="curve" smooth="yes"/>
      <point x="370.0" y="128.0" type="line"/>
      <point x="347.0" y="91.0"/>
      <point x="313.0" y="76.0"/>
      <point x="284.0" y="76.0" type="curve" smooth="yes"/>
      <point x="229.0" y="76.0"/>
      <point x="193.0" y="107.0"/>
      <point x="193.0" y="180.0" type="curve"/>
      <point x="194.0" y="273.0" type="line"/>
      <point x="194.0" y="329.0"/>
      <point x="196.0" y="385.0"/>
      <point x="199.0" y="425.0" type="curve"/>
      <point x="175.0" y="442.0" type="line"/>
      <point x="8.0" y="399.0" type="line"/>
      <point x="8.0" y="358.0" type="line"/>
      <point x="76.0" y="344.0" type="line"/>
      <point x="79.0" y="310.0"/>
      <point x="81.0" y="279.0"/>
      <point x="81.0" y="252.0" type="curve" smooth="yes"/>
      <point x="81.0" y="167.0" type="line" smooth="yes"/>
      <point x="81.0" y="49.0"/>
      <point x="147.0" y="-9.0"/>
      <point x="241.0" y="-9.0" type="curve" smooth="yes"/>
      <point x="288.0" y="-9.0"/>
      <point x="331.0" y="11.0"/>
      <point x="370.0" y="70.0" type="curve"/>
      <point x="373.0" y="69.0" type="line"/>
      <point x="372.0" y="2.0" type="line"/>
      <point x="395.0" y="-12.0" type="line"/>
      <point x="552.0" y="29.0" type="line"/>
      <point x="552.0" y="69.0" type="line"/>
    </contour>
  </outline>
</glyph>
<glyph name="v" format="2">
  <advance width="488.0"/>
  <unicode hex="0076"/>
  <note>
v
</note>
  <anchor x="245.0" y="0.0" name="bottom"/>
  <anchor x="245.0" y="436.0" name="top"/>
  <outline>
    <contour>
      <point x="223.0" y="-4.0" type="line"/>
      <point x="262.0" y="-4.0" type="line"/>
      <point x="449.0" y="377.0" type="line"/>
      <point x="496.0" y="393.0" type="line"/>
      <point x="494.0" y="436.0" type="line"/>
      <point x="318.0" y="436.0" type="line"/>
      <point x="315.0" y="393.0" type="line"/>
      <point x="377.0" y="377.0" type="line"/>
      <point x="264.0" y="113.0" type="line"/>
      <point x="293.0" y="113.0" type="line"/>
      <point x="172.0" y="377.0" type="line"/>
      <point x="234.0" y="393.0" type="line"/>
      <point x="231.0" y="436.0" type="line"/>
      <point x="-4.0" y="436.0" type="line"/>
      <point x="-6.0" y="393.0" type="line"/>
      <point x="41.0" y="377.0" type="line"/>
    </contour>
  </outline>
</glyph>
<glyph name="x" format="2">
  <advance width="502.0"/>
  <unicode hex="0078"/>
  <note>
x
</note>
  <anchor x="258.0" y="0.0" name="bottom"/>
  <anchor x="258.0" y="436.0" name="top"/>
  <outline>
    <contour>
      <point x="492.0" y="0.0" type="line"/>
      <point x="495.0" y="43.0" type="line"/>
      <point x="448.0" y="59.0" type="line"/>
      <point x="306.0" y="242.0" type="line"/>
      <point x="275.0" y="283.0" type="line"/>
      <point x="203.0" y="377.0" type="line"/>
      <point x="245.0" y="393.0" type="line"/>
      <point x="242.0" y="436.0" type="line"/>
      <point x="24.0" y="436.0" type="line"/>
      <point x="21.0" y="393.0" type="line"/>
      <point x="68.0" y="377.0" type="line"/>
      <point x="193.0" y="216.0" type="line"/>
      <point x="224.0" y="177.0" type="line"/>
      <point x="314.0" y="59.0" type="line"/>
      <point x="267.0" y="43.0" type="line"/>
      <point x="270.0" y="0.0" type="line"/>
    </contour>
    <contour>
      <point x="349.0" y="377.0" type="line"/>
      <point x="275.0" y="283.0" type="line"/>
      <point x="193.0" y="216.0" type="line"/>
      <point x="64.0" y="59.0" type="line"/>
      <point x="17.0" y="43.0" type="line"/>
      <point x="20.0" y="0.0" type="line"/>
      <point x="183.0" y="0.0" type="line"/>
      <point x="186.0" y="43.0" type="line"/>
      <point x="139.0" y="59.0" type="line"/>
      <point x="224.0" y="177.0" type="line"/>
      <point x="306.0" y="242.0" type="line"/>
      <point x="423.0" y="377.0" type="line"/>
      <point x="470.0" y="393.0" type="line"/>
      <point x="467.0" y="436.0" type="line"/>
      <point x="310.0" y="436.0" type="line"/>
      <point x="307.0" y="393.0" type="line"/>
    </contour>
  </outline>
</glyph>
<glyph name="y" format="2">
  <advance width="488.0"/>
  <unicode hex="0079"/>
  <note>
    y
  </note>
  <anchor x="323.0" y="0.0" name="bottom"/>
  <anchor x="274.0" y="436.0" name="top"/>
  <outline>
    <contour>
      <point x="219.57673541805275" y="-34.606897316478126" type="line"/>
      <point x="295.1616766467066" y="87.06642271013516" type="line"/>
      <point x="172.0" y="377.0" type="line"/>
      <point x="234.0" y="393.0" type="line"/>
      <point x="231.0" y="436.0" type="line"/>
      <point x="-3.0" y="436.0" type="line"/>
      <point x="-6.0" y="393.0" type="line"/>
      <point x="41.0" y="377.0" type="line"/>
    </contour>
    <contour>
      <point x="105.27755599911279" y="-228.0" type="curve" smooth="yes"/>
      <point x="180.3745903255217" y="-228.0"/>
      <point x="219.56086535411958" y="-141.97975756723963"/>
      <point x="248.22692577807356" y="-78.0323920061112" type="curve" smooth="yes"/>
      <point x="264.86995145511446" y="-40.90564241886591" type="line"/>
      <point x="449.0" y="377.0" type="line"/>
      <point x="496.0" y="393.0" type="line"/>
      <point x="493.0" y="436.0" type="line"/>
      <point x="318.0" y="436.0" type="line"/>
      <point x="315.0" y="393.0" type="line"/>
      <point x="377.0" y="377.0" type="line"/>
      <point x="269.35218451984906" y="103.6582390774006" type="line"/>
      <point x="254.60390330450196" y="64.9440008871145" type="line"/>
      <point x="189.00216703644696" y="-65.98361719482887" type="line" smooth="yes"/>
      <point x="165.84613814169492" y="-112.19830418174735"/>
      <point x="146.503082742139" y="-118.99983982651975"/>
      <point x="107.40132389541895" y="-118.99983982651975" type="curve" smooth="yes"/>
      <point x="83.73446985661485" y="-118.99983982651975"/>
      <point x="56.192014119908436" y="-108.75797787141755"/>
      <point x="40.753825681969374" y="-102.81769793745843" type="curve"/>
      <point x="31.823371602310317" y="-108.56882936290799"/>
      <point x="19.894306730017888" y="-129.30660093922415"/>
      <point x="19.894306730017888" y="-156.28021734309164" type="curve" smooth="yes"/>
      <point x="19.894306730017888" y="-204.21213129296962"/>
      <point x="63.27755599911271" y="-228.0"/>
    </contour>
  </outline>
</glyph>
<glyph name="z" format="2">
  <advance width="458.0"/>
  <unicode hex="007A"/>
  <note>
z
</note>
  <anchor x="232.0" y="0.0" name="bottom"/>
  <anchor x="232.0" y="436.0" name="top"/>
  <outline>
    <contour>
      <point x="167.0" y="18.0" type="line"/>
      <point x="413.0" y="396.0" type="line"/>
      <point x="413.0" y="438.0" type="line"/>
      <point x="384.0" y="437.0"/>
      <point x="354.0" y="436.0"/>
      <point x="326.0" y="436.0" type="curve" smooth="yes"/>
      <point x="139.0" y="436.0" type="line" smooth="yes"/>
      <point x="112.0" y="436.0"/>
      <point x="74.0" y="436.0"/>
      <point x="39.0" y="437.0" type="curve"/>
      <point x="41.0" y="296.0" type="line"/>
      <point x="98.0" y="296.0" type="line"/>
      <point x="112.0" y="378.0" type="line"/>
      <point x="132.0" y="380.0"/>
      <point x="155.0" y="382.0"/>
      <point x="186.0" y="382.0" type="curve" smooth="yes"/>
      <point x="300.0" y="382.0" type="line"/>
      <point x="301.0" y="418.0" type="line"/>
      <point x="50.0" y="39.0" type="line"/>
      <point x="50.0" y="-3.0" type="line"/>
      <point x="78.0" y="-1.0"/>
      <point x="108.0" y="0.0"/>
      <point x="136.0" y="0.0" type="curve" smooth="yes"/>
      <point x="321.0" y="0.0" type="line" smooth="yes"/>
      <point x="348.0" y="0.0"/>
      <point x="387.0" y="0.0"/>
      <point x="421.0" y="-2.0" type="curve"/>
      <point x="440.0" y="146.0" type="line"/>
      <point x="381.0" y="146.0" type="line"/>
      <point x="355.0" y="59.0" type="line"/>
      <point x="333.0" y="57.0"/>
      <point x="311.0" y="55.0"/>
      <point x="288.0" y="55.0" type="curve" smooth="yes"/>
      <point x="163.0" y="55.0" type="line"/>
    </contour>
  </outline>
</glyph>
<glyph name="braceleft" format="2">
  <advance width="377.0"/>
  <unicode hex="007B"/>
  <note>
braceleft
</note>
  <outline>
    <contour>
      <point x="232.0" y="-79.0" type="curve" smooth="yes"/>
      <point x="232.0" y="-9.0"/>
      <point x="272.0" y="44.0"/>
      <point x="272.0" y="124.0" type="curve" smooth="yes"/>
      <point x="272.0" y="197.0"/>
      <point x="223.0" y="252.0"/>
      <point x="141.0" y="263.0" type="curve"/>
      <point x="141.0" y="249.0" type="line"/>
      <point x="224.0" y="259.0"/>
      <point x="272.0" y="306.0"/>
      <point x="272.0" y="378.0" type="curve" smooth="yes"/>
      <point x="272.0" y="458.0"/>
      <point x="232.0" y="511.0"/>
      <point x="232.0" y="581.0" type="curve" smooth="yes"/>
      <point x="232.0" y="642.0"/>
      <point x="271.0" y="672.0"/>
      <point x="335.0" y="682.0" type="curve"/>
      <point x="322.0" y="730.0" type="line"/>
      <point x="187.0" y="713.0"/>
      <point x="108.0" y="662.0"/>
      <point x="108.0" y="565.0" type="curve" smooth="yes"/>
      <point x="108.0" y="491.0"/>
      <point x="160.0" y="416.0"/>
      <point x="160.0" y="355.0" type="curve" smooth="yes"/>
      <point x="160.0" y="307.0"/>
      <point x="136.0" y="283.0"/>
      <point x="57.0" y="280.0" type="curve"/>
      <point x="57.0" y="222.0" type="line"/>
      <point x="136.0" y="219.0"/>
      <point x="160.0" y="195.0"/>
      <point x="160.0" y="147.0" type="curve" smooth="yes"/>
      <point x="160.0" y="86.0"/>
      <point x="108.0" y="11.0"/>
      <point x="108.0" y="-63.0" type="curve" smooth="yes"/>
      <point x="108.0" y="-160.0"/>
      <point x="187.0" y="-211.0"/>
      <point x="322.0" y="-228.0" type="curve"/>
      <point x="335.0" y="-180.0" type="line"/>
      <point x="271.0" y="-170.0"/>
      <point x="232.0" y="-140.0"/>
    </contour>
  </outline>
</glyph>
<glyph name="bar" format="2">
  <advance width="271.0"/>
  <unicode hex="007C"/>
  <note>
bar
</note>
  <outline>
    <contour>
      <point x="96.0" y="-220.0" type="line"/>
      <point x="175.0" y="-220.0" type="line"/>
      <point x="175.0" y="722.0" type="line"/>
      <point x="96.0" y="722.0" type="line"/>
    </contour>
  </outline>
</glyph>
<glyph name="asciitilde" format="2">
  <advance width="540.0"/>
  <unicode hex="007E"/>
  <outline>
    <contour>
      <point x="449.0" y="306.0" type="line"/>
      <point x="432.0" y="276.0"/>
      <point x="411.0" y="259.0"/>
      <point x="382.0" y="259.0" type="curve" smooth="yes"/>
      <point x="333.0" y="259.0"/>
      <point x="246.0" y="326.0"/>
      <point x="171.0" y="326.0" type="curve" smooth="yes"/>
      <point x="118.0" y="326.0"/>
      <point x="74.0" y="289.0"/>
      <point x="53.0" y="228.0" type="curve"/>
      <point x="91.0" y="203.0" type="line"/>
      <point x="108.0" y="234.0"/>
      <point x="131.0" y="251.0"/>
      <point x="158.0" y="251.0" type="curve" smooth="yes"/>
      <point x="207.0" y="251.0"/>
      <point x="294.0" y="184.0"/>
      <point x="369.0" y="184.0" type="curve" smooth="yes"/>
      <point x="422.0" y="184.0"/>
      <point x="466.0" y="221.0"/>
      <point x="487.0" y="281.0" type="curve"/>
    </contour>
  </outline>
</glyph>
<glyph name="exclamdown" format="2">
  <advance width="285.0"/>
  <unicode hex="00A1"/>
  <note>
exclamdown
</note>
  <outline>
    <contour>
      <point x="117.0" y="224.0" type="line"/>
      <point x="67.0" y="-106.0" type="line" smooth="yes"/>
      <point x="56.0" y="-179.0"/>
      <point x="87.0" y="-228.0"/>
      <point x="142.0" y="-228.0" type="curve" smooth="yes"/>
      <point x="197.0" y="-228.0"/>
      <point x="229.0" y="-179.0"/>
      <point x="218.0" y="-106.0" type="curve" smooth="yes"/>
      <point x="168.0" y="224.0" type="line"/>
    </contour>
    <contour>
      <point x="142.0" y="445.0" type="curve" smooth="yes"/>
      <point x="96.0" y="445.0"/>
      <point x="60.0" y="409.0"/>
      <point x="60.0" y="363.0" type="curve" smooth="yes"/>
      <point x="60.0" y="317.0"/>
      <point x="96.0" y="282.0"/>
      <point x="142.0" y="282.0" type="curve" smooth="yes"/>
      <point x="190.0" y="282.0"/>
      <point x="226.0" y="317.0"/>
      <point x="226.0" y="363.0" type="curve" smooth="yes"/>
      <point x="226.0" y="410.0"/>
      <point x="190.0" y="445.0"/>
    </contour>
  </outline>
</glyph>
<glyph name="currency" format="2">
  <advance width="540.0"/>
  <unicode hex="00A4"/>
  <note>
currency
</note>
  <outline>
    <contour>
      <point x="270.0" y="104.0" type="curve" smooth="yes"/>
      <point x="391.0" y="104.0"/>
      <point x="489.0" y="205.0"/>
      <point x="489.0" y="329.0" type="curve" smooth="yes"/>
      <point x="489.0" y="454.0"/>
      <point x="391.0" y="555.0"/>
      <point x="270.0" y="555.0" type="curve" smooth="yes"/>
      <point x="148.0" y="555.0"/>
      <point x="50.0" y="454.0"/>
      <point x="50.0" y="329.0" type="curve" smooth="yes"/>
      <point x="50.0" y="205.0"/>
      <point x="148.0" y="104.0"/>
    </contour>
    <contour>
      <point x="62.0" y="71.0" type="line"/>
      <point x="174.0" y="185.0" type="line"/>
      <point x="130.0" y="232.0" type="line"/>
      <point x="17.0" y="117.0" type="line"/>
    </contour>
    <contour>
      <point x="476.0" y="72.0" type="line"/>
      <point x="521.0" y="117.0" type="line"/>
      <point x="406.0" y="235.0" type="line"/>
      <point x="362.0" y="188.0" type="line"/>
    </contour>
    <contour>
      <point x="269.0" y="156.0" type="curve" smooth="yes"/>
      <point x="210.0" y="156.0"/>
      <point x="163.0" y="233.0"/>
      <point x="163.0" y="329.0" type="curve" smooth="yes"/>
      <point x="163.0" y="425.0"/>
      <point x="210.0" y="502.0"/>
      <point x="269.0" y="502.0" type="curve" smooth="yes"/>
      <point x="328.0" y="501.0"/>
      <point x="374.0" y="425.0"/>
      <point x="374.0" y="329.0" type="curve" smooth="yes"/>
      <point x="374.0" y="233.0"/>
      <point x="328.0" y="156.0"/>
    </contour>
    <contour>
      <point x="118.0" y="440.0" type="line"/>
      <point x="165.0" y="484.0" type="line"/>
      <point x="62.0" y="588.0" type="line"/>
      <point x="17.0" y="542.0" type="line"/>
    </contour>
    <contour>
      <point x="418.0" y="435.0" type="line"/>
      <point x="522.0" y="541.0" type="line"/>
      <point x="474.0" y="590.0" type="line"/>
      <point x="370.0" y="482.0" type="line"/>
    </contour>
  </outline>
</glyph>
<glyph name="section" format="2">
  <advance width="476.0"/>
  <unicode hex="00A7"/>
  <note>
section
</note>
  <outline>
    <contour>
      <point x="241.0" y="232.0" type="line"/>
      <point x="328.0" y="234.0"/>
      <point x="429.0" y="283.0"/>
      <point x="429.0" y="371.0" type="curve" smooth="yes"/>
      <point x="429.0" y="517.0"/>
      <point x="185.0" y="507.0"/>
      <point x="185.0" y="595.0" type="curve" smooth="yes"/>
      <point x="185.0" y="628.0"/>
      <point x="213.0" y="647.0"/>
      <point x="260.0" y="647.0" type="curve" smooth="yes"/>
      <point x="275.0" y="647.0"/>
      <point x="293.0" y="645.0"/>
      <point x="307.0" y="638.0" type="curve"/>
      <point x="327.0" y="575.0" type="line"/>
      <point x="387.0" y="575.0" type="line"/>
      <point x="377.0" y="679.0" type="line"/>
      <point x="349.0" y="690.0"/>
      <point x="301.0" y="697.0"/>
      <point x="258.0" y="697.0" type="curve" smooth="yes"/>
      <point x="155.0" y="697.0"/>
      <point x="74.0" y="643.0"/>
      <point x="74.0" y="569.0" type="curve" smooth="yes"/>
      <point x="74.0" y="427.0"/>
      <point x="325.0" y="446.0"/>
      <point x="325.0" y="335.0" type="curve" smooth="yes"/>
      <point x="325.0" y="292.0"/>
      <point x="286.0" y="261.0"/>
      <point x="226.0" y="251.0" type="curve"/>
    </contour>
    <contour>
      <point x="210.0" y="-8.0" type="curve" smooth="yes"/>
      <point x="319.0" y="-8.0"/>
      <point x="398.0" y="48.0"/>
      <point x="398.0" y="122.0" type="curve" smooth="yes"/>
      <point x="398.0" y="261.0"/>
      <point x="152.0" y="244.0"/>
      <point x="152.0" y="353.0" type="curve" smooth="yes"/>
      <point x="152.0" y="397.0"/>
      <point x="191.0" y="427.0"/>
      <point x="253.0" y="438.0" type="curve"/>
      <point x="239.0" y="457.0" type="line"/>
      <point x="149.0" y="455.0"/>
      <point x="47.0" y="404.0"/>
      <point x="47.0" y="315.0" type="curve" smooth="yes"/>
      <point x="47.0" y="173.0"/>
      <point x="286.0" y="181.0"/>
      <point x="286.0" y="97.0" type="curve" smooth="yes"/>
      <point x="286.0" y="65.0"/>
      <point x="260.0" y="44.0"/>
      <point x="210.0" y="44.0" type="curve" smooth="yes"/>
      <point x="193.0" y="44.0"/>
      <point x="171.0" y="48.0"/>
      <point x="157.0" y="56.0" type="curve"/>
      <point x="139.0" y="119.0" type="line"/>
      <point x="79.0" y="119.0" type="line"/>
      <point x="87.0" y="14.0" type="line"/>
      <point x="114.0" y="0.0"/>
      <point x="161.0" y="-8.0"/>
    </contour>
  </outline>
</glyph>
<glyph name="plusminus" format="2">
  <advance width="540.0"/>
  <unicode hex="00B1"/>
  <outline>
    <contour>
      <point x="487.0" y="334.0" type="line"/>
      <point x="53.0" y="334.0" type="line"/>
      <point x="53.0" y="259.0" type="line"/>
      <point x="487.0" y="259.0" type="line"/>
    </contour>
    <contour>
      <point x="231.0" y="472.0" type="line"/>
      <point x="231.0" y="121.0" type="line"/>
      <point x="308.0" y="121.0" type="line"/>
      <point x="308.0" y="472.0" type="line"/>
    </contour>
    <contour>
      <point x="487.0" y="79.0" type="line"/>
      <point x="53.0" y="79.0" type="line"/>
      <point x="53.0" y="0.0" type="line"/>
      <point x="487.0" y="0.0" type="line"/>
    </contour>
  </outline>
</glyph>
<glyph name="micro" format="2">
  <advance width="572.0"/>
  <unicode hex="00B5"/>
  <outline>
    <contour>
      <point x="492.0" y="84.0" type="line"/>
      <point x="489.0" y="106.0"/>
      <point x="486.0" y="150.0"/>
      <point x="486.0" y="202.0" type="curve" smooth="yes"/>
      <point x="486.0" y="279.0" type="line" smooth="yes"/>
      <point x="486.0" y="343.0"/>
      <point x="487.0" y="388.0"/>
      <point x="489.0" y="426.0" type="curve"/>
      <point x="466.0" y="442.0" type="line"/>
      <point x="301.0" y="399.0" type="line"/>
      <point x="301.0" y="358.0" type="line"/>
      <point x="369.0" y="344.0" type="line"/>
      <point x="371.0" y="321.0"/>
      <point x="375.0" y="285.0"/>
      <point x="375.0" y="235.0" type="curve" smooth="yes"/>
      <point x="375.0" y="128.0" type="line"/>
      <point x="352.0" y="91.0"/>
      <point x="318.0" y="76.0"/>
      <point x="289.0" y="76.0" type="curve" smooth="yes"/>
      <point x="234.0" y="76.0"/>
      <point x="198.0" y="118.0"/>
      <point x="198.0" y="191.0" type="curve"/>
      <point x="199.0" y="273.0" type="line"/>
      <point x="199.0" y="333.0"/>
      <point x="201.0" y="388.0"/>
      <point x="204.0" y="425.0" type="curve"/>
      <point x="180.0" y="442.0" type="line"/>
      <point x="13.0" y="399.0" type="line"/>
      <point x="13.0" y="358.0" type="line"/>
      <point x="81.0" y="344.0" type="line"/>
      <point x="83.0" y="321.0"/>
      <point x="86.0" y="285.0"/>
      <point x="86.0" y="245.0" type="curve" smooth="yes"/>
      <point x="86.0" y="88.0"/>
      <point x="71.0" y="-30.0"/>
      <point x="71.0" y="-139.0" type="curve" smooth="yes"/>
      <point x="71.0" y="-200.0"/>
      <point x="104.0" y="-229.0"/>
      <point x="144.0" y="-229.0" type="curve" smooth="yes"/>
      <point x="185.0" y="-229.0"/>
      <point x="213.0" y="-196.0"/>
      <point x="213.0" y="-143.0" type="curve" smooth="yes"/>
      <point x="213.0" y="-90.0"/>
      <point x="195.0" y="-30.0"/>
      <point x="174.0" y="58.0" type="curve"/>
      <point x="166.0" y="51.0" type="line"/>
      <point x="187.0" y="12.0"/>
      <point x="224.0" y="-9.0"/>
      <point x="259.0" y="-9.0" type="curve" smooth="yes"/>
      <point x="299.0" y="-9.0"/>
      <point x="336.0" y="11.0"/>
      <point x="375.0" y="70.0" type="curve"/>
      <point x="378.0" y="69.0" type="line"/>
      <point x="377.0" y="2.0" type="line"/>
      <point x="400.0" y="-12.0" type="line"/>
      <point x="557.0" y="29.0" type="line"/>
      <point x="557.0" y="69.0" type="line"/>
    </contour>
  </outline>
</glyph>
<glyph name="paragraph" format="2">
  <advance width="564.0"/>
  <unicode hex="00B6"/>
  <note>
paragraph
</note>
  <outline>
    <contour>
      <point x="523.0" y="0.0" type="line"/>
      <point x="526.0" y="46.0" type="line"/>
      <point x="465.0" y="61.0" type="line"/>
      <point x="461.0" y="72.0"/>
      <point x="458.0" y="139.0"/>
      <point x="458.0" y="213.0" type="curve" smooth="yes"/>
      <point x="458.0" y="373.0" type="line" smooth="yes"/>
      <point x="458.0" y="450.0"/>
      <point x="461.0" y="516.0"/>
      <point x="465.0" y="525.0" type="curve"/>
      <point x="527.0" y="541.0" type="line"/>
      <point x="524.0" y="587.0" type="line"/>
      <point x="269.0" y="587.0" type="line" smooth="yes"/>
      <point x="126.0" y="587.0"/>
      <point x="26.0" y="516.0"/>
      <point x="26.0" y="404.0" type="curve" smooth="yes"/>
      <point x="26.0" y="290.0"/>
      <point x="118.0" y="223.0"/>
      <point x="277.0" y="223.0" type="curve" smooth="yes"/>
      <point x="323.0" y="223.0"/>
      <point x="368.0" y="229.0"/>
      <point x="422.0" y="244.0" type="curve"/>
      <point x="422.0" y="309.0" type="line"/>
      <point x="370.0" y="293.0"/>
      <point x="329.0" y="286.0"/>
      <point x="281.0" y="286.0" type="curve" smooth="yes"/>
      <point x="199.0" y="286.0"/>
      <point x="151.0" y="335.0"/>
      <point x="151.0" y="419.0" type="curve" smooth="yes"/>
      <point x="151.0" y="493.0"/>
      <point x="200.0" y="535.0"/>
      <point x="272.0" y="535.0" type="curve" smooth="yes"/>
      <point x="295.0" y="535.0" type="line"/>
      <point x="296.0" y="518.0"/>
      <point x="295.0" y="465.0"/>
      <point x="295.0" y="367.0" type="curve" smooth="yes"/>
      <point x="295.0" y="177.0" type="line" smooth="yes"/>
      <point x="295.0" y="119.0"/>
      <point x="292.0" y="69.0"/>
      <point x="288.0" y="62.0" type="curve"/>
      <point x="207.0" y="48.0" type="line"/>
      <point x="210.0" y="0.0" type="line"/>
    </contour>
    <contour>
      <point x="356.0" y="535.0" type="line"/>
      <point x="405.0" y="535.0" type="line"/>
      <point x="401.0" y="52.0" type="line"/>
      <point x="356.0" y="52.0" type="line"/>
    </contour>
  </outline>
</glyph>
<glyph name="periodcentered" format="2">
  <advance width="281.0"/>
  <unicode hex="00B7"/>
  <note>
periodcentered
</note>
  <outline>
    <contour>
      <point x="140.0" y="141.0" type="curve" smooth="yes"/>
      <point x="187.0" y="141.0"/>
      <point x="224.0" y="176.0"/>
      <point x="224.0" y="221.0" type="curve" smooth="yes"/>
      <point x="224.0" y="268.0"/>
      <point x="187.0" y="304.0"/>
      <point x="140.0" y="304.0" type="curve" smooth="yes"/>
      <point x="94.0" y="304.0"/>
      <point x="57.0" y="268.0"/>
      <point x="57.0" y="221.0" type="curve" smooth="yes"/>
      <point x="57.0" y="176.0"/>
      <point x="94.0" y="141.0"/>
    </contour>
  </outline>
</glyph>
<glyph name="multiply" format="2">
  <advance width="540.0"/>
  <unicode hex="00D7"/>
  <outline>
    <contour>
      <point x="425.0" y="463.0" type="line"/>
      <point x="62.0" y="102.0" type="line"/>
      <point x="116.0" y="47.0" type="line"/>
      <point x="478.0" y="407.0" type="line"/>
    </contour>
    <contour>
      <point x="116.0" y="463.0" type="line"/>
      <point x="62.0" y="407.0" type="line"/>
      <point x="425.0" y="47.0" type="line"/>
      <point x="478.0" y="102.0" type="line"/>
    </contour>
  </outline>
</glyph>
<glyph name="germandbls" format="2">
  <advance width="607.0"/>
  <unicode hex="00DF"/>
  <note>
germandbls
</note>
  <outline>
    <contour>
      <point x="422.0" y="-8.0" type="curve" smooth="yes"/>
      <point x="525.0" y="-8.0"/>
      <point x="592.0" y="47.0"/>
      <point x="592.0" y="132.0" type="curve" smooth="yes"/>
      <point x="592.0" y="276.0"/>
      <point x="384.0" y="265.0"/>
      <point x="384.0" y="367.0" type="curve" smooth="yes"/>
      <point x="384.0" y="432.0"/>
      <point x="476.0" y="486.0"/>
      <point x="476.0" y="566.0" type="curve" smooth="yes"/>
      <point x="476.0" y="647.0"/>
      <point x="411.0" y="698.0"/>
      <point x="307.0" y="698.0" type="curve" smooth="yes"/>
      <point x="171.0" y="698.0"/>
      <point x="85.0" y="606.0"/>
      <point x="85.0" y="475.0" type="curve" smooth="yes"/>
      <point x="85.0" y="376.0" type="line"/>
      <point x="87.0" y="198.0" type="line" smooth="yes"/>
      <point x="88.0" y="137.0"/>
      <point x="85.0" y="78.0"/>
      <point x="84.0" y="59.0" type="curve"/>
      <point x="32.0" y="43.0" type="line"/>
      <point x="35.0" y="0.0" type="line"/>
      <point x="254.0" y="0.0" type="line"/>
      <point x="257.0" y="43.0" type="line"/>
      <point x="205.0" y="59.0" type="line"/>
      <point x="202.0" y="76.0"/>
      <point x="200.0" y="124.0"/>
      <point x="199.0" y="221.0" type="curve" smooth="yes"/>
      <point x="197.0" y="519.0" type="line"/>
      <point x="197.0" y="598.0"/>
      <point x="234.0" y="646.0"/>
      <point x="294.0" y="646.0" type="curve" smooth="yes"/>
      <point x="347.0" y="646.0"/>
      <point x="377.0" y="611.0"/>
      <point x="377.0" y="550.0" type="curve" smooth="yes"/>
      <point x="377.0" y="446.0"/>
      <point x="284.0" y="406.0"/>
      <point x="284.0" y="326.0" type="curve" smooth="yes"/>
      <point x="284.0" y="186.0"/>
      <point x="488.0" y="202.0"/>
      <point x="488.0" y="99.0" type="curve" smooth="yes"/>
      <point x="488.0" y="65.0"/>
      <point x="464.0" y="44.0"/>
      <point x="429.0" y="44.0" type="curve" smooth="yes"/>
      <point x="407.0" y="44.0"/>
      <point x="381.0" y="50.0"/>
      <point x="357.0" y="65.0" type="curve"/>
      <point x="341.0" y="137.0" type="line"/>
      <point x="285.0" y="137.0" type="line"/>
      <point x="289.0" y="25.0" type="line"/>
      <point x="326.0" y="5.0"/>
      <point x="376.0" y="-8.0"/>
    </contour>
    <contour>
      <point x="12.0" y="376.0" type="line"/>
      <point x="137.0" y="376.0" type="line"/>
      <point x="137.0" y="435.0" type="line"/>
      <point x="85.0" y="437.0" type="line"/>
      <point x="12.0" y="418.0" type="line"/>
    </contour>
  </outline>
</glyph>
<glyph name="Aogonek" format="2">
  <advance width="596.0"/>
  <unicode hex="0104"/>
  <note>
Aogonek
</note>
  <anchor x="269.0" y="0.0" name="bottom"/>
  <anchor x="288.0" y="587.0" name="top"/>
  <outline>
    <contour>
      <point x="503.0" y="-223.0" type="curve" smooth="yes"/>
      <point x="548.0" y="-223.0"/>
      <point x="587.0" y="-205.0"/>
      <point x="614.0" y="-173.0" type="curve"/>
      <point x="589.0" y="-138.0" type="line"/>
      <point x="565.0" y="-160.0"/>
      <point x="543.0" y="-173.0"/>
      <point x="520.0" y="-173.0" type="curve" smooth="yes"/>
      <point x="487.0" y="-173.0"/>
      <point x="466.0" y="-150.0"/>
      <point x="466.0" y="-116.0" type="curve" smooth="yes"/>
      <point x="466.0" y="-66.0"/>
      <point x="520.0" y="-19.0"/>
      <point x="600.0" y="0.0" type="curve"/>
      <point x="603.0" y="46.0" type="line"/>
      <point x="552.0" y="61.0" type="line"/>
      <point x="326.0" y="605.0" type="line"/>
      <point x="251.0" y="562.0" type="line"/>
      <point x="47.0" y="61.0" type="line"/>
      <point x="-4.0" y="46.0" type="line"/>
      <point x="-1.0" y="0.0" type="line"/>
      <point x="183.0" y="0.0" type="line"/>
      <point x="186.0" y="46.0" type="line"/>
      <point x="123.0" y="61.0" type="line"/>
      <point x="172.0" y="202.0" type="line"/>
      <point x="182.0" y="232.0" type="line"/>
      <point x="272.0" y="478.0" type="line"/>
      <point x="245.0" y="477.0" type="line"/>
      <point x="348.0" y="230.0" type="line"/>
      <point x="359.0" y="197.0" type="line"/>
      <point x="415.0" y="61.0" type="line"/>
      <point x="352.0" y="46.0" type="line"/>
      <point x="355.0" y="0.0" type="line"/>
      <point x="540.0" y="0.0" type="line"/>
      <point x="530.0" y="13.0" type="line"/>
      <point x="443.0" y="-12.0"/>
      <point x="379.0" y="-67.0"/>
      <point x="379.0" y="-125.0" type="curve" smooth="yes"/>
      <point x="379.0" y="-181.0"/>
      <point x="430.0" y="-223.0"/>
    </contour>
    <contour>
      <point x="151.0" y="175.0" type="line"/>
      <point x="184.0" y="176.0"/>
      <point x="220.0" y="178.0"/>
      <point x="268.0" y="178.0" type="curve" smooth="yes"/>
      <point x="316.0" y="178.0"/>
      <point x="353.0" y="176.0"/>
      <point x="385.0" y="176.0" type="curve"/>
      <point x="385.0" y="238.0" type="line"/>
      <point x="361.0" y="237.0"/>
      <point x="324.0" y="234.0"/>
      <point x="268.0" y="234.0" type="curve" smooth="yes"/>
      <point x="211.0" y="234.0"/>
      <point x="176.0" y="237.0"/>
      <point x="151.0" y="238.0" type="curve"/>
    </contour>
  </outline>
</glyph>
<glyph name="eogonek" format="2">
  <advance width="466.0"/>
  <unicode hex="0119"/>
  <note>
    eogonek
  </note>
  <anchor x="248.0" y="436.0" name="top"/>
  <outline>
    <contour>
      <point x="414.0" y="-138.0" type="line"/>
      <point x="390.0" y="-160.0"/>
      <point x="368.0" y="-173.0"/>
      <point x="345.0" y="-173.0" type="curve" smooth="yes"/>
      <point x="313.0" y="-173.0"/>
      <point x="290.0" y="-151.0"/>
      <point x="290.0" y="-115.0" type="curve" smooth="yes"/>
      <point x="290.0" y="-71.0"/>
      <point x="321.0" y="-32.0"/>
      <point x="391.0" y="42.0" type="curve" smooth="yes"/>
      <point x="410.0" y="62.0"/>
      <point x="426.0" y="84.0"/>
      <point x="438.0" y="108.0" type="curve"/>
      <point x="409.0" y="134.0" type="line"/>
      <point x="373.0" y="93.0"/>
      <point x="338.0" y="78.0"/>
      <point x="293.0" y="78.0" type="curve" smooth="yes"/>
      <point x="208.0" y="78.0"/>
      <point x="152.0" y="141.0"/>
      <point x="152.0" y="240.0" type="curve" smooth="yes"/>
      <point x="152.0" y="258.0" type="line" smooth="yes"/>
      <point x="152.0" y="348.0"/>
      <point x="196.0" y="393.0"/>
      <point x="248.0" y="393.0" type="curve" smooth="yes"/>
      <point x="301.0" y="393.0"/>
      <point x="321.5831354544089" y="324.14397120085846"/>
      <point x="321.5831354544089" y="284.92235518372763" type="curve" smooth="yes"/>
      <point x="321.5831354544089" y="254.92235518372763" type="line"/>
      <point x="335.5831354544089" y="275.92235518372763" type="line"/>
      <point x="138.0" y="276.0" type="line"/>
      <point x="138.0" y="226.0" type="line"/>
      <point x="434.0" y="226.0" type="line"/>
      <point x="434.0" y="248.0" type="line" smooth="yes"/>
      <point x="434.0" y="364.0"/>
      <point x="372.0" y="443.0"/>
      <point x="256.0" y="444.0" type="curve" smooth="yes"/>
      <point x="142.0" y="445.0"/>
      <point x="37.0" y="350.0"/>
      <point x="37.0" y="211.0" type="curve" smooth="yes"/>
      <point x="37.0" y="83.0"/>
      <point x="129.0" y="-8.0"/>
      <point x="254.0" y="-8.0" type="curve" smooth="yes"/>
      <point x="274.0" y="-8.0"/>
      <point x="295.0" y="-7.0"/>
      <point x="326.0" y="5.0" type="curve"/>
      <point x="328.0" y="17.0" type="line"/>
      <point x="241.0" y="-31.0"/>
      <point x="204.0" y="-78.0"/>
      <point x="204.0" y="-125.0" type="curve" smooth="yes"/>
      <point x="204.0" y="-182.0"/>
      <point x="256.0" y="-223.0"/>
      <point x="327.0" y="-223.0" type="curve" smooth="yes"/>
      <point x="374.0" y="-223.0"/>
      <point x="411.0" y="-204.0"/>
      <point x="439.0" y="-173.0" type="curve"/>
    </contour>
  </outline>
</glyph>
<glyph name="iogonek" format="2">
  <advance width="287.0"/>
  <unicode hex="012F"/>
  <note>
iogonek
</note>
  <outline>
    <contour>
      <point x="149.0" y="-223.0" type="curve" smooth="yes"/>
      <point x="195.0" y="-223.0"/>
      <point x="233.0" y="-204.0"/>
      <point x="260.0" y="-173.0" type="curve"/>
      <point x="235.0" y="-138.0" type="line"/>
      <point x="211.0" y="-160.0"/>
      <point x="189.0" y="-173.0"/>
      <point x="166.0" y="-173.0" type="curve" smooth="yes"/>
      <point x="134.0" y="-173.0"/>
      <point x="112.0" y="-151.0"/>
      <point x="112.0" y="-116.0" type="curve" smooth="yes"/>
      <point x="112.0" y="-68.0"/>
      <point x="158.0" y="-3.0"/>
      <point x="270.0" y="0.0" type="curve"/>
      <point x="273.0" y="44.0" type="line"/>
      <point x="206.0" y="59.0" type="line"/>
      <point x="202.0" y="69.0"/>
      <point x="200.0" y="114.0"/>
      <point x="200.0" y="164.0" type="curve" smooth="yes"/>
      <point x="200.0" y="290.0" type="line" smooth="yes"/>
      <point x="200.0" y="344.0"/>
      <point x="202.0" y="383.0"/>
      <point x="206.0" y="425.0" type="curve"/>
      <point x="183.0" y="442.0" type="line"/>
      <point x="12.0" y="399.0" type="line"/>
      <point x="12.0" y="358.0" type="line"/>
      <point x="79.0" y="344.0" type="line"/>
      <point x="85.0" y="313.0"/>
      <point x="89.0" y="278.0"/>
      <point x="88.0" y="237.0" type="curve" smooth="yes"/>
      <point x="87.0" y="161.0" type="line" smooth="yes"/>
      <point x="86.0" y="102.0"/>
      <point x="84.0" y="67.0"/>
      <point x="82.0" y="59.0" type="curve"/>
      <point x="15.0" y="44.0" type="line"/>
      <point x="18.0" y="0.0" type="line"/>
      <point x="191.0" y="0.0" type="line"/>
      <point x="185.0" y="11.0" type="line"/>
      <point x="83.0" y="-11.0"/>
      <point x="25.0" y="-68.0"/>
      <point x="25.0" y="-125.0" type="curve" smooth="yes"/>
      <point x="25.0" y="-182.0"/>
      <point x="78.0" y="-223.0"/>
    </contour>
    <component base="dotaccentcomb.i" xOffset="-156.0"/>
  </outline>
</glyph>
<glyph name="kgreenlandic" format="2">
  <advance width="533.0"/>
  <unicode hex="0138"/>
  <note>
kgreenlandic
</note>
  <outline>
    <contour>
      <point x="22.0" y="0.0" type="line"/>
      <point x="263.0" y="0.0" type="line"/>
      <point x="266.0" y="43.0" type="line"/>
      <point x="204.0" y="59.0" type="line"/>
      <point x="200.0" y="69.0"/>
      <point x="198.0" y="113.0"/>
      <point x="198.0" y="164.0" type="curve" smooth="yes"/>
      <point x="198.0" y="290.0" type="line" smooth="yes"/>
      <point x="198.0" y="344.0"/>
      <point x="200.0" y="383.0"/>
      <point x="204.0" y="425.0" type="curve"/>
      <point x="181.0" y="442.0" type="line"/>
      <point x="14.0" y="400.0" type="line"/>
      <point x="14.0" y="359.0" type="line"/>
      <point x="78.0" y="344.0" type="line"/>
      <point x="84.0" y="313.0"/>
      <point x="87.0" y="278.0"/>
      <point x="87.0" y="238.0" type="curve"/>
      <point x="86.0" y="161.0" type="line" smooth="yes"/>
      <point x="85.0" y="102.0"/>
      <point x="83.0" y="67.0"/>
      <point x="81.0" y="59.0" type="curve"/>
      <point x="19.0" y="43.0" type="line"/>
    </contour>
    <contour>
      <point x="538.0" y="0.0" type="line"/>
      <point x="541.0" y="43.0" type="line"/>
      <point x="500.0" y="52.0" type="line"/>
      <point x="489.0" y="62.0"/>
      <point x="466.0" y="85.0"/>
      <point x="443.0" y="110.0" type="curve" smooth="yes"/>
      <point x="292.0" y="276.0" type="line"/>
      <point x="281.0" y="234.0" type="line"/>
      <point x="452.0" y="380.0" type="line"/>
      <point x="518.0" y="392.0" type="line"/>
      <point x="515.0" y="436.0" type="line"/>
      <point x="301.0" y="436.0" type="line"/>
      <point x="298.0" y="392.0" type="line"/>
      <point x="364.0" y="381.0" type="line"/>
      <point x="218.0" y="242.0" type="line"/>
      <point x="185.0" y="234.0" type="line"/>
      <point x="184.0" y="201.0" type="line"/>
      <point x="210.0" y="201.0" type="line"/>
      <point x="335.0" y="64.0" type="line" smooth="yes"/>
      <point x="351.0" y="46.0"/>
      <point x="366.0" y="29.0"/>
      <point x="388.0" y="0.0" type="curve"/>
    </contour>
  </outline>
</glyph>
<glyph name="Eng" format="2">
  <advance width="687.0"/>
  <unicode hex="014A"/>
  <note>
    Eng
  </note>
  <outline>
    <contour>
      <point x="405.0" y="-203.0" type="curve" smooth="yes"/>
      <point x="521.0" y="-203.0"/>
      <point x="580.0" y="-118.0"/>
      <point x="580.0" y="36.0" type="curve" smooth="yes"/>
      <point x="580.0" y="348.0" type="line" smooth="yes"/>
      <point x="580.0" y="454.0"/>
      <point x="584.0" y="518.0"/>
      <point x="586.0" y="526.0" type="curve"/>
      <point x="648.0" y="541.0" type="line"/>
      <point x="645.0" y="587.0" type="line"/>
      <point x="441.0" y="587.0" type="line"/>
      <point x="438.0" y="541.0" type="line"/>
      <point x="507.0" y="526.0" type="line"/>
      <point x="510.0" y="518.0"/>
      <point x="513.0" y="453.0"/>
      <point x="513.0" y="348.0" type="curve" smooth="yes"/>
      <point x="513.0" y="172.0" type="line"/>
      <point x="546.0" y="172.0" type="line"/>
      <point x="193.0" y="587.0" type="line"/>
      <point x="42.0" y="587.0" type="line"/>
      <point x="39.0" y="541.0" type="line"/>
      <point x="102.0" y="526.0" type="line"/>
      <point x="104.0" y="518.0"/>
      <point x="108.0" y="465.0"/>
      <point x="108.0" y="394.0" type="curve" smooth="yes"/>
      <point x="108.0" y="248.0" type="line" smooth="yes"/>
      <point x="108.0" y="151.0"/>
      <point x="105.0" y="72.0"/>
      <point x="102.0" y="61.0" type="curve"/>
      <point x="39.0" y="46.0" type="line"/>
      <point x="42.0" y="0.0" type="line"/>
      <point x="250.0" y="0.0" type="line"/>
      <point x="253.0" y="46.0" type="line"/>
      <point x="184.0" y="61.0" type="line"/>
      <point x="180.0" y="73.0"/>
      <point x="177.0" y="147.0"/>
      <point x="177.0" y="248.0" type="curve" smooth="yes"/>
      <point x="177.0" y="470.0" type="line"/>
      <point x="135.0" y="470.0" type="line"/>
      <point x="525.0" y="-5.0" type="line"/>
      <point x="513.0" y="83.0" type="line"/>
      <point x="513.0" y="-2.0" type="line" smooth="yes"/>
      <point x="513.0" y="-100.0"/>
      <point x="464.3498542025634" y="-149.0"/>
      <point x="407.0" y="-149.0" type="curve" smooth="yes"/>
      <point x="389.7986472394248" y="-149.0"/>
      <point x="366.54414231514306" y="-98.31211541699963"/>
      <point x="361.75645012484983" y="-74.37365446553304" type="curve"/>
      <point x="349.1826025210855" y="-67.33164320963874"/>
      <point x="330.97842890153584" y="-64.1143140577617"/>
      <point x="320.03513246657985" y="-64.1143140577617" type="curve" smooth="yes"/>
      <point x="291.0351324665792" y="-64.1143140577617"/>
      <point x="270.5167160984031" y="-90.67343005803423"/>
      <point x="270.5167160984031" y="-119.67343005803423" type="curve" smooth="yes"/>
      <point x="270.5167160984031" y="-165.67343005803423"/>
      <point x="339.0" y="-203.0"/>
    </contour>
  </outline>
</glyph>
<glyph name="eng" format="2">
  <advance width="559.0"/>
  <unicode hex="014B"/>
  <note>
    eng
  </note>
  <outline>
    <contour>
      <point x="488.0" y="265.0" type="line"/>
      <point x="488.0" y="381.0"/>
      <point x="421.0" y="444.0"/>
      <point x="342.0" y="444.0" type="curve" smooth="yes"/>
      <point x="290.0" y="444.0"/>
      <point x="241.0" y="420.0"/>
      <point x="198.0" y="368.0" type="curve"/>
      <point x="195.0" y="369.0" type="line"/>
      <point x="201.0" y="425.0" type="line"/>
      <point x="177.0" y="442.0" type="line"/>
      <point x="14.0" y="399.0" type="line"/>
      <point x="14.0" y="358.0" type="line"/>
      <point x="78.0" y="344.0" type="line"/>
      <point x="84.0" y="314.0"/>
      <point x="88.0" y="278.0"/>
      <point x="87.0" y="237.0" type="curve" smooth="yes"/>
      <point x="86.0" y="161.0" type="line" smooth="yes"/>
      <point x="85.0" y="102.0"/>
      <point x="83.0" y="67.0"/>
      <point x="81.0" y="59.0" type="curve"/>
      <point x="19.0" y="43.0" type="line"/>
      <point x="22.0" y="0.0" type="line"/>
      <point x="268.0" y="0.0" type="line"/>
      <point x="271.0" y="43.0" type="line"/>
      <point x="204.0" y="59.0" type="line"/>
      <point x="200.0" y="69.0"/>
      <point x="198.0" y="114.0"/>
      <point x="198.0" y="164.0" type="curve" smooth="yes"/>
      <point x="198.0" y="312.0" type="line"/>
      <point x="223.0" y="344.0"/>
      <point x="256.0" y="361.0"/>
      <point x="290.0" y="361.0" type="curve" smooth="yes"/>
      <point x="335.0" y="361.0"/>
      <point x="378.0" y="328.0"/>
      <point x="377.0" y="250.0" type="curve" smooth="yes"/>
      <point x="375.0" y="-43.0" type="line"/>
      <point x="375.0" y="-117.0"/>
      <point x="359.40106193766144" y="-179.0331018909992"/>
      <point x="329.3843998980594" y="-179.0331018909992" type="curve" smooth="yes"/>
      <point x="302.9518209769435" y="-179.0331018909992"/>
      <point x="269.7480430589874" y="-128.42580094718846"/>
      <point x="261.7435608823373" y="-104.11589211439923" type="curve"/>
      <point x="255.3753255256097" y="-100.1009159571513"/>
      <point x="239.7341995195775" y="-96.04263068349042"/>
      <point x="232.56218348929906" y="-96.04263068349042" type="curve" smooth="yes"/>
      <point x="207.56218348929974" y="-96.04263068349042"/>
      <point x="178.73411608744664" y="-113.60268580524371"/>
      <point x="178.73411608744664" y="-145.02768990616664" type="curve" smooth="yes"/>
      <point x="178.73411608744664" y="-203.72722586826785"/>
      <point x="245.0" y="-228.0"/>
      <point x="308.0" y="-228.0" type="curve" smooth="yes"/>
      <point x="413.0" y="-228.0"/>
      <point x="486.0" y="-135.0"/>
      <point x="486.0" y="-5.0" type="curve"/>
    </contour>
  </outline>
</glyph>
<glyph name="OE" format="2">
  <advance width="923.0"/>
  <unicode hex="0152"/>
  <note>
OE
</note>
  <anchor x="526.0" y="0.0" name="bottom"/>
  <anchor x="526.0" y="587.0" name="top"/>
  <outline>
    <contour>
      <point x="381.0" y="-9.0" type="curve" smooth="yes"/>
      <point x="430.0" y="-9.0"/>
      <point x="474.0" y="0.0"/>
      <point x="523.0" y="0.0" type="curve" smooth="yes"/>
      <point x="734.0" y="0.0" type="line" smooth="yes"/>
      <point x="770.0" y="0.0"/>
      <point x="813.0" y="-1.0"/>
      <point x="858.0" y="-6.0" type="curve"/>
      <point x="901.0" y="151.0" type="line"/>
      <point x="848.0" y="161.0" type="line"/>
      <point x="794.0" y="63.0" type="line"/>
      <point x="779.0" y="60.0"/>
      <point x="770.0" y="59.0"/>
      <point x="723.0" y="59.0" type="curve" smooth="yes"/>
      <point x="666.0" y="59.0" type="line" smooth="yes"/>
      <point x="635.0" y="59.0"/>
      <point x="613.0" y="60.0"/>
      <point x="587.0" y="64.0" type="curve"/>
      <point x="586.0" y="80.0"/>
      <point x="585.0" y="122.0"/>
      <point x="585.0" y="179.0" type="curve" smooth="yes"/>
      <point x="585.0" y="409.0" type="line" smooth="yes"/>
      <point x="585.0" y="469.0"/>
      <point x="586.0" y="516.0"/>
      <point x="587.0" y="528.0" type="curve"/>
      <point x="603.0" y="531.0"/>
      <point x="624.0" y="532.0"/>
      <point x="650.0" y="532.0" type="curve" smooth="yes"/>
      <point x="728.0" y="532.0" type="line" smooth="yes"/>
      <point x="744.0" y="532.0"/>
      <point x="756.0" y="531.0"/>
      <point x="771.0" y="528.0" type="curve"/>
      <point x="808.0" y="442.0" type="line"/>
      <point x="861.0" y="449.0" type="line"/>
      <point x="836.0" y="592.0" type="line"/>
      <point x="789.0" y="588.0"/>
      <point x="739.0" y="587.0"/>
      <point x="703.0" y="587.0" type="curve" smooth="yes"/>
      <point x="519.0" y="587.0" type="line" smooth="yes"/>
      <point x="472.0" y="587.0"/>
      <point x="431.0" y="593.0"/>
      <point x="391.0" y="593.0" type="curve" smooth="yes"/>
      <point x="160.0" y="593.0"/>
      <point x="46.0" y="450.0"/>
      <point x="46.0" y="287.0" type="curve" smooth="yes"/>
      <point x="46.0" y="105.0"/>
      <point x="176.0" y="-9.0"/>
    </contour>
    <contour>
      <point x="395.0" y="58.0" type="curve" smooth="yes"/>
      <point x="267.0" y="58.0"/>
      <point x="187.0" y="151.0"/>
      <point x="187.0" y="304.0" type="curve" smooth="yes"/>
      <point x="187.0" y="442.0"/>
      <point x="262.0" y="532.0"/>
      <point x="385.0" y="532.0" type="curve" smooth="yes"/>
      <point x="413.0" y="532.0"/>
      <point x="441.0" y="528.0"/>
      <point x="462.0" y="521.0" type="curve"/>
      <point x="465.0" y="501.0"/>
      <point x="468.0" y="438.0"/>
      <point x="468.0" y="380.0" type="curve" smooth="yes"/>
      <point x="468.0" y="217.0" type="line" smooth="yes"/>
      <point x="468.0" y="153.0"/>
      <point x="466.0" y="91.0"/>
      <point x="464.0" y="67.0" type="curve"/>
      <point x="442.0" y="62.0"/>
      <point x="415.0" y="58.0"/>
    </contour>
    <contour>
      <point x="735.0" y="202.0" type="line"/>
      <point x="786.0" y="202.0" type="line"/>
      <point x="786.0" y="401.0" type="line"/>
      <point x="735.0" y="401.0" type="line"/>
      <point x="725.0" y="333.0" type="line"/>
      <point x="716.0" y="333.0"/>
      <point x="697.0" y="332.0"/>
      <point x="672.0" y="332.0" type="curve" smooth="yes"/>
      <point x="623.0" y="332.0" type="line" smooth="yes"/>
      <point x="600.0" y="332.0"/>
      <point x="580.0" y="333.0"/>
      <point x="565.0" y="334.0" type="curve"/>
      <point x="565.0" y="269.0" type="line"/>
      <point x="580.0" y="270.0"/>
      <point x="600.0" y="272.0"/>
      <point x="623.0" y="272.0" type="curve" smooth="yes"/>
      <point x="672.0" y="272.0" type="line" smooth="yes"/>
      <point x="697.0" y="272.0"/>
      <point x="716.0" y="270.0"/>
      <point x="725.0" y="269.0" type="curve"/>
    </contour>
  </outline>
</glyph>
<glyph name="florin" format="2">
  <advance width="401.0"/>
  <unicode hex="0192"/>
  <outline>
    <contour>
      <point x="67.11530321558553" y="-229.0" type="curve" smooth="yes"/>
      <point x="157.59390747825364" y="-229.0"/>
      <point x="249.0" y="-142.0"/>
      <point x="249.0" y="64.0" type="curve" smooth="yes"/>
      <point x="249.0" y="376.0" type="line"/>
      <point x="247.0" y="435.0" type="line"/>
      <point x="247.0" y="514.0" type="line" smooth="yes"/>
      <point x="247.0" y="598.0"/>
      <point x="264.877792573307" y="651.8808462907309"/>
      <point x="291.2974822005576" y="651.8808462907309" type="curve" smooth="yes"/>
      <point x="317.45070842343716" y="651.8808462907309"/>
      <point x="336.72774543838295" y="619.5406589010927"/>
      <point x="348.2778123632538" y="582.580444741506" type="curve"/>
      <point x="362.9078971347569" y="576.4204090482417"/>
      <point x="371.3779462129953" y="575.6504045865836"/>
      <point x="385.2380265228403" y="575.6504045865836" type="curve" smooth="yes"/>
      <point x="410.23802652284456" y="575.6504045865836"/>
      <point x="436.058320992272" y="590.2804893580843"/>
      <point x="436.058320992272" y="621.0806678244087" type="curve" smooth="yes"/>
      <point x="436.058320992272" y="664.9709221389178"/>
      <point x="380.0" y="698.0"/>
      <point x="318.0" y="698.0" type="curve" smooth="yes"/>
      <point x="217.0" y="698.0"/>
      <point x="136.0" y="611.0"/>
      <point x="136.0" y="475.0" type="curve" smooth="yes"/>
      <point x="136.0" y="-6.0" type="line"/>
      <point x="136.0" y="-129.0"/>
      <point x="112.50244620355716" y="-181.41798211561627"/>
      <point x="82.01026952189818" y="-181.41798211561627" type="curve" smooth="yes"/>
      <point x="69.99819992003245" y="-181.41798211561627"/>
      <point x="52.44209819422872" y="-138.91373583209156"/>
      <point x="45.97406071630121" y="-119.50962339830858" type="curve"/>
      <point x="39.00100488003318" y="-114.52966707367455"/>
      <point x="27.118219977902754" y="-108.42155915043259"/>
      <point x="12.709867972673237" y="-108.42155915043259" type="curve" smooth="yes"/>
      <point x="-12.290132027326763" y="-108.42155915043259"/>
      <point x="-36.66897814453375" y="-129.04535865148114"/>
      <point x="-36.66897814453375" y="-159.5375353331401" type="curve" smooth="yes"/>
      <point x="-36.66897814453375" y="-199.4545666254936"/>
      <point x="3.24805314781986" y="-229.0"/>
    </contour>
    <contour>
      <point x="63.0" y="376.0" type="line"/>
      <point x="355.0" y="376.0" type="line"/>
      <point x="355.0" y="435.0" type="line"/>
      <point x="202.0" y="435.0" type="line"/>
      <point x="136.0" y="437.0" type="line"/>
      <point x="111.0" y="428.0"/>
      <point x="88.0" y="422.0"/>
      <point x="63.0" y="418.0" type="curve"/>
    </contour>
  </outline>
</glyph>
<glyph name="Ohorn" format="2">
  <advance width="698.0"/>
  <unicode hex="01A0"/>
  <note>
Ohorn
</note>
  <anchor x="349.0" y="0.0" name="bottom"/>
  <anchor x="349.0" y="294.0" name="center"/>
  <anchor x="349.0" y="587.0" name="top"/>
  <anchor x="15.0" y="587.0" name="topleft"/>
  <outline>
    <contour>
      <point x="686.0" y="653.0" type="curve" smooth="yes"/>
      <point x="686.0" y="712.0"/>
      <point x="638.0" y="724.0"/>
      <point x="580.0" y="715.0" type="curve"/>
      <point x="578.0" y="658.0" type="line" smooth="yes"/>
      <point x="576.0" y="608.0"/>
      <point x="549.0" y="580.0"/>
      <point x="504.0" y="580.0" type="curve" smooth="yes"/>
      <point x="470.0" y="580.0"/>
      <point x="422.0" y="596.0"/>
      <point x="362.0" y="596.0" type="curve" smooth="yes"/>
      <point x="176.0" y="596.0"/>
      <point x="45.0" y="465.0"/>
      <point x="45.0" y="288.0" type="curve" smooth="yes"/>
      <point x="45.0" y="114.0"/>
      <point x="174.0" y="-9.0"/>
      <point x="355.0" y="-9.0" type="curve" smooth="yes"/>
      <point x="496.0" y="-9.0"/>
      <point x="653.0" y="103.0"/>
      <point x="653.0" y="300.0" type="curve" smooth="yes"/>
      <point x="653.0" y="411.0"/>
      <point x="604.0" y="499.0"/>
      <point x="524.0" y="550.0" type="curve"/>
      <point x="470.0" y="532.0" type="line"/>
      <point x="604.0" y="504.0"/>
      <point x="686.0" y="583.0"/>
    </contour>
    <contour>
      <point x="363.0" y="59.0" type="curve" smooth="yes"/>
      <point x="259.0" y="59.0"/>
      <point x="185.0" y="164.0"/>
      <point x="185.0" y="313.0" type="curve" smooth="yes"/>
      <point x="185.0" y="451.0"/>
      <point x="245.0" y="536.0"/>
      <point x="344.0" y="536.0" type="curve" smooth="yes"/>
      <point x="447.0" y="536.0"/>
      <point x="515.0" y="432.0"/>
      <point x="515.0" y="275.0" type="curve" smooth="yes"/>
      <point x="515.0" y="137.0"/>
      <point x="460.0" y="59.0"/>
    </contour>
  </outline>
</glyph>
<glyph name="Uhorn" format="2">
  <advance width="685.0"/>
  <unicode hex="01AF"/>
  <note>
Uhorn
</note>
  <anchor x="365.0" y="0.0" name="bottom"/>
  <anchor x="366.0" y="587.0" name="top"/>
  <outline>
    <contour>
      <point x="353.0" y="-9.0" type="curve" smooth="yes"/>
      <point x="496.0" y="-9.0"/>
      <point x="583.0" y="86.0"/>
      <point x="583.0" y="243.0" type="curve" smooth="yes"/>
      <point x="583.0" y="355.0" type="line" smooth="yes"/>
      <point x="583.0" y="453.0"/>
      <point x="585.0" y="511.0"/>
      <point x="590.0" y="548.0" type="curve"/>
      <point x="576.0" y="533.0" type="line"/>
      <point x="662.0" y="540.0"/>
      <point x="719.0" y="589.0"/>
      <point x="719.0" y="655.0" type="curve" smooth="yes"/>
      <point x="719.0" y="706.0"/>
      <point x="683.0" y="727.0"/>
      <point x="613.0" y="717.0" type="curve"/>
      <point x="611.0" y="660.0" type="line" smooth="yes"/>
      <point x="609.0" y="611.0"/>
      <point x="587.0" y="587.0"/>
      <point x="539.0" y="587.0" type="curve" smooth="yes"/>
      <point x="435.0" y="587.0" type="line"/>
      <point x="432.0" y="541.0" type="line"/>
      <point x="502.0" y="525.0" type="line"/>
      <point x="505.0" y="518.0"/>
      <point x="508.0" y="444.0"/>
      <point x="508.0" y="355.0" type="curve" smooth="yes"/>
      <point x="508.0" y="256.0" type="line" smooth="yes"/>
      <point x="508.0" y="135.0"/>
      <point x="462.0" y="75.0"/>
      <point x="369.0" y="75.0" type="curve" smooth="yes"/>
      <point x="272.0" y="75.0"/>
      <point x="222.0" y="136.0"/>
      <point x="222.0" y="253.0" type="curve"/>
      <point x="222.0" y="373.0" type="line"/>
      <point x="221.0" y="453.0"/>
      <point x="224.0" y="506.0"/>
      <point x="226.0" y="525.0" type="curve"/>
      <point x="288.0" y="541.0" type="line"/>
      <point x="285.0" y="587.0" type="line"/>
      <point x="38.0" y="587.0" type="line"/>
      <point x="35.0" y="541.0" type="line"/>
      <point x="97.0" y="525.0" type="line"/>
      <point x="100.0" y="518.0"/>
      <point x="103.0" y="459.0"/>
      <point x="103.0" y="373.0" type="curve" smooth="yes"/>
      <point x="103.0" y="237.0" type="line" smooth="yes"/>
      <point x="103.0" y="81.0"/>
      <point x="193.0" y="-9.0"/>
    </contour>
  </outline>
</glyph>
<glyph name="jdotless" format="2">
  <advance width="273.0"/>
  <unicode hex="0237"/>
  <note>
uni0237
</note>
  <anchor x="143.0" y="436.0" name="top"/>
  <outline>
    <contour>
      <point x="13.0" y="-230.0" type="line"/>
      <point x="125.0" y="-185.0"/>
      <point x="201.0" y="-90.0"/>
      <point x="201.0" y="10.0" type="curve"/>
      <point x="200.0" y="283.0" type="line"/>
      <point x="200.0" y="350.0"/>
      <point x="202.0" y="388.0"/>
      <point x="206.0" y="425.0" type="curve"/>
      <point x="183.0" y="442.0" type="line"/>
      <point x="11.0" y="399.0" type="line"/>
      <point x="11.0" y="358.0" type="line"/>
      <point x="78.0" y="344.0" type="line"/>
      <point x="83.0" y="321.0"/>
      <point x="87.0" y="290.0"/>
      <point x="87.0" y="240.0" type="curve"/>
      <point x="86.0" y="-14.0" type="line"/>
      <point x="86.0" y="-99.0"/>
      <point x="58.0" y="-149.0"/>
      <point x="-9.0" y="-189.0" type="curve"/>
    </contour>
  </outline>
</glyph>
<glyph name="schwa" format="2">
  <advance width="470.0"/>
  <unicode hex="0259"/>
  <outline>
    <contour>
      <point x="222.0" y="444.0" type="curve" smooth="yes"/>
      <point x="133.0" y="444.0"/>
      <point x="65.0" y="402.0"/>
      <point x="28.0" y="327.0" type="curve"/>
      <point x="57.0" y="301.0" type="line"/>
      <point x="91.0" y="342.0"/>
      <point x="130.0" y="359.0"/>
      <point x="183.0" y="359.0" type="curve" smooth="yes"/>
      <point x="266.0" y="359.0"/>
      <point x="319.0" y="295.0"/>
      <point x="319.0" y="196.0" type="curve" smooth="yes"/>
      <point x="319.0" y="178.0" type="line" smooth="yes"/>
      <point x="319.0" y="94.0"/>
      <point x="286.0" y="43.0"/>
      <point x="231.0" y="43.0" type="curve" smooth="yes"/>
      <point x="173.0" y="43.0"/>
      <point x="138.0" y="83.0"/>
      <point x="138.0" y="152.0" type="curve" smooth="yes"/>
      <point x="138.0" y="182.0" type="line"/>
      <point x="123.0" y="160.0" type="line"/>
      <point x="333.0" y="160.0" type="line"/>
      <point x="333.0" y="211.0" type="line"/>
      <point x="32.0" y="211.0" type="line"/>
      <point x="32.0" y="189.0" type="line" smooth="yes"/>
      <point x="32.0" y="68.0"/>
      <point x="107.0" y="-8.0"/>
      <point x="226.0" y="-8.0" type="curve" smooth="yes"/>
      <point x="342.0" y="-8.0"/>
      <point x="433.0" y="85.0"/>
      <point x="433.0" y="226.0" type="curve" smooth="yes"/>
      <point x="433.0" y="352.0"/>
      <point x="345.0" y="444.0"/>
    </contour>
  </outline>
</glyph>
<glyph name="ringhalfright" format="2">
  <advance width="600.0"/>
  <unicode hex="02BE"/>
  <anchor x="300.0" y="436.0" name="_top"/>
  <anchor x="300.0" y="673.0" name="top"/>
  <outline>
    <contour>
      <point x="300.0" y="488.0" type="line"/>
      <point x="360.0" y="488.0"/>
      <point x="407.0" y="532.0"/>
      <point x="407.0" y="590.0" type="curve" smooth="yes"/>
      <point x="407.0" y="647.0"/>
      <point x="360.0" y="691.0"/>
      <point x="300.0" y="691.0" type="curve"/>
      <point x="300.0" y="652.0" type="line"/>
      <point x="333.0" y="652.0"/>
      <point x="358.0" y="626.0"/>
      <point x="358.0" y="591.0" type="curve" smooth="yes"/>
      <point x="358.0" y="555.0"/>
      <point x="333.0" y="529.0"/>
      <point x="300.0" y="529.0" type="curve"/>
    </contour>
  </outline>
</glyph>
<glyph name="verticallinemod" format="2">
  <advance width="600.0"/>
  <unicode hex="02C8"/>
  <anchor x="300.0" y="436.0" name="_top"/>
  <anchor x="300.0" y="687.0" name="top"/>
  <outline>
    <contour>
      <point x="268.0" y="536.0" type="line"/>
      <point x="333.0" y="536.0" type="line"/>
      <point x="333.0" y="656.0" type="line"/>
      <point x="268.0" y="656.0" type="line"/>
    </contour>
  </outline>
</glyph>
<glyph name="fourthtonechinese" format="2">
  <advance width="600.0"/>
  <unicode hex="02CB"/>
  <note>
gravecomb
</note>
  <anchor x="300.0" y="436.0" name="_top"/>
  <anchor x="300.0" y="687.0" name="top"/>
  <outline>
    <contour>
      <point x="273.0" y="483.0" type="line"/>
      <point x="327.0" y="500.0" type="line"/>
      <point x="228.0" y="677.0" type="line"/>
      <point x="122.0" y="654.0" type="line"/>
    </contour>
  </outline>
</glyph>
<glyph name="circumflexcomb" format="2">
  <unicode hex="0302"/>
  <note>
uni0302
</note>
  <anchor x="300.0" y="436.0" name="_top"/>
  <anchor x="300.0" y="687.0" name="top"/>
  <outline>
    <contour>
      <point x="452.0" y="500.0" type="line"/>
      <point x="347.0" y="665.0" type="line"/>
      <point x="253.0" y="665.0" type="line"/>
      <point x="148.0" y="500.0" type="line"/>
      <point x="199.0" y="483.0" type="line"/>
      <point x="332.0" y="626.0" type="line"/>
      <point x="268.0" y="626.0" type="line"/>
      <point x="401.0" y="483.0" type="line"/>
    </contour>
  </outline>
</glyph>
<glyph name="macroncomb" format="2">
  <unicode hex="0304"/>
  <note>
uni0304
</note>
  <anchor x="300.0" y="436.0" name="_top"/>
  <anchor x="300.0" y="687.0" name="top"/>
  <outline>
    <contour>
      <point x="149.0" y="611.0" type="line"/>
      <point x="149.0" y="546.0" type="line"/>
      <point x="451.0" y="546.0" type="line"/>
      <point x="451.0" y="611.0" type="line"/>
    </contour>
  </outline>
</glyph>
<glyph name="hungarumlautcomb" format="2">
  <unicode hex="030B"/>
  <note>
uni030B
</note>
  <anchor x="300.0" y="436.0" name="_top"/>
  <anchor x="300.0" y="687.0" name="top"/>
  <outline>
    <contour>
      <point x="386.0" y="483.0" type="line"/>
      <point x="487.0" y="660.0" type="line"/>
      <point x="404.0" y="677.0" type="line"/>
      <point x="341.0" y="499.0" type="line"/>
    </contour>
    <contour>
      <point x="259.0" y="483.0" type="line"/>
      <point x="360.0" y="660.0" type="line"/>
      <point x="277.0" y="677.0" type="line"/>
      <point x="214.0" y="499.0" type="line"/>
    </contour>
  </outline>
</glyph>
<glyph name="caroncomb" format="2">
  <unicode hex="030C"/>
  <note>
uni030C
</note>
  <anchor x="300.0" y="436.0" name="_top"/>
  <anchor x="300.0" y="687.0" name="top"/>
  <outline>
    <contour>
      <point x="452.0" y="659.0" type="line"/>
      <point x="401.0" y="677.0" type="line"/>
      <point x="269.0" y="533.0" type="line"/>
      <point x="333.0" y="533.0" type="line"/>
      <point x="199.0" y="677.0" type="line"/>
      <point x="148.0" y="659.0" type="line"/>
      <point x="253.0" y="495.0" type="line"/>
      <point x="347.0" y="495.0" type="line"/>
    </contour>
  </outline>
</glyph>
<glyph name="commaturnedabovecomb" format="2">
  <unicode hex="0312"/>
  <note>
uni02BB
</note>
  <anchor x="300.0" y="436.0" name="_top"/>
  <anchor x="300.0" y="665.0" name="top"/>
  <outline>
    <contour>
      <point x="373.0" y="705.0" type="line"/>
      <point x="282.0" y="682.0"/>
      <point x="234.0" y="622.0"/>
      <point x="234.0" y="565.0" type="curve" smooth="yes"/>
      <point x="234.0" y="516.0"/>
      <point x="268.0" y="492.0"/>
      <point x="306.0" y="492.0" type="curve" smooth="yes"/>
      <point x="341.0" y="492.0"/>
      <point x="366.0" y="513.0"/>
      <point x="366.0" y="540.0" type="curve" smooth="yes"/>
      <point x="366.0" y="593.0"/>
      <point x="309.0" y="585.0"/>
      <point x="309.0" y="617.0" type="curve" smooth="yes"/>
      <point x="309.0" y="638.0"/>
      <point x="330.0" y="660.0"/>
      <point x="386.0" y="674.0" type="curve"/>
    </contour>
  </outline>
</glyph>
<glyph name="ogonekcomb" format="2">
  <unicode hex="0328"/>
  <note>
uni0328
</note>
  <anchor x="311.0" y="0.0" name="_ogonek"/>
  <outline>
    <contour>
      <point x="258.0" y="-223.0" type="curve" smooth="yes"/>
      <point x="303.0" y="-223.0"/>
      <point x="341.0" y="-204.0"/>
      <point x="369.0" y="-173.0" type="curve"/>
      <point x="343.0" y="-139.0" type="line"/>
      <point x="321.0" y="-161.0"/>
      <point x="299.0" y="-174.0"/>
      <point x="275.0" y="-174.0" type="curve" smooth="yes"/>
      <point x="243.0" y="-174.0"/>
      <point x="220.0" y="-152.0"/>
      <point x="220.0" y="-117.0" type="curve" smooth="yes"/>
      <point x="220.0" y="-77.0"/>
      <point x="251.0" y="-37.0"/>
      <point x="311.0" y="0.0" type="curve"/>
      <point x="301.0" y="22.0" type="line"/>
      <point x="197.0" y="-14.0"/>
      <point x="135.0" y="-68.0"/>
      <point x="135.0" y="-126.0" type="curve" smooth="yes"/>
      <point x="135.0" y="-182.0"/>
      <point x="187.0" y="-223.0"/>
    </contour>
  </outline>
</glyph>
<glyph name="strokeshortcomb" format="2">
  <unicode hex="0335"/>
  <anchor x="258.0" y="406.0" name="_stroke"/>
  <outline>
    <contour>
      <point x="74.0" y="382.0" type="line"/>
      <point x="442.0" y="382.0" type="line"/>
      <point x="442.0" y="430.0" type="line"/>
      <point x="74.0" y="430.0" type="line"/>
    </contour>
  </outline>
</glyph>
<glyph name="Delta" format="2">
  <advance width="657.0"/>
  <unicode hex="0394"/>
  <note>
uni2206
</note>
  <outline>
    <contour>
      <point x="5.0" y="0.0" type="line"/>
      <point x="652.0" y="0.0" type="line"/>
      <point x="331.0" y="607.0" type="line"/>
    </contour>
    <contour>
      <point x="96.0" y="33.0" type="line"/>
      <point x="326.0" y="463.0" type="line"/>
      <point x="284.0" y="448.0" type="line"/>
      <point x="503.0" y="33.0" type="line"/>
      <point x="528.0" y="84.0" type="line"/>
      <point x="85.0" y="84.0" type="line"/>
    </contour>
  </outline>
</glyph>
<glyph name="pi" format="2">
  <advance width="612.8628211239666"/>
  <unicode hex="03C0"/>
  <outline>
    <contour>
      <point x="447.3864087290956" y="-11.0" type="curve" smooth="yes"/>
      <point x="512.3423394140641" y="-11.0"/>
      <point x="556.0668878451283" y="41.384062202605946"/>
      <point x="569.5318001258299" y="78.41257097453581" type="curve"/>
      <point x="531.3499248072353" y="111.59331032553837" type="line"/>
      <point x="524.3450657362866" y="102.41802361898067"/>
      <point x="511.6362966892275" y="90.75524379390208"/>
      <point x="495.66593974002853" y="90.75524379390208" type="curve" smooth="yes"/>
      <point x="474.5559787700288" y="90.75524379390208"/>
      <point x="452.78344792975156" y="105.69990058641676"/>
      <point x="453.19644876506527" y="176.94789365273346" type="curve" smooth="yes"/>
      <point x="454.5528084141881" y="410.9374999999998" type="line"/>
      <point x="342.1749221880275" y="406.65651737391363" type="line"/>
      <point x="341.0115449950449" y="134.2464296546152" type="line" smooth="yes"/>
      <point x="340.95873658914013" y="46.19532397574103"/>
      <point x="369.72170899706794" y="-11.0"/>
    </contour>
    <contour>
      <point x="150.91714813398903" y="-9.724968876154207" type="curve" smooth="yes"/>
      <point x="218.557726318777" y="-9.724968876154207"/>
      <point x="238.20131136294643" y="58.605598810942624"/>
      <point x="238.7601597872615" y="151.32701525386256" type="curve" smooth="yes"/>
      <point x="239.09581301175785" y="409.4403830163085" type="line"/>
      <point x="175.98146883585036" y="408.1314669181929" type="line"/>
      <point x="175.00744450998945" y="192.80843742346337" type="line" smooth="yes"/>
      <point x="174.67079732237113" y="118.38740872401435"/>
      <point x="143.6696653732099" y="98.86521662760265"/>
      <point x="99.12095010528765" y="90.32492382797955" type="curve"/>
      <point x="92.35689228680894" y="81.53164866395696"/>
      <point x="88.10668359783631" y="71.48664572443158"/>
      <point x="88.10668359783631" y="57.282124305625985" type="curve" smooth="yes"/>
      <point x="88.10668359783631" y="27.520269904319093"/>
      <point x="108.97998965941949" y="-9.724968876154207"/>
    </contour>
    <contour>
      <point x="81.11904212775607" y="299.6841016016115" type="line"/>
      <point x="111.01642405921234" y="327.3552440150579"/>
      <point x="133.34210218094614" y="336.94651989336967"/>
      <point x="176.28230475213445" y="339.213456845584" type="curve"/>
      <point x="550.4316110010011" y="339.213456845584" type="line"/>
      <point x="572.8628211239666" y="415.9868421052631" type="line"/>
      <point x="555.3771364261108" y="442.0751096491226" type="line"/>
      <point x="456.7279527029141" y="436.0668225575623" type="line"/>
      <point x="150.98991634431582" y="436.0" type="line"/>
      <point x="104.7042803794036" y="436.0"/>
      <point x="59.63633040935679" y="380.3224872505018"/>
      <point x="40.0" y="318.60830596395203" type="curve"/>
    </contour>
  </outline>
</glyph>
<glyph name="emdash" format="2">
  <advance width="1000.0"/>
  <unicode hex="2014"/>
  <note>
emdash
</note>
  <outline>
    <contour>
      <point x="0.0" y="195.0" type="line"/>
      <point x="1000.0" y="195.0" type="line"/>
      <point x="1000.0" y="254.0" type="line"/>
      <point x="0.0" y="254.0" type="line"/>
    </contour>
  </outline>
</glyph>
<glyph name="quoteleft" format="2">
  <advance width="278.0"/>
  <unicode hex="2018"/>
  <note>
quoteleft
</note>
  <outline>
    <contour>
      <point x="227.0" y="698.0" type="line"/>
      <point x="113.0" y="652.0"/>
      <point x="50.0" y="561.0"/>
      <point x="50.0" y="463.0" type="curve" smooth="yes"/>
      <point x="50.0" y="379.0"/>
      <point x="97.0" y="346.0"/>
      <point x="141.0" y="346.0" type="curve" smooth="yes"/>
      <point x="188.0" y="346.0"/>
      <point x="221.0" y="379.0"/>
      <point x="221.0" y="419.0" type="curve" smooth="yes"/>
      <point x="221.0" y="489.0"/>
      <point x="146.0" y="484.0"/>
      <point x="146.0" y="549.0" type="curve" smooth="yes"/>
      <point x="146.0" y="594.0"/>
      <point x="175.0" y="631.0"/>
      <point x="244.0" y="661.0" type="curve"/>
    </contour>
  </outline>
</glyph>
<glyph name="perthousand" format="2">
  <advance width="1141.0"/>
  <unicode hex="2030"/>
  <note>
perthousand
</note>
  <outline>
    <contour>
      <point x="941.0" y="-8.0" type="curve" smooth="yes"/>
      <point x="1030.0" y="-8.0"/>
      <point x="1104.0" y="58.0"/>
      <point x="1104.0" y="147.0" type="curve" smooth="yes"/>
      <point x="1104.0" y="239.0"/>
      <point x="1034.0" y="302.0"/>
      <point x="941.0" y="302.0" type="curve" smooth="yes"/>
      <point x="854.0" y="302.0"/>
      <point x="779.0" y="234.0"/>
      <point x="779.0" y="147.0" type="curve" smooth="yes"/>
      <point x="779.0" y="55.0"/>
      <point x="847.0" y="-8.0"/>
    </contour>
    <contour>
      <point x="941.0" y="68.0" type="curve" smooth="yes"/>
      <point x="898.0" y="68.0"/>
      <point x="867.0" y="99.0"/>
      <point x="867.0" y="148.0" type="curve" smooth="yes"/>
      <point x="867.0" y="196.0"/>
      <point x="898.0" y="228.0"/>
      <point x="941.0" y="228.0" type="curve" smooth="yes"/>
      <point x="985.0" y="228.0"/>
      <point x="1019.0" y="197.0"/>
      <point x="1019.0" y="148.0" type="curve" smooth="yes"/>
      <point x="1019.0" y="98.0"/>
      <point x="985.0" y="68.0"/>
    </contour>
    <component base="percent"/>
  </outline>
</glyph>
<glyph name="minute" format="2">
  <advance width="268.0"/>
  <unicode hex="2032"/>
  <note>
quotesingle
</note>
  <outline>
    <contour>
      <point x="134.0" y="596.0" type="curve" smooth="yes"/>
      <point x="91.0" y="596.0"/>
      <point x="59.0" y="564.0"/>
      <point x="59.0" y="504.0" type="curve" smooth="yes"/>
      <point x="59.0" y="453.0"/>
      <point x="96.0" y="333.0"/>
      <point x="114.0" y="265.0" type="curve"/>
      <point x="155.0" y="265.0" type="line"/>
      <point x="172.0" y="333.0"/>
      <point x="209.0" y="453.0"/>
      <point x="209.0" y="504.0" type="curve" smooth="yes"/>
      <point x="209.0" y="564.0"/>
      <point x="176.0" y="596.0"/>
    </contour>
  </outline>
</glyph>
<glyph name="second" format="2">
  <advance width="495.0"/>
  <unicode hex="2033"/>
  <note>
quotedbl
</note>
  <outline>
    <contour>
      <point x="134.0" y="596.0" type="curve" smooth="yes"/>
      <point x="91.0" y="596.0"/>
      <point x="59.0" y="564.0"/>
      <point x="59.0" y="504.0" type="curve" smooth="yes"/>
      <point x="59.0" y="453.0"/>
      <point x="96.0" y="333.0"/>
      <point x="114.0" y="265.0" type="curve"/>
      <point x="155.0" y="265.0" type="line"/>
      <point x="172.0" y="333.0"/>
      <point x="209.0" y="453.0"/>
      <point x="209.0" y="504.0" type="curve" smooth="yes"/>
      <point x="209.0" y="564.0"/>
      <point x="176.0" y="596.0"/>
    </contour>
    <contour>
      <point x="361.0" y="596.0" type="curve" smooth="yes"/>
      <point x="317.0" y="596.0"/>
      <point x="285.0" y="564.0"/>
      <point x="285.0" y="504.0" type="curve" smooth="yes"/>
      <point x="285.0" y="453.0"/>
      <point x="322.0" y="333.0"/>
      <point x="340.0" y="265.0" type="curve"/>
      <point x="381.0" y="265.0" type="line"/>
      <point x="399.0" y="333.0"/>
      <point x="436.0" y="453.0"/>
      <point x="436.0" y="504.0" type="curve" smooth="yes"/>
      <point x="436.0" y="564.0"/>
      <point x="403.0" y="596.0"/>
    </contour>
  </outline>
</glyph>
<glyph name="guilsinglright" format="2">
  <advance width="396.0"/>
  <unicode hex="203A"/>
  <note>
guilsinglright
</note>
  <outline>
    <contour>
      <point x="65.0" y="385.0" type="line"/>
      <point x="230.0" y="184.0" type="line"/>
      <point x="230.0" y="260.0" type="line"/>
      <point x="65.0" y="59.0" type="line"/>
      <point x="99.0" y="20.0" type="line"/>
      <point x="319.0" y="199.0" type="line"/>
      <point x="319.0" y="246.0" type="line"/>
      <point x="99.0" y="424.0" type="line"/>
    </contour>
  </outline>
</glyph>
<glyph name="fraction" format="2">
  <advance width="122.0"/>
  <unicode hex="2044"/>
  <note>
fraction
</note>
  <outline>
    <contour>
      <point x="-113.0" y="-38.0" type="line"/>
      <point x="-58.0" y="-62.0" type="line"/>
      <point x="255.0" y="656.0" type="line"/>
      <point x="201.0" y="680.0" type="line"/>
    </contour>
  </outline>
</glyph>
<glyph name="eightsuperior" format="2">
  <advance width="400.0"/>
  <unicode hex="2078"/>
  <note>
uni2088
</note>
  <outline>
    <contour>
      <point x="193.0" y="193.0" type="curve" smooth="yes"/>
      <point x="301.0" y="193.0"/>
      <point x="371.0" y="240.0"/>
      <point x="371.0" y="312.0" type="curve" smooth="yes"/>
      <point x="371.0" y="439.0"/>
      <point x="146.0" y="412.0"/>
      <point x="146.0" y="499.0" type="curve" smooth="yes"/>
      <point x="146.0" y="529.0"/>
      <point x="168.0" y="546.0"/>
      <point x="200.0" y="546.0" type="curve" smooth="yes"/>
      <point x="235.0" y="546.0"/>
      <point x="259.0" y="525.0"/>
      <point x="259.0" y="487.0" type="curve" smooth="yes"/>
      <point x="259.0" y="461.0"/>
      <point x="252.0" y="441.0"/>
      <point x="233.0" y="414.0" type="curve"/>
      <point x="255.0" y="402.0" type="line"/>
      <point x="307.0" y="414.0"/>
      <point x="356.0" y="441.0"/>
      <point x="356.0" y="497.0" type="curve" smooth="yes"/>
      <point x="356.0" y="555.0"/>
      <point x="293.0" y="593.0"/>
      <point x="208.0" y="593.0" type="curve" smooth="yes"/>
      <point x="116.0" y="593.0"/>
      <point x="45.0" y="547.0"/>
      <point x="45.0" y="477.0" type="curve" smooth="yes"/>
      <point x="45.0" y="341.0"/>
      <point x="269.0" y="369.0"/>
      <point x="269.0" y="288.0" type="curve" smooth="yes"/>
      <point x="269.0" y="261.0"/>
      <point x="246.0" y="244.0"/>
      <point x="205.0" y="244.0" type="curve" smooth="yes"/>
      <point x="157.0" y="244.0"/>
      <point x="132.0" y="271.0"/>
      <point x="132.0" y="302.0" type="curve" smooth="yes"/>
      <point x="132.0" y="324.0"/>
      <point x="140.0" y="345.0"/>
      <point x="166.0" y="369.0" type="curve"/>
      <point x="154.0" y="385.0" type="line"/>
      <point x="71.0" y="376.0"/>
      <point x="29.0" y="342.0"/>
      <point x="29.0" y="294.0" type="curve" smooth="yes"/>
      <point x="29.0" y="236.0"/>
      <point x="94.0" y="193.0"/>
    </contour>
  </outline>
</glyph>
<glyph name="oneinferior" format="2">
  <advance width="400.0"/>
  <unicode hex="2081"/>
  <note>
uni2081
</note>
  <outline>
    <contour>
      <point x="269.0" y="152.0" type="curve" smooth="yes"/>
      <point x="269.0" y="221.0" type="line" smooth="yes"/>
      <point x="269.0" y="267.0"/>
      <point x="269.0" y="341.0"/>
      <point x="276.0" y="397.0" type="curve"/>
      <point x="81.0" y="329.0" type="line"/>
      <point x="85.0" y="285.0" type="line"/>
      <point x="160.0" y="296.0" type="line"/>
      <point x="162.0" y="280.0"/>
      <point x="164.0" y="231.0"/>
      <point x="164.0" y="205.0" type="curve" smooth="yes"/>
      <point x="164.0" y="151.0" type="line" smooth="yes"/>
      <point x="164.0" y="104.0"/>
      <point x="161.0" y="58.0"/>
      <point x="158.0" y="52.0" type="curve"/>
      <point x="89.0" y="42.0" type="line"/>
      <point x="92.0" y="0.0" type="line"/>
      <point x="340.0" y="0.0" type="line"/>
      <point x="343.0" y="42.0" type="line"/>
      <point x="274.0" y="52.0" type="line"/>
      <point x="272.0" y="58.0"/>
      <point x="269.0" y="104.0"/>
    </contour>
  </outline>
</glyph>
<glyph name="five.dnom" format="2">
  <advance width="400.0"/>
  <unicode hex="2085"/>
  <note>
    uni2085
  </note>
  <outline>
    <contour>
      <point x="163.15281281572675" y="-5.894565678313938" type="curve" smooth="yes"/>
      <point x="274.6116723600128" y="-5.894565678313938"/>
      <point x="352.2311208766505" y="48.246128498914686"/>
      <point x="352.2311208766505" y="122.09514654639952" type="curve" smooth="yes"/>
      <point x="352.2311208766505" y="197.09514654639702"/>
      <point x="280.0" y="243.0"/>
      <point x="131.0" y="248.0" type="curve"/>
      <point x="142.0" y="227.0" type="line"/>
      <point x="151.0" y="305.0" type="line"/>
      <point x="324.0" y="305.0" type="line"/>
      <point x="331.0" y="388.0" type="line"/>
      <point x="112.0" y="388.0" type="line"/>
      <point x="85.0" y="166.0" type="line"/>
      <point x="201.0" y="162.0"/>
      <point x="243.46024586474823" y="143.41075240731857"/>
      <point x="243.4997598794139" y="101.8231978858978" type="curve" smooth="yes"/>
      <point x="243.4997598794139" y="54.8231978858978"/>
      <point x="205.6504590978509" y="41.10942505655089"/>
      <point x="173.89512680005123" y="41.10942505655089" type="curve" smooth="yes"/>
      <point x="167.9464811042451" y="41.10942505655089"/>
      <point x="159.59074316311762" y="41.71642911022968"/>
      <point x="153.26591374934787" y="44.213694410536164" type="curve"/>
      <point x="135.41591374934788" y="58.913694410536166"/>
      <point x="115.73859256097921" y="82.19533735835807"/>
      <point x="104.04055944340075" y="98.34976404453755" type="curve"/>
      <point x="99.0271166787245" y="101.69205922098854"/>
      <point x="91.90435870650754" y="102.43479148242182"/>
      <point x="86.80298154263073" y="102.43479148242182" type="curve" smooth="yes"/>
      <point x="64.80298154263113" y="102.43479148242182"/>
      <point x="41.681996660543064" y="84.8842985610858"/>
      <point x="41.681996660543064" y="62.88429856108564" type="curve" smooth="yes"/>
      <point x="41.681996660543064" y="20.548559659373723"/>
      <point x="96.15281281573135" y="-5.894565678313938"/>
    </contour>
  </outline>
</glyph>
<glyph name="seveninferior" format="2">
  <advance width="400.0"/>
  <unicode hex="2087"/>
  <note>
uni2087
</note>
  <outline>
    <contour>
      <point x="121.0" y="0.0" type="line"/>
      <point x="202.0" y="0.0" type="line"/>
      <point x="359.0" y="351.0" type="line"/>
      <point x="356.0" y="389.0" type="line"/>
      <point x="338.0" y="389.0"/>
      <point x="320.0" y="388.0"/>
      <point x="303.0" y="388.0" type="curve"/>
      <point x="159.0" y="388.0" type="line" smooth="yes"/>
      <point x="139.0" y="388.0"/>
      <point x="82.0" y="390.0"/>
      <point x="61.0" y="389.0" type="curve"/>
      <point x="48.0" y="261.0" type="line"/>
      <point x="92.0" y="256.0" type="line"/>
      <point x="104.0" y="301.0" type="line"/>
      <point x="118.0" y="302.0"/>
      <point x="134.0" y="303.0"/>
      <point x="144.0" y="303.0" type="curve"/>
      <point x="301.0" y="303.0" type="line"/>
      <point x="300.0" y="331.0" type="line"/>
      <point x="121.0" y="27.0" type="line"/>
    </contour>
  </outline>
</glyph>
<glyph name="nineinferior" format="2">
  <advance width="400.0"/>
  <unicode hex="2089"/>
  <note>
uni2089
</note>
  <outline>
    <contour>
      <point x="266.0" y="214.0" type="curve"/>
      <point x="263.0" y="249.0" type="line"/>
      <point x="250.0" y="228.0"/>
      <point x="222.0" y="211.0"/>
      <point x="198.0" y="211.0" type="curve" smooth="yes"/>
      <point x="165.0" y="211.0"/>
      <point x="143.0" y="237.0"/>
      <point x="143.0" y="279.0" type="curve" smooth="yes"/>
      <point x="143.0" y="322.0"/>
      <point x="164.0" y="349.0"/>
      <point x="193.0" y="349.0" type="curve" smooth="yes"/>
      <point x="231.0" y="349.0"/>
      <point x="255.0" y="301.0"/>
      <point x="255.0" y="246.0" type="curve" smooth="yes"/>
      <point x="255.0" y="120.0"/>
      <point x="196.0" y="50.0"/>
      <point x="64.0" y="33.0" type="curve"/>
      <point x="78.0" y="-12.0" type="line"/>
      <point x="243.0" y="-8.0"/>
      <point x="362.0" y="98.0"/>
      <point x="362.0" y="232.0" type="curve" smooth="yes"/>
      <point x="362.0" y="324.0"/>
      <point x="296.0" y="394.0"/>
      <point x="199.0" y="394.0" type="curve" smooth="yes"/>
      <point x="114.0" y="394.0"/>
      <point x="39.0" y="335.0"/>
      <point x="39.0" y="256.0" type="curve" smooth="yes"/>
      <point x="39.0" y="185.0"/>
      <point x="94.0" y="141.0"/>
      <point x="156.0" y="141.0" type="curve" smooth="yes"/>
      <point x="194.0" y="141.0"/>
      <point x="234.0" y="169.0"/>
    </contour>
  </outline>
</glyph>
<glyph name="lira" format="2">
  <advance width="532.0"/>
  <unicode hex="20A4"/>
  <note>
    lira
  </note>
  <outline>
    <contour>
      <point x="52.0" y="-11.0" type="line"/>
      <point x="123.0" y="12.0"/>
      <point x="150.0" y="16.0"/>
      <point x="189.0" y="16.0" type="curve" smooth="yes"/>
      <point x="262.0" y="16.0"/>
      <point x="295.0" y="-8.0"/>
      <point x="376.0" y="-8.0" type="curve" smooth="yes"/>
      <point x="451.0" y="-8.0"/>
      <point x="504.0" y="39.0"/>
      <point x="535.0" y="132.0" type="curve"/>
      <point x="494.0" y="151.0" type="line"/>
      <point x="474.0" y="107.0"/>
      <point x="450.0" y="91.0"/>
      <point x="410.0" y="91.0" type="curve" smooth="yes"/>
      <point x="372.0" y="91.0"/>
      <point x="327.0" y="109.0"/>
      <point x="291.0" y="109.0" type="curve" smooth="yes"/>
      <point x="241.0" y="109.0"/>
      <point x="213.0" y="91.0"/>
      <point x="133.0" y="44.0" type="curve"/>
      <point x="134.0" y="31.0" type="line"/>
      <point x="234.0" y="109.0"/>
      <point x="258.0" y="154.0"/>
      <point x="258.0" y="228.0" type="curve" smooth="yes"/>
      <point x="258.0" y="302.0"/>
      <point x="211.0" y="389.0"/>
      <point x="211.0" y="452.0" type="curve" smooth="yes"/>
      <point x="211.0" y="517.0"/>
      <point x="258.6282876294879" y="541.7290098435033"/>
      <point x="300.6994281630641" y="541.7290098435033" type="curve" smooth="yes"/>
      <point x="322.62448401265493" y="541.7290098435033"/>
      <point x="338.8837167592669" y="535.4272270044758"/>
      <point x="351.16751431905993" y="525.5940193001272" type="curve" smooth="yes"/>
      <point x="369.13304278655926" y="511.2125731651352"/>
      <point x="378.5950388727169" y="489.2773412725238"/>
      <point x="384.84170923021657" y="468.4551067475247" type="curve"/>
      <point x="397.46305139028937" y="464.2479926941671"/>
      <point x="409.7102857453108" y="461.4432499919287"/>
      <point x="429.7175924660312" y="461.4432499919287" type="curve" smooth="yes"/>
      <point x="464.0756905684518" y="461.4432499919287"/>
      <point x="483.0" y="483.0"/>
      <point x="483.0" y="510.0" type="curve" smooth="yes"/>
      <point x="483.0" y="562.0"/>
      <point x="418.0" y="596.0"/>
      <point x="323.0" y="596.0" type="curve" smooth="yes"/>
      <point x="183.0" y="596.0"/>
      <point x="83.0" y="521.0"/>
      <point x="83.0" y="416.0" type="curve" smooth="yes"/>
      <point x="83.0" y="351.0"/>
      <point x="150.0" y="254.0"/>
      <point x="150.0" y="161.0" type="curve" smooth="yes"/>
      <point x="150.0" y="92.0"/>
      <point x="122.0" y="61.0"/>
      <point x="40.0" y="39.0" type="curve"/>
    </contour>
    <contour>
      <point x="24.0" y="329.0" type="line"/>
      <point x="407.0" y="329.0" type="line"/>
      <point x="407.0" y="384.0" type="line"/>
      <point x="24.0" y="384.0" type="line"/>
    </contour>
    <contour>
      <point x="24.0" y="213.0" type="line"/>
      <point x="407.0" y="213.0" type="line"/>
      <point x="407.0" y="267.0" type="line"/>
      <point x="24.0" y="267.0" type="line"/>
    </contour>
  </outline>
</glyph>
<glyph name="dong" format="2">
  <advance width="552.0"/>
  <unicode hex="20AB"/>
  <outline>
    <contour>
      <point x="59.0" y="-109.0" type="line"/>
      <point x="545.0" y="-109.0" type="line"/>
      <point x="545.0" y="-61.0" type="line"/>
      <point x="59.0" y="-61.0" type="line"/>
    </contour>
    <component base="dcroat"/>
  </outline>
</glyph>
<glyph name="liraTurkish" format="2">
  <advance width="532.0"/>
  <unicode hex="20BA"/>
  <outline>
    <contour>
      <point x="280.0" y="-9.0" type="curve" smooth="yes"/>
      <point x="403.0" y="-9.0"/>
      <point x="481.0" y="37.0"/>
      <point x="524.0" y="136.0" type="curve"/>
      <point x="477.0" y="168.0" type="line"/>
      <point x="442.0" y="109.0"/>
      <point x="392.0" y="76.0"/>
      <point x="324.0" y="76.0" type="curve" smooth="yes"/>
      <point x="285.0" y="76.0"/>
      <point x="242.0" y="87.0"/>
      <point x="209.0" y="110.0" type="curve"/>
      <point x="210.0" y="373.0" type="line" smooth="yes"/>
      <point x="210.0" y="468.0"/>
      <point x="212.0" y="509.0"/>
      <point x="215.0" y="525.0" type="curve"/>
      <point x="278.0" y="541.0" type="line"/>
      <point x="275.0" y="587.0" type="line"/>
      <point x="25.0" y="587.0" type="line"/>
      <point x="22.0" y="541.0" type="line"/>
      <point x="85.0" y="525.0" type="line"/>
      <point x="87.0" y="510.0"/>
      <point x="90.0" y="459.0"/>
      <point x="90.0" y="373.0" type="curve" smooth="yes"/>
      <point x="90.0" y="51.0" type="line"/>
      <point x="138.0" y="10.0"/>
      <point x="223.0" y="-9.0"/>
    </contour>
    <contour>
      <point x="5.0" y="178.0" type="line"/>
      <point x="412.0" y="338.0" type="line"/>
      <point x="412.0" y="393.0" type="line"/>
      <point x="5.0" y="233.0" type="line"/>
    </contour>
    <contour>
      <point x="5.0" y="296.0" type="line"/>
      <point x="412.0" y="454.0" type="line"/>
      <point x="412.0" y="509.0" type="line"/>
      <point x="5.0" y="350.0" type="line"/>
    </contour>
  </outline>
</glyph>
<glyph name="trademark" format="2">
  <advance width="1099.0"/>
  <unicode hex="2122"/>
  <outline>
    <contour>
      <point x="857.0" y="298.0" type="line"/>
      <point x="1058.0" y="298.0" type="line"/>
      <point x="1061.0" y="338.0" type="line"/>
      <point x="1011.0" y="348.0" type="line"/>
      <point x="1003.0" y="638.0" type="line"/>
      <point x="1053.0" y="648.0" type="line"/>
      <point x="1050.0" y="688.0" type="line"/>
      <point x="885.0" y="688.0" type="line"/>
      <point x="757.0" y="405.0" type="line"/>
      <point x="780.0" y="405.0" type="line"/>
      <point x="634.0" y="688.0" type="line"/>
      <point x="474.0" y="688.0" type="line"/>
      <point x="471.0" y="647.0" type="line"/>
      <point x="521.0" y="637.0" type="line"/>
      <point x="516.0" y="348.0" type="line"/>
      <point x="466.0" y="338.0" type="line"/>
      <point x="469.0" y="298.0" type="line"/>
      <point x="627.0" y="298.0" type="line"/>
      <point x="630.0" y="338.0" type="line"/>
      <point x="580.0" y="348.0" type="line"/>
      <point x="577.0" y="667.0" type="line"/>
      <point x="525.0" y="667.0" type="line"/>
      <point x="717.0" y="298.0" type="line"/>
      <point x="767.0" y="298.0" type="line"/>
      <point x="933.0" y="668.0" type="line"/>
      <point x="896.0" y="668.0" type="line"/>
      <point x="899.0" y="348.0" type="line"/>
      <point x="854.0" y="338.0" type="line"/>
    </contour>
    <contour>
      <point x="109.0" y="298.0" type="line"/>
      <point x="349.0" y="298.0" type="line"/>
      <point x="352.0" y="338.0" type="line"/>
      <point x="286.0" y="348.0" type="line"/>
      <point x="284.0" y="370.0"/>
      <point x="284.0" y="412.0"/>
      <point x="284.0" y="459.0" type="curve" smooth="yes"/>
      <point x="284.0" y="508.0" type="line" smooth="yes"/>
      <point x="284.0" y="570.0"/>
      <point x="284.0" y="636.0"/>
      <point x="285.0" y="644.0" type="curve"/>
      <point x="289.0" y="645.0"/>
      <point x="300.0" y="646.0"/>
      <point x="308.0" y="646.0" type="curve" smooth="yes"/>
      <point x="330.0" y="646.0" type="line" smooth="yes"/>
      <point x="343.0" y="646.0"/>
      <point x="349.0" y="645.0"/>
      <point x="364.0" y="644.0" type="curve"/>
      <point x="392.0" y="566.0" type="line"/>
      <point x="438.0" y="569.0" type="line"/>
      <point x="421.0" y="692.0" type="line"/>
      <point x="401.0" y="691.0"/>
      <point x="340.0" y="688.0"/>
      <point x="314.0" y="688.0" type="curve" smooth="yes"/>
      <point x="143.0" y="688.0" type="line" smooth="yes"/>
      <point x="116.0" y="688.0"/>
      <point x="55.0" y="691.0"/>
      <point x="35.0" y="692.0" type="curve"/>
      <point x="21.0" y="569.0" type="line"/>
      <point x="67.0" y="565.0" type="line"/>
      <point x="94.0" y="644.0" type="line"/>
      <point x="107.0" y="645.0"/>
      <point x="115.0" y="646.0"/>
      <point x="130.0" y="646.0" type="curve" smooth="yes"/>
      <point x="151.0" y="646.0" type="line" smooth="yes"/>
      <point x="159.0" y="646.0"/>
      <point x="170.0" y="645.0"/>
      <point x="174.0" y="644.0" type="curve"/>
      <point x="175.0" y="637.0"/>
      <point x="176.0" y="570.0"/>
      <point x="176.0" y="508.0" type="curve" smooth="yes"/>
      <point x="176.0" y="459.0" type="line" smooth="yes"/>
      <point x="176.0" y="412.0"/>
      <point x="175.0" y="370.0"/>
      <point x="173.0" y="348.0" type="curve"/>
      <point x="106.0" y="337.0" type="line"/>
    </contour>
  </outline>
</glyph>
<glyph name="integral" format="2">
  <advance width="371.0"/>
  <unicode hex="222B"/>
  <outline>
    <contour>
      <point x="70.386785456864" y="-225.8393637108503" type="curve" smooth="yes"/>
      <point x="232.09178055925145" y="-225.8393637108503"/>
      <point x="257.47268555200213" y="-96.80418648886901"/>
      <point x="252.386785456864" y="-2.839363710850307" type="curve" smooth="yes"/>
      <point x="219.0" y="614.0" type="line" smooth="yes"/>
      <point x="214.0" y="698.0"/>
      <point x="232.27027025375378" y="751.1724155062382"/>
      <point x="269.0716222352005" y="751.1724155062382" type="curve" smooth="yes"/>
      <point x="282.872129228243" y="751.1724155062382"/>
      <point x="296.67263622128553" y="716.0961268989217"/>
      <point x="304.1479108425169" y="684.4699650398661" type="curve"/>
      <point x="312.7732277131686" y="680.4448171668955"/>
      <point x="325.98348025438054" y="677.5697115433447"/>
      <point x="338.0741572004131" y="677.5697115433447" type="curve" smooth="yes"/>
      <point x="363.07415720041524" y="677.5697115433447"/>
      <point x="397.301333045554" y="689.070134037547"/>
      <point x="397.301333045554" y="724.7214437695734" type="curve" smooth="yes"/>
      <point x="397.301333045554" y="764.7214437695734"/>
      <point x="350.0" y="798.0"/>
      <point x="288.0" y="798.0" type="curve" smooth="yes"/>
      <point x="177.0" y="798.0"/>
      <point x="99.0" y="711.0"/>
      <point x="106.0" y="575.0" type="curve" smooth="yes"/>
      <point x="139.386785456864" y="-41.83936371085031" type="line" smooth="yes"/>
      <point x="144.386785456864" y="-125.83936371085031"/>
      <point x="126.11651520311023" y="-179.01177921708847"/>
      <point x="89.31516322166351" y="-179.01177921708847" type="curve" smooth="yes"/>
      <point x="75.51465622862099" y="-179.01177921708847"/>
      <point x="61.714149235578475" y="-143.93549060977205"/>
      <point x="54.23887461434708" y="-112.30932875071642" type="curve"/>
      <point x="45.613557743695424" y="-108.28418087774583"/>
      <point x="32.403305202483466" y="-105.40907525419505"/>
      <point x="20.31262825645092" y="-105.40907525419505" type="curve" smooth="yes"/>
      <point x="-4.687371743551239" y="-105.40907525419505"/>
      <point x="-38.91454758868997" y="-116.90949774839726"/>
      <point x="-38.91454758868997" y="-152.5608074804237" type="curve" smooth="yes"/>
      <point x="-38.91454758868997" y="-192.5608074804237"/>
      <point x="10.598280291270157" y="-225.8393637108503"/>
    </contour>
  </outline>
</glyph>
<glyph name="notequal" format="2">
  <advance width="540.0"/>
  <unicode hex="2260"/>
  <outline>
    <contour>
      <point x="325.0" y="501.0" type="line"/>
      <point x="134.0" y="40.0" type="line"/>
      <point x="205.0" y="8.0" type="line"/>
      <point x="395.0" y="470.0" type="line"/>
    </contour>
    <contour>
      <point x="487.0" y="383.0" type="line"/>
      <point x="53.0" y="383.0" type="line"/>
      <point x="53.0" y="303.0" type="line"/>
      <point x="487.0" y="303.0" type="line"/>
    </contour>
    <contour>
      <point x="487.0" y="205.0" type="line"/>
      <point x="53.0" y="205.0" type="line"/>
      <point x="53.0" y="125.0" type="line"/>
      <point x="487.0" y="125.0" type="line"/>
    </contour>
  </outline>
</glyph>
<glyph name="acutecomb_dotaccentcomb.case" format="2">
  <anchor x="300.0" y="660.0" name="_top"/>
  <outline>
    <contour>
      <point x="285.0" y="859.0" type="curve" smooth="yes"/>
      <point x="322.0" y="859.0"/>
      <point x="345.0" y="886.0"/>
      <point x="345.0" y="918.0" type="curve" smooth="yes"/>
      <point x="345.0" y="949.0"/>
      <point x="322.0" y="976.0"/>
      <point x="285.0" y="976.0" type="curve" smooth="yes"/>
      <point x="247.0" y="976.0"/>
      <point x="224.0" y="949.0"/>
      <point x="224.0" y="918.0" type="curve" smooth="yes"/>
      <point x="224.0" y="886.0"/>
      <point x="247.0" y="859.0"/>
    </contour>
    <contour>
      <point x="327.0" y="707.0" type="line"/>
      <point x="460.0" y="834.0" type="line"/>
      <point x="358.0" y="857.0" type="line"/>
      <point x="273.0" y="725.0" type="line"/>
    </contour>
  </outline>
</glyph>
<glyph name="brevecomb_acutecomb" format="2">
  <anchor x="300.0" y="436.0" name="_top"/>
  <outline>
    <contour>
      <point x="398.0" y="677.0" type="line"/>
      <point x="388.0" y="606.0"/>
      <point x="353.0" y="568.0"/>
      <point x="303.0" y="568.0" type="curve" smooth="yes"/>
      <point x="254.0" y="568.0"/>
      <point x="219.0" y="606.0"/>
      <point x="208.0" y="677.0" type="curve"/>
      <point x="152.0" y="659.0" type="line"/>
      <point x="156.0" y="556.0"/>
      <point x="216.0" y="492.0"/>
      <point x="301.0" y="492.0" type="curve" smooth="yes"/>
      <point x="386.0" y="492.0"/>
      <point x="444.0" y="556.0"/>
      <point x="448.0" y="659.0" type="curve"/>
    </contour>
    <contour>
      <point x="316.0" y="635.0" type="line"/>
      <point x="439.0" y="767.0" type="line"/>
      <point x="335.0" y="790.0" type="line"/>
      <point x="264.0" y="652.0" type="line"/>
    </contour>
  </outline>
</glyph>
<glyph name="caroncomb.alt" format="2">
  <anchor x="255.0" y="688.0" name="_topright"/>
  <outline>
    <contour>
      <point x="276.0" y="474.0" type="line"/>
      <point x="342.0" y="511.0"/>
      <point x="385.0" y="572.0"/>
      <point x="385.0" y="622.0" type="curve" smooth="yes"/>
      <point x="385.0" y="669.0"/>
      <point x="351.0" y="693.0"/>
      <point x="312.0" y="693.0" type="curve" smooth="yes"/>
      <point x="280.0" y="693.0"/>
      <point x="255.0" y="672.0"/>
      <point x="255.0" y="645.0" type="curve" smooth="yes"/>
      <point x="255.0" y="592.0"/>
      <point x="308.0" y="600.0"/>
      <point x="308.0" y="568.0" type="curve" smooth="yes"/>
      <point x="308.0" y="550.0"/>
      <point x="294.0" y="527.0"/>
      <point x="256.0" y="501.0" type="curve"/>
    </contour>
  </outline>
</glyph>
<glyph name="caroncomb_dotaccentcomb" format="2">
  <advance width="600.0"/>
  <anchor x="300.0" y="436.0" name="_top"/>
  <outline>
    <contour>
      <point x="452.0" y="659.0" type="line"/>
      <point x="401.0" y="677.0" type="line"/>
      <point x="269.0" y="533.0" type="line"/>
      <point x="333.0" y="533.0" type="line"/>
      <point x="199.0" y="677.0" type="line"/>
      <point x="148.0" y="659.0" type="line"/>
      <point x="253.0" y="495.0" type="line"/>
      <point x="347.0" y="495.0" type="line"/>
    </contour>
    <contour>
      <point x="301.0" y="671.0" type="curve" smooth="yes"/>
      <point x="338.0" y="671.0"/>
      <point x="361.0" y="698.0"/>
      <point x="361.0" y="729.0" type="curve" smooth="yes"/>
      <point x="361.0" y="761.0"/>
      <point x="338.0" y="788.0"/>
      <point x="301.0" y="788.0" type="curve" smooth="yes"/>
      <point x="263.0" y="788.0"/>
      <point x="239.0" y="761.0"/>
      <point x="239.0" y="729.0" type="curve" smooth="yes"/>
      <point x="239.0" y="698.0"/>
      <point x="263.0" y="671.0"/>
    </contour>
  </outline>
</glyph>
<glyph name="circumflexcomb.case" format="2">
  <note>
uni0302.cap
</note>
  <anchor x="300.0" y="660.0" name="_top"/>
  <anchor x="300.0" y="867.0" name="top"/>
  <outline>
    <contour>
      <point x="482.0" y="739.0" type="line"/>
      <point x="347.0" y="843.0" type="line"/>
      <point x="253.0" y="843.0" type="line"/>
      <point x="118.0" y="739.0" type="line"/>
      <point x="161.0" y="711.0" type="line"/>
      <point x="332.0" y="797.0" type="line"/>
      <point x="268.0" y="797.0" type="line"/>
      <point x="439.0" y="711.0" type="line"/>
    </contour>
  </outline>
</glyph>
<glyph name="circumflexcomb_acutecomb.case" format="2">
  <anchor x="300.0" y="660.0" name="_top"/>
  <outline>
    <contour>
      <point x="442.0" y="821.0" type="line"/>
      <point x="562.0" y="953.0" type="line"/>
      <point x="459.0" y="976.0" type="line"/>
      <point x="391.0" y="839.0" type="line"/>
    </contour>
    <contour>
      <point x="482.0" y="739.0" type="line"/>
      <point x="347.0" y="843.0" type="line"/>
      <point x="253.0" y="843.0" type="line"/>
      <point x="118.0" y="739.0" type="line"/>
      <point x="161.0" y="711.0" type="line"/>
      <point x="332.0" y="797.0" type="line"/>
      <point x="268.0" y="797.0" type="line"/>
      <point x="439.0" y="711.0" type="line"/>
    </contour>
  </outline>
</glyph>
<glyph name="circumflexcomb_hookabovecomb.case" format="2">
  <anchor x="300.0" y="660.0" name="_top"/>
  <outline>
    <contour>
      <point x="482.0" y="739.0" type="line"/>
      <point x="347.0" y="843.0" type="line"/>
      <point x="253.0" y="843.0" type="line"/>
      <point x="118.0" y="739.0" type="line"/>
      <point x="161.0" y="711.0" type="line"/>
      <point x="332.0" y="797.0" type="line"/>
      <point x="268.0" y="797.0" type="line"/>
      <point x="439.0" y="711.0" type="line"/>
    </contour>
    <contour>
      <point x="435.0" y="975.0" type="curve" smooth="yes"/>
      <point x="375.0" y="975.0"/>
      <point x="335.0" y="948.0"/>
      <point x="335.0" y="920.0" type="curve" smooth="yes"/>
      <point x="335.0" y="904.0"/>
      <point x="346.0" y="893.0"/>
      <point x="364.0" y="893.0" type="curve" smooth="yes"/>
      <point x="380.0" y="893.0"/>
      <point x="388.0" y="899.0"/>
      <point x="402.0" y="912.0" type="curve" smooth="yes"/>
      <point x="441.0" y="951.0" type="line"/>
      <point x="401.0" y="939.0" type="line"/>
      <point x="435.0" y="947.0"/>
      <point x="458.0" y="944.0"/>
      <point x="458.0" y="915.0" type="curve" smooth="yes"/>
      <point x="458.0" y="888.0"/>
      <point x="413.0" y="871.0"/>
      <point x="413.0" y="832.0" type="curve" smooth="yes"/>
      <point x="413.0" y="818.0" type="line"/>
      <point x="453.0" y="818.0" type="line"/>
      <point x="453.0" y="857.0"/>
      <point x="538.0" y="856.0"/>
      <point x="538.0" y="912.0" type="curve" smooth="yes"/>
      <point x="538.0" y="953.0"/>
      <point x="498.0" y="975.0"/>
    </contour>
  </outline>
</glyph>
<glyph name="circumflexcomb_tildecomb.case" format="2">
  <anchor x="300.0" y="660.0" name="_top"/>
  <outline>
    <contour>
      <point x="161.0" y="711.0" type="line"/>
      <point x="332.0" y="797.0" type="line"/>
      <point x="268.0" y="797.0" type="line"/>
      <point x="439.0" y="711.0" type="line"/>
      <point x="482.0" y="739.0" type="line"/>
      <point x="347.0" y="843.0" type="line"/>
      <point x="253.0" y="843.0" type="line"/>
      <point x="118.0" y="739.0" type="line"/>
    </contour>
    <contour>
      <point x="369.0" y="863.0" type="curve" smooth="yes"/>
      <point x="419.0" y="863.0"/>
      <point x="459.0" y="897.0"/>
      <point x="481.0" y="954.0" type="curve"/>
      <point x="444.0" y="975.0" type="line"/>
      <point x="426.0" y="952.0"/>
      <point x="408.0" y="939.0"/>
      <point x="383.0" y="939.0" type="curve" smooth="yes"/>
      <point x="341.0" y="939.0"/>
      <point x="281.0" y="976.0"/>
      <point x="231.0" y="976.0" type="curve" smooth="yes"/>
      <point x="180.0" y="976.0"/>
      <point x="140.0" y="942.0"/>
      <point x="119.0" y="885.0" type="curve"/>
      <point x="155.0" y="864.0" type="line"/>
      <point x="173.0" y="887.0"/>
      <point x="190.0" y="901.0"/>
      <point x="217.0" y="901.0" type="curve" smooth="yes"/>
      <point x="258.0" y="901.0"/>
      <point x="319.0" y="863.0"/>
    </contour>
  </outline>
</glyph>
<glyph name="commaaccentcomb.case" format="2">
  <note>
uni0326
</note>
  <anchor x="300.0" y="0.0" name="_bottom"/>
  <anchor x="300.0" y="-220.0" name="bottom"/>
  <outline>
    <contour>
      <point x="227.0" y="-289.0" type="line"/>
      <point x="318.0" y="-267.0"/>
      <point x="366.0" y="-207.0"/>
      <point x="366.0" y="-150.0" type="curve" smooth="yes"/>
      <point x="366.0" y="-100.0"/>
      <point x="332.0" y="-77.0"/>
      <point x="294.0" y="-77.0" type="curve" smooth="yes"/>
      <point x="259.0" y="-77.0"/>
      <point x="234.0" y="-97.0"/>
      <point x="234.0" y="-125.0" type="curve" smooth="yes"/>
      <point x="234.0" y="-178.0"/>
      <point x="291.0" y="-169.0"/>
      <point x="291.0" y="-202.0" type="curve" smooth="yes"/>
      <point x="291.0" y="-222.0"/>
      <point x="270.0" y="-245.0"/>
      <point x="214.0" y="-258.0" type="curve"/>
    </contour>
  </outline>
</glyph>
<glyph name="commaturnedabovecomb.case" format="2">
  <anchor x="300.0" y="660.0" name="_top"/>
  <anchor x="300.0" y="849.0" name="top"/>
  <outline>
    <contour>
      <point x="373.0" y="930.0" type="line"/>
      <point x="282.0" y="907.0"/>
      <point x="234.0" y="847.0"/>
      <point x="234.0" y="790.0" type="curve" smooth="yes"/>
      <point x="234.0" y="741.0"/>
      <point x="268.0" y="717.0"/>
      <point x="306.0" y="717.0" type="curve" smooth="yes"/>
      <point x="341.0" y="717.0"/>
      <point x="366.0" y="738.0"/>
      <point x="366.0" y="765.0" type="curve" smooth="yes"/>
      <point x="366.0" y="818.0"/>
      <point x="309.0" y="810.0"/>
      <point x="309.0" y="842.0" type="curve" smooth="yes"/>
      <point x="309.0" y="863.0"/>
      <point x="330.0" y="885.0"/>
      <point x="386.0" y="899.0" type="curve"/>
    </contour>
  </outline>
</glyph>
<glyph name="dblgravecomb.case" format="2">
  <anchor x="300.0" y="660.0" name="_top"/>
  <anchor x="300.0" y="871.0" name="top"/>
  <outline>
    <contour>
      <point x="346.0" y="711.0" type="line"/>
      <point x="392.0" y="727.0" type="line"/>
      <point x="348.0" y="850.0" type="line"/>
      <point x="265.0" y="833.0" type="line"/>
    </contour>
    <contour>
      <point x="208.0" y="711.0" type="line"/>
      <point x="254.0" y="727.0" type="line"/>
      <point x="211.0" y="850.0" type="line"/>
      <point x="127.0" y="833.0" type="line"/>
    </contour>
  </outline>
</glyph>
<glyph name="dieresisbelowcomb.case" format="2">
  <anchor x="300.0" y="0.0" name="_bottom"/>
  <anchor x="300.0" y="-220.0" name="bottom"/>
  <outline>
    <contour>
      <point x="213.0" y="-202.0" type="curve" smooth="yes"/>
      <point x="250.0" y="-202.0"/>
      <point x="274.0" y="-175.0"/>
      <point x="274.0" y="-142.0" type="curve" smooth="yes"/>
      <point x="274.0" y="-111.0"/>
      <point x="250.0" y="-83.0"/>
      <point x="213.0" y="-83.0" type="curve" smooth="yes"/>
      <point x="174.0" y="-83.0"/>
      <point x="150.0" y="-111.0"/>
      <point x="150.0" y="-142.0" type="curve" smooth="yes"/>
      <point x="150.0" y="-175.0"/>
      <point x="174.0" y="-202.0"/>
    </contour>
    <contour>
      <point x="389.0" y="-202.0" type="curve" smooth="yes"/>
      <point x="427.0" y="-202.0"/>
      <point x="450.0" y="-175.0"/>
      <point x="450.0" y="-142.0" type="curve" smooth="yes"/>
      <point x="450.0" y="-111.0"/>
      <point x="427.0" y="-83.0"/>
      <point x="389.0" y="-83.0" type="curve" smooth="yes"/>
      <point x="350.0" y="-83.0"/>
      <point x="326.0" y="-111.0"/>
      <point x="326.0" y="-142.0" type="curve" smooth="yes"/>
      <point x="326.0" y="-175.0"/>
      <point x="350.0" y="-202.0"/>
    </contour>
  </outline>
</glyph>
<glyph name="dieresiscomb_acutecomb.case" format="2">
  <anchor x="300.0" y="660.0" name="_top"/>
  <outline>
    <contour>
      <point x="326.0" y="836.0" type="line"/>
      <point x="443.0" y="953.0" type="line"/>
      <point x="340.0" y="976.0" type="line"/>
      <point x="274.0" y="854.0" type="line"/>
    </contour>
    <contour>
      <point x="193.0" y="724.0" type="curve" smooth="yes"/>
      <point x="230.0" y="724.0"/>
      <point x="254.0" y="751.0"/>
      <point x="254.0" y="783.0" type="curve" smooth="yes"/>
      <point x="254.0" y="815.0"/>
      <point x="230.0" y="842.0"/>
      <point x="193.0" y="842.0" type="curve" smooth="yes"/>
      <point x="154.0" y="842.0"/>
      <point x="130.0" y="815.0"/>
      <point x="130.0" y="783.0" type="curve" smooth="yes"/>
      <point x="130.0" y="751.0"/>
      <point x="154.0" y="724.0"/>
    </contour>
    <contour>
      <point x="409.0" y="724.0" type="curve" smooth="yes"/>
      <point x="447.0" y="724.0"/>
      <point x="470.0" y="751.0"/>
      <point x="470.0" y="783.0" type="curve" smooth="yes"/>
      <point x="470.0" y="815.0"/>
      <point x="447.0" y="842.0"/>
      <point x="409.0" y="842.0" type="curve" smooth="yes"/>
      <point x="370.0" y="842.0"/>
      <point x="346.0" y="815.0"/>
      <point x="346.0" y="783.0" type="curve" smooth="yes"/>
      <point x="346.0" y="751.0"/>
      <point x="370.0" y="724.0"/>
    </contour>
  </outline>
</glyph>
<glyph name="dieresiscomb_macroncomb.case" format="2">
  <advance width="600.0"/>
  <anchor x="300.0" y="660.0" name="_top"/>
  <outline>
    <contour>
      <point x="124.0" y="958.0" type="line"/>
      <point x="124.0" y="893.0" type="line"/>
      <point x="476.0" y="893.0" type="line"/>
      <point x="476.0" y="958.0" type="line"/>
    </contour>
    <contour>
      <point x="193.0" y="724.0" type="curve" smooth="yes"/>
      <point x="230.0" y="724.0"/>
      <point x="254.0" y="751.0"/>
      <point x="254.0" y="783.0" type="curve" smooth="yes"/>
      <point x="254.0" y="815.0"/>
      <point x="230.0" y="842.0"/>
      <point x="193.0" y="842.0" type="curve" smooth="yes"/>
      <point x="154.0" y="842.0"/>
      <point x="130.0" y="815.0"/>
      <point x="130.0" y="783.0" type="curve" smooth="yes"/>
      <point x="130.0" y="751.0"/>
      <point x="154.0" y="724.0"/>
    </contour>
    <contour>
      <point x="409.0" y="724.0" type="curve" smooth="yes"/>
      <point x="447.0" y="724.0"/>
      <point x="470.0" y="751.0"/>
      <point x="470.0" y="783.0" type="curve" smooth="yes"/>
      <point x="470.0" y="815.0"/>
      <point x="447.0" y="842.0"/>
      <point x="409.0" y="842.0" type="curve" smooth="yes"/>
      <point x="370.0" y="842.0"/>
      <point x="346.0" y="815.0"/>
      <point x="346.0" y="783.0" type="curve" smooth="yes"/>
      <point x="346.0" y="751.0"/>
      <point x="370.0" y="724.0"/>
    </contour>
  </outline>
</glyph>
<glyph name="dotaccentcomb.case" format="2">
  <note>
uni0307.cap
</note>
  <anchor x="300.0" y="660.0" name="_top"/>
  <anchor x="300.0" y="849.0" name="top"/>
  <outline>
    <contour>
      <point x="301.0" y="719.0" type="curve" smooth="yes"/>
      <point x="342.0" y="719.0"/>
      <point x="367.0" y="748.0"/>
      <point x="367.0" y="783.0" type="curve" smooth="yes"/>
      <point x="367.0" y="818.0"/>
      <point x="342.0" y="847.0"/>
      <point x="301.0" y="847.0" type="curve" smooth="yes"/>
      <point x="259.0" y="847.0"/>
      <point x="233.0" y="818.0"/>
      <point x="233.0" y="783.0" type="curve" smooth="yes"/>
      <point x="233.0" y="748.0"/>
      <point x="259.0" y="719.0"/>
    </contour>
  </outline>
</glyph>
<glyph name="dotbelowcomb.case" format="2">
  <note>
uni0323
</note>
  <anchor x="300.0" y="0.0" name="_bottom"/>
  <anchor x="300.0" y="-220.0" name="bottom"/>
  <outline>
    <contour>
      <point x="301.0" y="-207.0" type="curve" smooth="yes"/>
      <point x="342.0" y="-207.0"/>
      <point x="367.0" y="-177.0"/>
      <point x="367.0" y="-142.0" type="curve" smooth="yes"/>
      <point x="367.0" y="-108.0"/>
      <point x="342.0" y="-78.0"/>
      <point x="301.0" y="-78.0" type="curve" smooth="yes"/>
      <point x="259.0" y="-78.0"/>
      <point x="233.0" y="-108.0"/>
      <point x="233.0" y="-142.0" type="curve" smooth="yes"/>
      <point x="233.0" y="-177.0"/>
      <point x="259.0" y="-207.0"/>
    </contour>
  </outline>
</glyph>
<glyph name="eight.osf" format="2">
  <advance width="592.0"/>
  <note>
eight.onum
</note>
  <outline>
    <contour>
      <point x="289.0" y="-10.0" type="curve" smooth="yes"/>
      <point x="435.0" y="-10.0"/>
      <point x="536.0" y="69.0"/>
      <point x="536.0" y="182.0" type="curve" smooth="yes"/>
      <point x="536.0" y="387.0"/>
      <point x="199.0" y="351.0"/>
      <point x="199.0" y="520.0" type="curve" smooth="yes"/>
      <point x="199.0" y="581.0"/>
      <point x="239.0" y="617.0"/>
      <point x="297.0" y="617.0" type="curve" smooth="yes"/>
      <point x="363.0" y="617.0"/>
      <point x="402.0" y="568.0"/>
      <point x="402.0" y="488.0" type="curve" smooth="yes"/>
      <point x="402.0" y="435.0"/>
      <point x="386.0" y="394.0"/>
      <point x="346.0" y="344.0" type="curve"/>
      <point x="364.0" y="330.0" type="line"/>
      <point x="458.0" y="360.0"/>
      <point x="512.0" y="419.0"/>
      <point x="512.0" y="497.0" type="curve" smooth="yes"/>
      <point x="512.0" y="598.0"/>
      <point x="432.0" y="670.0"/>
      <point x="307.0" y="670.0" type="curve" smooth="yes"/>
      <point x="177.0" y="670.0"/>
      <point x="84.0" y="594.0"/>
      <point x="84.0" y="489.0" type="curve" smooth="yes"/>
      <point x="84.0" y="266.0"/>
      <point x="418.0" y="313.0"/>
      <point x="418.0" y="145.0" type="curve" smooth="yes"/>
      <point x="418.0" y="85.0"/>
      <point x="375.0" y="47.0"/>
      <point x="306.0" y="47.0" type="curve" smooth="yes"/>
      <point x="225.0" y="47.0"/>
      <point x="176.0" y="99.0"/>
      <point x="176.0" y="170.0" type="curve" smooth="yes"/>
      <point x="176.0" y="225.0"/>
      <point x="199.0" y="271.0"/>
      <point x="257.0" y="315.0" type="curve"/>
      <point x="234.0" y="337.0" type="line"/>
      <point x="125.0" y="311.0"/>
      <point x="58.0" y="252.0"/>
      <point x="58.0" y="167.0" type="curve" smooth="yes"/>
      <point x="58.0" y="64.0"/>
      <point x="151.0" y="-10.0"/>
    </contour>
  </outline>
</glyph>
<glyph name="eight.tf" format="2">
  <advance width="540.0"/>
  <note>
eight
</note>
  <outline>
    <contour>
      <point x="263.0" y="-9.0" type="curve" smooth="yes"/>
      <point x="402.0" y="-9.0"/>
      <point x="498.0" y="61.0"/>
      <point x="498.0" y="166.0" type="curve" smooth="yes"/>
      <point x="498.0" y="354.0"/>
      <point x="183.0" y="315.0"/>
      <point x="183.0" y="461.0" type="curve" smooth="yes"/>
      <point x="183.0" y="509.0"/>
      <point x="218.0" y="539.0"/>
      <point x="270.0" y="539.0" type="curve" smooth="yes"/>
      <point x="328.0" y="539.0"/>
      <point x="364.0" y="499.0"/>
      <point x="364.0" y="435.0" type="curve" smooth="yes"/>
      <point x="364.0" y="386.0"/>
      <point x="350.0" y="351.0"/>
      <point x="315.0" y="306.0" type="curve"/>
      <point x="329.0" y="294.0" type="line"/>
      <point x="422.0" y="317.0"/>
      <point x="475.0" y="370.0"/>
      <point x="475.0" y="444.0" type="curve" smooth="yes"/>
      <point x="475.0" y="532.0"/>
      <point x="402.0" y="596.0"/>
      <point x="280.0" y="596.0" type="curve" smooth="yes"/>
      <point x="153.0" y="596.0"/>
      <point x="66.0" y="527.0"/>
      <point x="66.0" y="430.0" type="curve" smooth="yes"/>
      <point x="66.0" y="227.0"/>
      <point x="377.0" y="269.0"/>
      <point x="377.0" y="131.0" type="curve" smooth="yes"/>
      <point x="377.0" y="85.0"/>
      <point x="339.0" y="55.0"/>
      <point x="278.0" y="55.0" type="curve" smooth="yes"/>
      <point x="207.0" y="55.0"/>
      <point x="163.0" y="94.0"/>
      <point x="163.0" y="156.0" type="curve" smooth="yes"/>
      <point x="163.0" y="199.0"/>
      <point x="181.0" y="236.0"/>
      <point x="228.0" y="278.0" type="curve"/>
      <point x="210.0" y="299.0" type="line"/>
      <point x="105.0" y="276.0"/>
      <point x="42.0" y="224.0"/>
      <point x="42.0" y="147.0" type="curve" smooth="yes"/>
      <point x="42.0" y="57.0"/>
      <point x="129.0" y="-9.0"/>
    </contour>
  </outline>
</glyph>
<glyph name="eight.tosf" format="2">
  <advance width="540.0"/>
  <note>
eight.onum
</note>
  <outline>
    <contour>
      <point x="263.0" y="-10.0" type="curve" smooth="yes"/>
      <point x="403.0" y="-10.0"/>
      <point x="501.0" y="69.0"/>
      <point x="501.0" y="182.0" type="curve" smooth="yes"/>
      <point x="501.0" y="387.0"/>
      <point x="178.0" y="351.0"/>
      <point x="178.0" y="520.0" type="curve" smooth="yes"/>
      <point x="178.0" y="581.0"/>
      <point x="217.0" y="617.0"/>
      <point x="271.0" y="617.0" type="curve" smooth="yes"/>
      <point x="333.0" y="617.0"/>
      <point x="370.0" y="568.0"/>
      <point x="370.0" y="488.0" type="curve" smooth="yes"/>
      <point x="370.0" y="435.0"/>
      <point x="355.0" y="394.0"/>
      <point x="317.0" y="344.0" type="curve"/>
      <point x="334.0" y="330.0" type="line"/>
      <point x="420.0" y="360.0"/>
      <point x="478.0" y="419.0"/>
      <point x="478.0" y="497.0" type="curve" smooth="yes"/>
      <point x="478.0" y="598.0"/>
      <point x="400.0" y="670.0"/>
      <point x="280.0" y="670.0" type="curve" smooth="yes"/>
      <point x="154.0" y="670.0"/>
      <point x="64.0" y="594.0"/>
      <point x="64.0" y="489.0" type="curve" smooth="yes"/>
      <point x="64.0" y="266.0"/>
      <point x="386.0" y="313.0"/>
      <point x="386.0" y="145.0" type="curve" smooth="yes"/>
      <point x="386.0" y="85.0"/>
      <point x="345.0" y="47.0"/>
      <point x="280.0" y="47.0" type="curve" smooth="yes"/>
      <point x="203.0" y="47.0"/>
      <point x="157.0" y="99.0"/>
      <point x="157.0" y="170.0" type="curve" smooth="yes"/>
      <point x="157.0" y="225.0"/>
      <point x="178.0" y="271.0"/>
      <point x="234.0" y="315.0" type="curve"/>
      <point x="213.0" y="337.0" type="line"/>
      <point x="105.0" y="311.0"/>
      <point x="39.0" y="252.0"/>
      <point x="39.0" y="167.0" type="curve" smooth="yes"/>
      <point x="39.0" y="64.0"/>
      <point x="130.0" y="-10.0"/>
    </contour>
  </outline>
</glyph>
<glyph name="f_j" format="2">
  <advance width="577.0"/>
  <note>
    f_j
  </note>
  <outline>
    <contour>
      <point x="306.0" y="-230.0" type="line"/>
      <point x="419.0" y="-185.0"/>
      <point x="494.0" y="-90.0"/>
      <point x="494.0" y="10.0" type="curve"/>
      <point x="493.0" y="291.0" type="line"/>
      <point x="493.0" y="351.0"/>
      <point x="495.23564774512374" y="381.41944556014323"/>
      <point x="499.23564774512374" y="430.41944556014323" type="curve"/>
      <point x="478.3982526918003" y="443.9299798895545" type="line"/>
      <point x="373.89115903729385" y="434.68986562588134" type="line"/>
      <point x="153.0" y="435.0" type="line"/>
      <point x="87.0" y="437.0" type="line"/>
      <point x="14.0" y="418.0" type="line"/>
      <point x="14.0" y="376.0" type="line"/>
      <point x="372.0" y="376.0" type="line"/>
      <point x="376.0" y="345.0"/>
      <point x="380.0" y="314.0"/>
      <point x="380.0" y="262.0" type="curve" smooth="yes"/>
      <point x="379.0" y="-14.0" type="line" smooth="yes"/>
      <point x="379.0" y="-99.0"/>
      <point x="351.0" y="-149.0"/>
      <point x="284.0" y="-189.0" type="curve"/>
    </contour>
    <contour>
      <point x="24.15799448551911" y="0.0" type="line"/>
      <point x="267.1579944855191" y="0.0" type="line"/>
      <point x="270.1579944855191" y="43.0" type="line"/>
      <point x="203.1579944855191" y="59.0" type="line"/>
      <point x="202.1579944855191" y="80.0"/>
      <point x="198.15799448551914" y="124.99999999999991"/>
      <point x="198.1579944855191" y="224.0" type="curve" smooth="yes"/>
      <point x="198.1579944855191" y="435.0" type="line"/>
      <point x="198.1579944855191" y="484.0" type="line"/>
      <point x="198.1579944855191" y="576.3990923489284"/>
      <point x="246.98333942495174" y="647.2331871345036"/>
      <point x="322.4622928849908" y="647.2331871345036" type="curve" smooth="yes"/>
      <point x="361.9435916179341" y="647.2331871345036"/>
      <point x="370.13176241662336" y="585.9979293434376"/>
      <point x="371.5317608114633" y="562.1979566311597" type="curve"/>
      <point x="378.53175278566255" y="558.4646275782534"/>
      <point x="395.6188170077978" y="554.3360136452247"/>
      <point x="410.7146076998056" y="554.3360136452247" type="curve" smooth="yes"/>
      <point x="443.64256994643944" y="554.3360136452247"/>
      <point x="486.1935611598444" y="572.1413052306698"/>
      <point x="486.1935611598444" y="611.2355324074083" type="curve" smooth="yes"/>
      <point x="486.1935611598444" y="645.9235293254995"/>
      <point x="460.4599476120868" y="698.0"/>
      <point x="358.4599476120861" y="698.0" type="curve" smooth="yes"/>
      <point x="190.0838206627684" y="698.0"/>
      <point x="86.15799448551911" y="603.0"/>
      <point x="86.15799448551911" y="463.0" type="curve" smooth="yes"/>
      <point x="86.15799448551911" y="202.0" type="line" smooth="yes"/>
      <point x="86.15799448551913" y="111.00000000000003"/>
      <point x="85.15799448551911" y="67.0"/>
      <point x="83.15799448551911" y="59.0" type="curve"/>
      <point x="21.15799448551911" y="43.0" type="line"/>
    </contour>
  </outline>
</glyph>
<glyph name="five.osf" format="2">
  <advance width="469.0"/>
  <note>
    five.onum
  </note>
  <outline>
    <contour>
      <point x="182.0" y="-228.0" type="curve" smooth="yes"/>
      <point x="331.0" y="-228.0"/>
      <point x="433.0" y="-133.0"/>
      <point x="433.0" y="-19.0" type="curve" smooth="yes"/>
      <point x="433.0" y="112.75427399999998"/>
      <point x="301.8754013932048" y="173.39720488354507"/>
      <point x="149.006169722628" y="188.33288849876317" type="curve"/>
      <point x="167.0" y="334.0" type="line"/>
      <point x="392.0" y="334.0" type="line"/>
      <point x="402.0" y="436.0" type="line"/>
      <point x="114.0" y="436.0" type="line"/>
      <point x="73.0" y="95.0" type="line"/>
      <point x="199.61275866613937" y="88.17516805061291"/>
      <point x="313.0" y="53.0"/>
      <point x="313.0" y="-48.0" type="curve" smooth="yes"/>
      <point x="313.0" y="-130.0"/>
      <point x="255.3920815919496" y="-174.1635856558571"/>
      <point x="195.83319000458755" y="-174.1635856558571" type="curve" smooth="yes"/>
      <point x="182.73398614644157" y="-174.1635856558571"/>
      <point x="168.91659069128696" y="-173.01330363392117"/>
      <point x="161.55478575089705" y="-170.25262678127478" type="curve"/>
      <point x="152.35252957540956" y="-156.90935532681806"/>
      <point x="121.71821876721197" y="-110.87046768085474"/>
      <point x="112.47182584451252" y="-93.282783374568" type="curve"/>
      <point x="102.19384296332578" y="-86.17340143343631"/>
      <point x="91.48982970364416" y="-83.13793498666087"/>
      <point x="77.5905886052517" y="-83.13793498666087" type="curve" smooth="yes"/>
      <point x="45.921075100957296" y="-83.13793498666087"/>
      <point x="25.6466642951234" y="-104.37737151508432"/>
      <point x="25.6466642951234" y="-139.49316528909094" type="curve" smooth="yes"/>
      <point x="25.6466642951234" y="-190.4943190979161"/>
      <point x="91.0" y="-228.0"/>
    </contour>
  </outline>
</glyph>
<glyph name="five.tf" format="2">
  <advance width="540.0"/>
  <note>
    five
  </note>
  <outline>
    <contour>
      <point x="223.0" y="-9.0" type="curve" smooth="yes"/>
      <point x="377.0" y="-9.0"/>
      <point x="480.0" y="82.0"/>
      <point x="480.0" y="181.0" type="curve" smooth="yes"/>
      <point x="480.0" y="288.085474"/>
      <point x="380.43604191379995" y="379.9406880189797"/>
      <point x="190.6994859628312" y="379.9406880189797" type="curve"/>
      <point x="202.6648543561355" y="486.0" type="line"/>
      <point x="441.0" y="486.0" type="line"/>
      <point x="450.0" y="587.0" type="line"/>
      <point x="155.0" y="587.0" type="line"/>
      <point x="118.90727560300502" y="277.3803875049425" type="line"/>
      <point x="265.91037300645826" y="277.3803875049425"/>
      <point x="356.50530512719115" y="224.88935020429676"/>
      <point x="356.50530512719115" y="150.88935020429676" type="curve" smooth="yes"/>
      <point x="356.50530512719115" y="82.88935020429676"/>
      <point x="312.3679279265427" y="46.065529794523854"/>
      <point x="243.31627751732117" y="46.065529794523854" type="curve" smooth="yes"/>
      <point x="226.00554755277562" y="46.065529794523854"/>
      <point x="207.71882408084707" y="49.73466889869178"/>
      <point x="195.79270007741547" y="55.69773090040758" type="curve"/>
      <point x="180.28873887295435" y="75.17706677267938"/>
      <point x="163.59216526814998" y="105.38991424803953"/>
      <point x="152.46111619828048" y="126.45939998743552" type="curve"/>
      <point x="143.6252972719442" y="131.84764476127157"/>
      <point x="133.64021027597278" y="136.64048651933786"/>
      <point x="119.79422297489214" y="136.64048651933786" type="curve" smooth="yes"/>
      <point x="92.79422297489182" y="136.64048651933786"/>
      <point x="68.38194197408711" y="117.38229449593496"/>
      <point x="68.38194197408711" y="88.56082815430841" type="curve" smooth="yes"/>
      <point x="68.38194197408711" y="38.25647159301138"/>
      <point x="131.0" y="-9.0"/>
    </contour>
  </outline>
</glyph>
<glyph name="fivesuperior" format="2">
  <advance width="400.0"/>
  <note>
    uni2085
  </note>
  <outline>
    <contour>
      <point x="163.15281281572675" y="192.8120211480334" type="curve" smooth="yes"/>
      <point x="274.6116723600128" y="192.8120211480334"/>
      <point x="352.2311208766505" y="252.02123530716358"/>
      <point x="352.2311208766505" y="320.80173337274687" type="curve" smooth="yes"/>
      <point x="352.2311208766505" y="395.8017333727406"/>
      <point x="280.0" y="441.70658682634735"/>
      <point x="131.0" y="446.70658682634735" type="curve"/>
      <point x="142.0" y="425.70658682634735" type="line"/>
      <point x="151.0" y="503.70658682634735" type="line"/>
      <point x="324.0" y="503.70658682634735" type="line"/>
      <point x="331.0" y="586.7065868263473" type="line"/>
      <point x="112.0" y="586.7065868263473" type="line"/>
      <point x="85.0" y="364.70658682634735" type="line"/>
      <point x="201.0" y="360.70658682634735"/>
      <point x="243.46024586474823" y="342.1173392336659"/>
      <point x="243.4997598794139" y="300.52978471224515" type="curve" smooth="yes"/>
      <point x="243.4997598794139" y="253.52978471224515"/>
      <point x="205.6504590978509" y="239.81601188289824"/>
      <point x="173.89512680005123" y="239.81601188289824" type="curve" smooth="yes"/>
      <point x="167.9464811042451" y="239.81601188289824"/>
      <point x="159.59074316311762" y="240.42301593657703"/>
      <point x="153.26591374934787" y="242.9202812368835" type="curve"/>
      <point x="135.41591374934788" y="257.6202812368835"/>
      <point x="115.73859256097921" y="280.9019241847054"/>
      <point x="104.04055944340075" y="297.0563508708849" type="curve"/>
      <point x="99.0271166787245" y="300.3986460473359"/>
      <point x="91.90435870650754" y="301.14137830876916"/>
      <point x="86.80298154263073" y="301.14137830876916" type="curve" smooth="yes"/>
      <point x="64.80298154263113" y="301.14137830876916"/>
      <point x="41.681996660543064" y="283.59088538743316"/>
      <point x="41.681996660543064" y="261.590885387433" type="curve" smooth="yes"/>
      <point x="41.681996660543064" y="219.25514648572107"/>
      <point x="96.15281281573135" y="192.8120211480334"/>
    </contour>
  </outline>
</glyph>
<glyph name="four.dnom" format="2">
  <advance width="400.0"/>
  <note>
uni2084
</note>
  <outline>
    <contour>
      <point x="310.0" y="52.0" type="line"/>
      <point x="310.0" y="274.0" type="line"/>
      <point x="310.0" y="316.0"/>
      <point x="311.0" y="359.0"/>
      <point x="314.0" y="391.0" type="curve"/>
      <point x="251.0" y="391.0" type="line"/>
      <point x="21.0" y="133.0" type="line"/>
      <point x="28.0" y="99.0" type="line"/>
      <point x="368.0" y="99.0" type="line"/>
      <point x="368.0" y="161.0" type="line"/>
      <point x="98.0" y="161.0" type="line"/>
      <point x="95.0" y="149.0" type="line"/>
      <point x="218.0" y="287.0" type="line"/>
      <point x="206.0" y="291.0" type="line"/>
      <point x="206.0" y="52.0" type="line"/>
      <point x="149.0" y="42.0" type="line"/>
      <point x="152.0" y="0.0" type="line"/>
      <point x="355.0" y="0.0" type="line"/>
      <point x="357.0" y="42.0" type="line"/>
    </contour>
  </outline>
</glyph>
<glyph name="four.osf" format="2">
  <advance width="557.0"/>
  <note>
four.onum
</note>
  <outline>
    <contour>
      <point x="425.0" y="-217.0" type="line"/>
      <point x="425.0" y="265.0" type="line"/>
      <point x="425.0" y="326.0"/>
      <point x="426.0" y="386.0"/>
      <point x="429.0" y="440.0" type="curve"/>
      <point x="367.0" y="440.0" type="line"/>
      <point x="23.0" y="47.0" type="line"/>
      <point x="33.0" y="4.0" type="line"/>
      <point x="518.0" y="4.0" type="line"/>
      <point x="518.0" y="81.0" type="line"/>
      <point x="121.0" y="81.0" type="line"/>
      <point x="121.0" y="61.0" type="line"/>
      <point x="331.0" y="320.0" type="line"/>
      <point x="310.0" y="323.0" type="line"/>
      <point x="310.0" y="-217.0" type="line"/>
    </contour>
  </outline>
</glyph>
<glyph name="gravecomb.case" format="2">
  <note>
gravecomb.cap
</note>
  <anchor x="300.0" y="660.0" name="_top"/>
  <anchor x="300.0" y="871.0" name="top"/>
  <outline>
    <contour>
      <point x="273.0" y="707.0" type="line"/>
      <point x="327.0" y="725.0" type="line"/>
      <point x="242.0" y="857.0" type="line"/>
      <point x="140.0" y="834.0" type="line"/>
    </contour>
  </outline>
</glyph>
<glyph name="hookabovecomb.case" format="2">
  <note>
hookabovecomb.cap
</note>
  <anchor x="300.0" y="660.0" name="_top"/>
  <anchor x="300.0" y="871.0" name="top"/>
  <outline>
    <contour>
      <point x="302.0" y="894.0" type="curve" smooth="yes"/>
      <point x="241.0" y="894.0"/>
      <point x="202.0" y="867.0"/>
      <point x="202.0" y="839.0" type="curve" smooth="yes"/>
      <point x="202.0" y="823.0"/>
      <point x="213.0" y="812.0"/>
      <point x="231.0" y="812.0" type="curve" smooth="yes"/>
      <point x="247.0" y="812.0"/>
      <point x="255.0" y="818.0"/>
      <point x="269.0" y="831.0" type="curve" smooth="yes"/>
      <point x="307.0" y="870.0" type="line"/>
      <point x="268.0" y="858.0" type="line"/>
      <point x="302.0" y="866.0"/>
      <point x="325.0" y="863.0"/>
      <point x="325.0" y="834.0" type="curve" smooth="yes"/>
      <point x="325.0" y="807.0"/>
      <point x="280.0" y="785.0"/>
      <point x="280.0" y="734.0" type="curve" smooth="yes"/>
      <point x="280.0" y="717.0" type="line"/>
      <point x="320.0" y="717.0" type="line"/>
      <point x="320.0" y="768.0"/>
      <point x="405.0" y="766.0"/>
      <point x="405.0" y="829.0" type="curve" smooth="yes"/>
      <point x="405.0" y="870.0"/>
      <point x="365.0" y="894.0"/>
    </contour>
  </outline>
</glyph>
<glyph name="horncomb.case" format="2">
  <anchor x="371.0" y="652.0" name="_topright"/>
  <outline>
    <contour>
      <point x="371.0" y="652.0" type="curve" smooth="yes"/>
      <point x="349.0" y="652.0" type="line"/>
      <point x="349.0" y="607.0" type="line"/>
      <point x="386.0" y="607.0" type="line" smooth="yes"/>
      <point x="447.0" y="607.0"/>
      <point x="519.0" y="648.0"/>
      <point x="519.0" y="704.0" type="curve" smooth="yes"/>
      <point x="519.0" y="745.0"/>
      <point x="476.0" y="764.0"/>
      <point x="418.0" y="753.0" type="curve"/>
      <point x="415.0" y="698.0" type="line" smooth="yes"/>
      <point x="413.0" y="665.0"/>
      <point x="404.0" y="652.0"/>
    </contour>
  </outline>
</glyph>
<glyph name="hungarumlautcomb.case" format="2">
  <note>
uni030B.cap
</note>
  <anchor x="300.0" y="660.0" name="_top"/>
  <anchor x="300.0" y="871.0" name="top"/>
  <outline>
    <contour>
      <point x="392.0" y="711.0" type="line"/>
      <point x="473.0" y="833.0" type="line"/>
      <point x="389.0" y="850.0" type="line"/>
      <point x="346.0" y="727.0" type="line"/>
    </contour>
    <contour>
      <point x="254.0" y="711.0" type="line"/>
      <point x="335.0" y="833.0" type="line"/>
      <point x="252.0" y="850.0" type="line"/>
      <point x="208.0" y="727.0" type="line"/>
    </contour>
  </outline>
</glyph>
<glyph name="macroncomb_acutecomb.case" format="2">
  <anchor x="300.0" y="660.0" name="_top"/>
  <outline>
    <contour>
      <point x="320.0" y="841.0" type="line"/>
      <point x="438.0" y="953.0" type="line"/>
      <point x="334.0" y="976.0" type="line"/>
      <point x="269.0" y="858.0" type="line"/>
    </contour>
    <contour>
      <point x="124.0" y="742.0" type="line"/>
      <point x="476.0" y="742.0" type="line"/>
      <point x="476.0" y="807.0" type="line"/>
      <point x="124.0" y="807.0" type="line"/>
    </contour>
  </outline>
</glyph>
<glyph name="macroncomb_acutecomb" format="2">
  <anchor x="300.0" y="436.0" name="_top"/>
  <outline>
    <contour>
      <point x="149.0" y="605.0" type="line"/>
      <point x="149.0" y="540.0" type="line"/>
      <point x="451.0" y="540.0" type="line"/>
      <point x="451.0" y="605.0" type="line"/>
    </contour>
    <contour>
      <point x="326.0" y="635.0" type="line"/>
      <point x="449.0" y="767.0" type="line"/>
      <point x="345.0" y="790.0" type="line"/>
      <point x="274.0" y="652.0" type="line"/>
    </contour>
  </outline>
</glyph>
<glyph name="macroncomb_gravecomb.case" format="2">
  <anchor x="300.0" y="660.0" name="_top"/>
  <outline>
    <contour>
      <point x="476.0" y="807.0" type="line"/>
      <point x="124.0" y="807.0" type="line"/>
      <point x="124.0" y="742.0" type="line"/>
      <point x="476.0" y="742.0" type="line"/>
    </contour>
    <contour>
      <point x="280.0" y="841.0" type="line"/>
      <point x="331.0" y="858.0" type="line"/>
      <point x="266.0" y="976.0" type="line"/>
      <point x="162.0" y="953.0" type="line"/>
    </contour>
  </outline>
</glyph>
<glyph name="macroncomb_gravecomb" format="2">
  <anchor x="300.0" y="436.0" name="_top"/>
  <outline>
    <contour>
      <point x="451.0" y="605.0" type="line"/>
      <point x="149.0" y="605.0" type="line"/>
      <point x="149.0" y="540.0" type="line"/>
      <point x="451.0" y="540.0" type="line"/>
    </contour>
    <contour>
      <point x="274.0" y="635.0" type="line"/>
      <point x="326.0" y="652.0" type="line"/>
      <point x="255.0" y="790.0" type="line"/>
      <point x="152.0" y="767.0" type="line"/>
    </contour>
  </outline>
</glyph>
<glyph name="nine.tf" format="2">
  <advance width="540.0"/>
  <note>
nine
</note>
  <outline>
    <contour>
      <point x="381.0" y="334.0" type="curve"/>
      <point x="381.0" y="381.0" type="line"/>
      <point x="360.0" y="346.0"/>
      <point x="316.0" y="317.0"/>
      <point x="269.0" y="317.0" type="curve" smooth="yes"/>
      <point x="209.0" y="317.0"/>
      <point x="170.0" y="363.0"/>
      <point x="170.0" y="435.0" type="curve" smooth="yes"/>
      <point x="170.0" y="496.0"/>
      <point x="207.0" y="542.0"/>
      <point x="256.0" y="542.0" type="curve" smooth="yes"/>
      <point x="319.0" y="542.0"/>
      <point x="361.0" y="471.0"/>
      <point x="361.0" y="375.0" type="curve" smooth="yes"/>
      <point x="361.0" y="190.0"/>
      <point x="273.0" y="85.0"/>
      <point x="84.0" y="41.0" type="curve"/>
      <point x="103.0" y="-15.0" type="line"/>
      <point x="343.0" y="11.0"/>
      <point x="487.0" y="178.0"/>
      <point x="487.0" y="366.0" type="curve" smooth="yes"/>
      <point x="487.0" y="500.0"/>
      <point x="397.0" y="599.0"/>
      <point x="264.0" y="599.0" type="curve" smooth="yes"/>
      <point x="143.0" y="599.0"/>
      <point x="49.0" y="511.0"/>
      <point x="49.0" y="400.0" type="curve" smooth="yes"/>
      <point x="49.0" y="304.0"/>
      <point x="125.0" y="230.0"/>
      <point x="219.0" y="230.0" type="curve" smooth="yes"/>
      <point x="279.0" y="230.0"/>
      <point x="339.0" y="273.0"/>
    </contour>
  </outline>
</glyph>
<glyph name="periodcentered.loclCAT" format="2">
  <advance width="600.0"/>
  <anchor x="300.0" y="315.0" name="_dotacc"/>
  <outline>
    <contour>
      <point x="301.0" y="248.0" type="curve" smooth="yes"/>
      <point x="344.0" y="248.0"/>
      <point x="369.0" y="279.0"/>
      <point x="369.0" y="315.0" type="curve" smooth="yes"/>
      <point x="369.0" y="350.0"/>
      <point x="344.0" y="381.0"/>
      <point x="301.0" y="381.0" type="curve" smooth="yes"/>
      <point x="257.0" y="381.0"/>
      <point x="231.0" y="350.0"/>
      <point x="231.0" y="315.0" type="curve" smooth="yes"/>
      <point x="231.0" y="279.0"/>
      <point x="257.0" y="248.0"/>
    </contour>
  </outline>
</glyph>
<glyph name="ringcomb_acutecomb.case" format="2">
  <anchor x="300.0" y="660.0" name="_top"/>
  <outline>
    <contour>
      <point x="301.0" y="713.0" type="curve" smooth="yes"/>
      <point x="362.0" y="713.0"/>
      <point x="407.0" y="756.0"/>
      <point x="407.0" y="814.0" type="curve" smooth="yes"/>
      <point x="407.0" y="872.0"/>
      <point x="362.0" y="916.0"/>
      <point x="301.0" y="916.0" type="curve" smooth="yes"/>
      <point x="240.0" y="916.0"/>
      <point x="193.0" y="871.0"/>
      <point x="193.0" y="814.0" type="curve" smooth="yes"/>
      <point x="193.0" y="757.0"/>
      <point x="240.0" y="713.0"/>
    </contour>
    <contour>
      <point x="302.0" y="753.0" type="curve" smooth="yes"/>
      <point x="267.0" y="753.0"/>
      <point x="242.0" y="780.0"/>
      <point x="242.0" y="815.0" type="curve" smooth="yes"/>
      <point x="242.0" y="851.0"/>
      <point x="267.0" y="877.0"/>
      <point x="302.0" y="877.0" type="curve" smooth="yes"/>
      <point x="336.0" y="877.0"/>
      <point x="360.0" y="852.0"/>
      <point x="360.0" y="815.0" type="curve" smooth="yes"/>
      <point x="360.0" y="778.0"/>
      <point x="336.0" y="753.0"/>
    </contour>
    <contour>
      <point x="377.0" y="859.0" type="line"/>
      <point x="485.0" y="962.0" type="line"/>
      <point x="381.0" y="985.0" type="line"/>
      <point x="326.0" y="877.0" type="line"/>
    </contour>
  </outline>
</glyph>
<glyph name="ringcomb_acutecomb" format="2">
  <anchor x="300.0" y="436.0" name="_top"/>
  <outline>
    <contour>
      <point x="301.0" y="488.0" type="curve" smooth="yes"/>
      <point x="362.0" y="488.0"/>
      <point x="407.0" y="532.0"/>
      <point x="407.0" y="590.0" type="curve" smooth="yes"/>
      <point x="407.0" y="648.0"/>
      <point x="362.0" y="691.0"/>
      <point x="301.0" y="691.0" type="curve" smooth="yes"/>
      <point x="240.0" y="691.0"/>
      <point x="193.0" y="647.0"/>
      <point x="193.0" y="590.0" type="curve" smooth="yes"/>
      <point x="193.0" y="532.0"/>
      <point x="240.0" y="488.0"/>
    </contour>
    <contour>
      <point x="302.0" y="529.0" type="curve" smooth="yes"/>
      <point x="267.0" y="529.0"/>
      <point x="242.0" y="555.0"/>
      <point x="242.0" y="591.0" type="curve" smooth="yes"/>
      <point x="242.0" y="626.0"/>
      <point x="267.0" y="652.0"/>
      <point x="302.0" y="652.0" type="curve" smooth="yes"/>
      <point x="336.0" y="652.0"/>
      <point x="360.0" y="627.0"/>
      <point x="360.0" y="591.0" type="curve" smooth="yes"/>
      <point x="360.0" y="554.0"/>
      <point x="336.0" y="529.0"/>
    </contour>
    <contour>
      <point x="377.0" y="635.0" type="line"/>
      <point x="500.0" y="767.0" type="line"/>
      <point x="397.0" y="790.0" type="line"/>
      <point x="326.0" y="652.0" type="line"/>
    </contour>
  </outline>
</glyph>
<glyph name="seven.numr" format="2">
  <advance width="400.0"/>
  <note>
uni2087
</note>
  <outline>
    <contour>
      <point x="121.0" y="199.0" type="line"/>
      <point x="202.0" y="199.0" type="line"/>
      <point x="359.0" y="550.0" type="line"/>
      <point x="356.0" y="588.0" type="line"/>
      <point x="338.0" y="588.0"/>
      <point x="320.0" y="587.0"/>
      <point x="303.0" y="587.0" type="curve"/>
      <point x="159.0" y="587.0" type="line" smooth="yes"/>
      <point x="139.0" y="587.0"/>
      <point x="82.0" y="589.0"/>
      <point x="61.0" y="588.0" type="curve"/>
      <point x="48.0" y="460.0" type="line"/>
      <point x="92.0" y="455.0" type="line"/>
      <point x="104.0" y="500.0" type="line"/>
      <point x="118.0" y="501.0"/>
      <point x="134.0" y="502.0"/>
      <point x="144.0" y="502.0" type="curve"/>
      <point x="301.0" y="502.0" type="line"/>
      <point x="300.0" y="530.0" type="line"/>
      <point x="121.0" y="226.0" type="line"/>
    </contour>
  </outline>
</glyph>
<glyph name="seven.osf" format="2">
  <advance width="485.0"/>
  <note>
seven.onum
</note>
  <outline>
    <contour>
      <point x="228.0" y="-220.0" type="line"/>
      <point x="460.0" y="391.0" type="line"/>
      <point x="456.0" y="437.0" type="line"/>
      <point x="428.0" y="437.0"/>
      <point x="398.0" y="436.0"/>
      <point x="371.0" y="436.0" type="curve" smooth="yes"/>
      <point x="166.0" y="436.0" type="line" smooth="yes"/>
      <point x="124.0" y="436.0"/>
      <point x="84.0" y="437.0"/>
      <point x="51.0" y="439.0" type="curve"/>
      <point x="34.0" y="254.0" type="line"/>
      <point x="90.0" y="248.0" type="line"/>
      <point x="111.0" y="335.0" type="line"/>
      <point x="125.0" y="337.0"/>
      <point x="144.0" y="338.0"/>
      <point x="160.0" y="338.0" type="curve" smooth="yes"/>
      <point x="387.0" y="338.0" type="line"/>
      <point x="388.0" y="373.0" type="line"/>
      <point x="131.0" y="-183.0" type="line"/>
      <point x="131.0" y="-220.0" type="line"/>
    </contour>
  </outline>
</glyph>
<glyph name="six.numr" format="2">
  <advance width="400.0"/>
  <note>
uni2086
</note>
  <outline>
    <contour>
      <point x="134.0" y="373.0" type="curve"/>
      <point x="137.0" y="338.0" type="line"/>
      <point x="150.0" y="359.0"/>
      <point x="178.0" y="376.0"/>
      <point x="202.0" y="376.0" type="curve" smooth="yes"/>
      <point x="235.0" y="376.0"/>
      <point x="257.0" y="350.0"/>
      <point x="257.0" y="308.0" type="curve" smooth="yes"/>
      <point x="257.0" y="265.0"/>
      <point x="236.0" y="238.0"/>
      <point x="207.0" y="238.0" type="curve" smooth="yes"/>
      <point x="169.0" y="238.0"/>
      <point x="145.0" y="286.0"/>
      <point x="145.0" y="341.0" type="curve" smooth="yes"/>
      <point x="145.0" y="467.0"/>
      <point x="204.0" y="537.0"/>
      <point x="336.0" y="554.0" type="curve"/>
      <point x="322.0" y="599.0" type="line"/>
      <point x="157.0" y="595.0"/>
      <point x="38.0" y="489.0"/>
      <point x="38.0" y="355.0" type="curve" smooth="yes"/>
      <point x="38.0" y="263.0"/>
      <point x="104.0" y="193.0"/>
      <point x="201.0" y="193.0" type="curve" smooth="yes"/>
      <point x="286.0" y="193.0"/>
      <point x="361.0" y="252.0"/>
      <point x="361.0" y="331.0" type="curve" smooth="yes"/>
      <point x="361.0" y="402.0"/>
      <point x="306.0" y="446.0"/>
      <point x="244.0" y="446.0" type="curve" smooth="yes"/>
      <point x="206.0" y="446.0"/>
      <point x="166.0" y="418.0"/>
    </contour>
  </outline>
</glyph>
<glyph name="slashlongcomb.case" format="2">
  <anchor x="300.0" y="294.0" name="_center"/>
  <outline>
    <contour>
      <point x="112.0" y="-70.0" type="line"/>
      <point x="544.0" y="625.0" type="line"/>
      <point x="488.0" y="658.0" type="line"/>
      <point x="56.0" y="-37.0" type="line"/>
    </contour>
  </outline>
</glyph>
